Oxygen---0_ox-0_36.ufo
<glyph name="exclam" format="1">
  <advance width="653"/>
  <unicode hex="0021"/>
  <outline>
    <contour>
      <point x="204" y="110" type="curve" smooth="yes"/>
      <point x="204" y="163"/>
      <point x="238" y="225"/>
      <point x="326" y="225" type="curve" smooth="yes"/>
      <point x="416" y="225"/>
      <point x="450" y="163"/>
      <point x="450" y="110" type="curve" smooth="yes"/>
      <point x="450" y="56"/>
      <point x="416" y="-8"/>
      <point x="326" y="-8" type="curve" smooth="yes"/>
      <point x="238" y="-8"/>
      <point x="204" y="56"/>
    </contour>
    <contour>
      <point x="411" y="1524" type="line"/>
      <point x="411" y="1440" type="line"/>
      <point x="359" y="425" type="line"/>
      <point x="293" y="425" type="line"/>
      <point x="235" y="1440" type="line"/>
      <point x="235" y="1524" type="line"/>
    </contour>
  </outline>
</glyph>
<glyph name="quotedbl" format="1">
  <advance width="675"/>
  <unicode hex="0022"/>
  <outline>
    <contour>
      <point x="426" y="1060" type="line"/>
      <point x="411" y="1539" type="line"/>
      <point x="528" y="1539" type="line"/>
      <point x="496" y="1060" type="line"/>
    </contour>
    <contour>
      <point x="168" y="1060" type="line"/>
      <point x="154" y="1539" type="line"/>
      <point x="270" y="1539" type="line"/>
      <point x="238" y="1060" type="line"/>
    </contour>
  </outline>
</glyph>
<glyph name="numbersign" format="1">
  <advance width="1106"/>
  <unicode hex="0023"/>
  <outline>
    <contour>
      <point x="982" y="1039" type="line"/>
      <point x="966" y="955" type="line"/>
      <point x="846" y="955" type="line"/>
      <point x="776" y="502" type="line"/>
      <point x="899" y="502" type="line"/>
      <point x="889" y="414" type="line"/>
      <point x="763" y="414" type="line"/>
      <point x="675" y="-29" type="line"/>
      <point x="545" y="-29" type="line"/>
      <point x="632" y="414" type="line"/>
      <point x="375" y="414" type="line"/>
      <point x="295" y="-29" type="line"/>
      <point x="194" y="-29" type="line"/>
      <point x="266" y="414" type="line"/>
      <point x="109" y="414" type="line"/>
      <point x="120" y="502" type="line"/>
      <point x="282" y="502" type="line"/>
      <point x="346" y="954" type="line"/>
      <point x="186" y="954" type="line"/>
      <point x="195" y="1039" type="line"/>
      <point x="368" y="1039" type="line"/>
      <point x="452" y="1465" type="line"/>
      <point x="585" y="1465" type="line"/>
      <point x="504" y="1039" type="line"/>
      <point x="758" y="1039" type="line"/>
      <point x="828" y="1465" type="line"/>
      <point x="926" y="1465" type="line"/>
      <point x="864" y="1039" type="line"/>
    </contour>
    <contour>
      <point x="739" y="955" type="line"/>
      <point x="484" y="955" type="line"/>
      <point x="395" y="502" type="line"/>
      <point x="652" y="502" type="line"/>
    </contour>
  </outline>
</glyph>
<glyph name="dollar" format="1">
  <advance width="1264"/>
  <unicode hex="0024"/>
  <outline>
    <contour>
      <point x="593" y="1746" type="line"/>
      <point x="679" y="1746" type="line"/>
      <point x="679" y="1570" type="line"/>
      <point x="851" y="1567"/>
      <point x="1003" y="1519"/>
      <point x="1093" y="1462" type="curve"/>
      <point x="1055" y="1363" type="line"/>
      <point x="990" y="1399"/>
      <point x="837" y="1457"/>
      <point x="679" y="1463" type="curve"/>
      <point x="679" y="862" type="line"/>
      <point x="672" y="866"/>
      <point x="806" y="831"/>
      <point x="799" y="835" type="curve" smooth="yes"/>
      <point x="1015" y="804"/>
      <point x="1151" y="681"/>
      <point x="1151" y="430" type="curve" smooth="yes"/>
      <point x="1151" y="105"/>
      <point x="962" y="-45"/>
      <point x="679" y="-53" type="curve"/>
      <point x="679" y="-215" type="line"/>
      <point x="593" y="-215" type="line"/>
      <point x="593" y="-51" type="line"/>
      <point x="343" y="-41"/>
      <point x="170" y="36"/>
      <point x="100" y="80" type="curve"/>
      <point x="156" y="171" type="line"/>
      <point x="282" y="112"/>
      <point x="418" y="71"/>
      <point x="593" y="61" type="curve"/>
      <point x="593" y="760" type="line"/>
      <point x="427" y="800" type="line"/>
      <point x="228" y="836"/>
      <point x="101" y="948"/>
      <point x="101" y="1137" type="curve" smooth="yes"/>
      <point x="101" y="1432"/>
      <point x="291" y="1557"/>
      <point x="593" y="1570" type="curve"/>
    </contour>
    <contour>
      <point x="593" y="872" type="curve"/>
      <point x="593" y="1463" type="line"/>
      <point x="357" y="1450"/>
      <point x="238" y="1350"/>
      <point x="238" y="1148" type="curve" smooth="yes"/>
      <point x="238" y="1012"/>
      <point x="326" y="933"/>
      <point x="493" y="896" type="curve" smooth="yes"/>
      <point x="490" y="898"/>
      <point x="597" y="870"/>
    </contour>
    <contour>
      <point x="679" y="747" type="curve"/>
      <point x="679" y="56" type="line"/>
      <point x="900" y="62"/>
      <point x="1016" y="183"/>
      <point x="1016" y="434" type="curve" smooth="yes"/>
      <point x="1016" y="577"/>
      <point x="968" y="680"/>
      <point x="739" y="734" type="curve" smooth="yes"/>
      <point x="742" y="732"/>
      <point x="675" y="750"/>
    </contour>
  </outline>
</glyph>
<glyph name="ampersand" format="1">
  <advance width="1497"/>
  <unicode hex="0026"/>
  <outline>
    <contour>
      <point x="463" y="845" type="curve"/>
      <point x="351" y="971"/>
      <point x="286" y="1045"/>
      <point x="286" y="1176" type="curve" smooth="yes"/>
      <point x="286" y="1355"/>
      <point x="427" y="1492"/>
      <point x="679" y="1492" type="curve" smooth="yes"/>
      <point x="890" y="1492"/>
      <point x="1064" y="1387"/>
      <point x="1064" y="1192" type="curve" smooth="yes"/>
      <point x="1064" y="1026"/>
      <point x="921" y="912"/>
      <point x="717" y="817" type="curve"/>
      <point x="1142" y="354" type="line"/>
      <point x="1199" y="411"/>
      <point x="1244" y="490"/>
      <point x="1278" y="574" type="curve"/>
      <point x="1376" y="497" type="line"/>
      <point x="1339" y="411"/>
      <point x="1289" y="333"/>
      <point x="1227" y="258" type="curve"/>
      <point x="1396" y="44" type="line"/>
      <point x="1326" y="14"/>
      <point x="1333" y="16"/>
      <point x="1264" y="-8" type="curve"/>
      <point x="1131" y="151" type="line"/>
      <point x="1011" y="51"/>
      <point x="855" y="-23"/>
      <point x="639" y="-23" type="curve" smooth="yes"/>
      <point x="263" y="-23"/>
      <point x="126" y="165"/>
      <point x="126" y="388" type="curve" smooth="yes"/>
      <point x="126" y="604"/>
      <point x="252" y="739"/>
    </contour>
    <contour>
      <point x="561" y="745" type="curve"/>
      <point x="393" y="659"/>
      <point x="277" y="542"/>
      <point x="277" y="391" type="curve" smooth="yes"/>
      <point x="277" y="225"/>
      <point x="405" y="106"/>
      <point x="649" y="106" type="curve" smooth="yes"/>
      <point x="806" y="106"/>
      <point x="922" y="162"/>
      <point x="1026" y="246" type="curve"/>
      <point x="824" y="493"/>
      <point x="764" y="498"/>
    </contour>
    <contour>
      <point x="680" y="1367" type="curve" smooth="yes"/>
      <point x="547" y="1367"/>
      <point x="457" y="1290"/>
      <point x="457" y="1169" type="curve" smooth="yes"/>
      <point x="457" y="1066"/>
      <point x="522" y="998"/>
      <point x="621" y="900" type="curve"/>
      <point x="773" y="976"/>
      <point x="895" y="1042"/>
      <point x="895" y="1175" type="curve" smooth="yes"/>
      <point x="895" y="1301"/>
      <point x="791" y="1367"/>
    </contour>
  </outline>
</glyph>
<glyph name="quotesingle" format="1">
  <advance width="415"/>
  <unicode hex="0027"/>
  <outline>
    <contour>
      <point x="266" y="1502" type="line"/>
      <point x="246" y="1009" type="line"/>
      <point x="152" y="1009" type="line"/>
      <point x="137" y="1502" type="line"/>
    </contour>
  </outline>
</glyph>
<glyph name="parenleft" format="1">
  <advance width="590"/>
  <unicode hex="0028"/>
  <outline>
    <contour>
      <point x="108" y="599" type="curve" smooth="yes"/>
      <point x="108" y="921"/>
      <point x="203" y="1223"/>
      <point x="376" y="1484" type="curve"/>
      <point x="493" y="1484" type="line"/>
      <point x="298" y="1149"/>
      <point x="240" y="892"/>
      <point x="240" y="604" type="curve" smooth="yes"/>
      <point x="240" y="341"/>
      <point x="304" y="52"/>
      <point x="493" y="-268" type="curve"/>
      <point x="379" y="-268" type="line"/>
      <point x="210" y="-33"/>
      <point x="108" y="289"/>
    </contour>
  </outline>
</glyph>
<glyph name="parenright" format="1">
  <advance width="590"/>
  <unicode hex="0029"/>
  <outline>
    <contour>
      <point x="481" y="599" type="curve" smooth="yes"/>
      <point x="481" y="286"/>
      <point x="377" y="-33"/>
      <point x="209" y="-268" type="curve"/>
      <point x="96" y="-268" type="line"/>
      <point x="284" y="51"/>
      <point x="349" y="340"/>
      <point x="349" y="604" type="curve" smooth="yes"/>
      <point x="349" y="892"/>
      <point x="290" y="1149"/>
      <point x="95" y="1484" type="curve"/>
      <point x="211" y="1484" type="line"/>
      <point x="384" y="1222"/>
      <point x="481" y="919"/>
    </contour>
  </outline>
</glyph>
<glyph name="asterisk" format="1">
  <advance width="1106"/>
  <unicode hex="002A"/>
  <outline>
    <contour>
      <point x="632" y="1534" type="line"/>
      <point x="595" y="1094" type="line"/>
      <point x="960" y="1258" type="line"/>
      <point x="1004" y="1114" type="line"/>
      <point x="630" y="1026" type="line"/>
      <point x="686" y="941"/>
      <point x="774" y="845"/>
      <point x="885" y="673" type="curve"/>
      <point x="816" y="622"/>
      <point x="824" y="645"/>
      <point x="754" y="594" type="curve"/>
      <point x="546" y="984" type="line"/>
      <point x="349" y="594" type="line"/>
      <point x="217" y="673" type="line"/>
      <point x="467" y="1026" type="line"/>
      <point x="98" y="1114" type="line"/>
      <point x="141" y="1258" type="line"/>
      <point x="504" y="1094" type="line"/>
      <point x="466" y="1534" type="line"/>
    </contour>
  </outline>
</glyph>
<glyph name="plus" format="1">
  <advance width="1100"/>
  <unicode hex="002B"/>
  <outline>
    <contour>
      <point x="611" y="698" type="line"/>
      <point x="993" y="698" type="line"/>
      <point x="993" y="602" type="line"/>
      <point x="610" y="602" type="line"/>
      <point x="610" y="158" type="line"/>
      <point x="502" y="158" type="line"/>
      <point x="502" y="602" type="line"/>
      <point x="111" y="602" type="line"/>
      <point x="111" y="698" type="line"/>
      <point x="503" y="698" type="line"/>
      <point x="503" y="1134" type="line"/>
      <point x="611" y="1134" type="line"/>
    </contour>
  </outline>
</glyph>
<glyph name="comma" format="1">
  <advance width="504"/>
  <unicode hex="002C"/>
  <outline>
    <contour>
      <point x="131" y="-274" type="curve"/>
      <point x="201" y="-274" type="line"/>
      <point x="248" y="-137"/>
      <point x="306" y="55"/>
      <point x="339" y="195" type="curve"/>
      <point x="337" y="236" type="line"/>
      <point x="162" y="236" type="line"/>
      <point x="163" y="107"/>
      <point x="138" y="-141"/>
    </contour>
  </outline>
</glyph>
<glyph name="hyphen" format="1">
  <advance width="670"/>
  <unicode hex="002D"/>
  <outline>
    <contour>
      <point x="94" y="535" type="line"/>
      <point x="94" y="641" type="line"/>
      <point x="576" y="641" type="line"/>
      <point x="576" y="535" type="line"/>
    </contour>
  </outline>
</glyph>
<glyph name="period" format="1">
  <advance width="519"/>
  <unicode hex="002E"/>
  <outline>
    <contour>
      <point x="276" y="-8" type="curve" smooth="yes"/>
      <point x="188" y="-8"/>
      <point x="154" y="56"/>
      <point x="154" y="110" type="curve" smooth="yes"/>
      <point x="154" y="163"/>
      <point x="187" y="225"/>
      <point x="276" y="225" type="curve" smooth="yes"/>
      <point x="366" y="225"/>
      <point x="400" y="163"/>
      <point x="400" y="110" type="curve" smooth="yes"/>
      <point x="400" y="56"/>
      <point x="366" y="-8"/>
    </contour>
  </outline>
</glyph>
<glyph name="slash" format="1">
  <advance width="953"/>
  <unicode hex="002F"/>
  <outline>
    <contour>
      <point x="160" y="-239" type="line"/>
      <point x="49" y="-239" type="line"/>
      <point x="751" y="1449" type="line"/>
      <point x="863" y="1449" type="line"/>
    </contour>
  </outline>
</glyph>
<glyph name="zero" format="1">
  <advance width="1215"/>
  <unicode hex="0030"/>
  <outline>
    <contour>
      <point x="608" y="-25" type="curve" smooth="yes"/>
      <point x="266" y="-25"/>
      <point x="113" y="295"/>
      <point x="113" y="765" type="curve" smooth="yes"/>
      <point x="113" y="1264"/>
      <point x="285" y="1551"/>
      <point x="608" y="1551" type="curve" smooth="yes"/>
      <point x="931" y="1551"/>
      <point x="1099" y="1265"/>
      <point x="1099" y="765" type="curve" smooth="yes"/>
      <point x="1099" y="295"/>
      <point x="950" y="-25"/>
    </contour>
    <contour>
      <point x="608" y="1439" type="curve" smooth="yes"/>
      <point x="406" y="1439"/>
      <point x="266" y="1183"/>
      <point x="267" y="767" type="curve"/>
      <point x="267" y="343"/>
      <point x="407" y="87"/>
      <point x="608" y="87" type="curve" smooth="yes"/>
      <point x="809" y="87"/>
      <point x="949" y="345"/>
      <point x="949" y="770" type="curve" smooth="yes"/>
      <point x="949" y="1184"/>
      <point x="809" y="1439"/>
    </contour>
  </outline>
</glyph>
<glyph name="one" format="1">
  <advance width="597"/>
  <unicode hex="0031"/>
  <outline>
    <contour>
      <point x="286" y="1523" type="curve"/>
      <point x="416" y="1523" type="line"/>
      <point x="416" y="-1" type="line"/>
      <point x="275" y="-1" type="line"/>
      <point x="275" y="1378" type="line"/>
      <point x="168" y="1297"/>
      <point x="132" y="1298"/>
      <point x="34" y="1263" type="curve"/>
      <point x="34" y="1405" type="line"/>
      <point x="154" y="1466"/>
      <point x="178" y="1436"/>
    </contour>
  </outline>
</glyph>
<glyph name="two" format="1">
  <advance width="1146"/>
  <unicode hex="0032"/>
  <outline>
    <contour>
      <point x="134" y="0" type="line"/>
      <point x="1011" y="0" type="line"/>
      <point x="1018" y="123" type="line"/>
      <point x="276" y="123" type="line"/>
      <point x="746" y="659" type="line" smooth="yes"/>
      <point x="925" y="865"/>
      <point x="1006" y="1287"/>
      <point x="1006" y="1162" type="curve" smooth="yes"/>
      <point x="1006" y="1390"/>
      <point x="848" y="1551"/>
      <point x="579" y="1551" type="curve" smooth="yes"/>
      <point x="381" y="1551"/>
      <point x="251" y="1497"/>
      <point x="177" y="1428" type="curve"/>
      <point x="227" y="1313" type="line"/>
      <point x="316" y="1412"/>
      <point x="446" y="1432"/>
      <point x="569" y="1432" type="curve" smooth="yes"/>
      <point x="757" y="1432"/>
      <point x="850" y="1336"/>
      <point x="850" y="1143" type="curve" smooth="yes"/>
      <point x="850" y="1215"/>
      <point x="770" y="899"/>
      <point x="642" y="748" type="curve" smooth="yes"/>
      <point x="103" y="126" type="line"/>
    </contour>
  </outline>
</glyph>
<glyph name="three" format="1">
  <advance width="1115"/>
  <unicode hex="0033"/>
  <outline>
    <contour>
      <point x="501" y="-25" type="curve" smooth="yes"/>
      <point x="791" y="-25"/>
      <point x="994" y="157"/>
      <point x="994" y="419" type="curve" smooth="yes"/>
      <point x="994" y="744"/>
      <point x="872" y="780"/>
      <point x="687" y="817" type="curve"/>
      <point x="851" y="866"/>
      <point x="961" y="983"/>
      <point x="961" y="1199" type="curve" smooth="yes"/>
      <point x="961" y="1444"/>
      <point x="747" y="1551"/>
      <point x="553" y="1551" type="curve" smooth="yes"/>
      <point x="337" y="1551"/>
      <point x="206" y="1506"/>
      <point x="126" y="1437" type="curve"/>
      <point x="174" y="1323" type="line"/>
      <point x="250" y="1392"/>
      <point x="370" y="1439"/>
      <point x="509" y="1439" type="curve" smooth="yes"/>
      <point x="693" y="1439"/>
      <point x="799" y="1383"/>
      <point x="799" y="1174" type="curve" smooth="yes"/>
      <point x="799" y="922"/>
      <point x="599" y="882"/>
      <point x="389" y="876" type="curve" smooth="yes"/>
      <point x="367" y="875"/>
      <point x="365" y="875"/>
      <point x="342" y="875" type="curve"/>
      <point x="342" y="765" type="line"/>
      <point x="370" y="765"/>
      <point x="376" y="765"/>
      <point x="403" y="764" type="curve"/>
      <point x="657" y="756"/>
      <point x="863" y="690"/>
      <point x="863" y="413" type="curve" smooth="yes"/>
      <point x="863" y="195"/>
      <point x="719" y="87"/>
      <point x="502" y="87" type="curve" smooth="yes"/>
      <point x="345" y="87"/>
      <point x="249" y="144"/>
      <point x="174" y="202" type="curve"/>
      <point x="125" y="86" type="line"/>
      <point x="166" y="50"/>
      <point x="297" y="-25"/>
    </contour>
  </outline>
</glyph>
<glyph name="four" format="1">
  <advance width="1191"/>
  <unicode hex="0034"/>
  <outline>
    <contour>
      <point x="1092" y="405" type="line"/>
      <point x="920" y="405" type="line"/>
      <point x="920" y="0" type="line"/>
      <point x="799" y="0" type="line"/>
      <point x="799" y="405" type="line"/>
      <point x="116" y="405" type="line"/>
      <point x="116" y="539" type="line"/>
      <point x="804" y="1524" type="line"/>
      <point x="920" y="1524" type="line"/>
      <point x="920" y="511" type="line"/>
      <point x="1106" y="511" type="line"/>
    </contour>
    <contour>
      <point x="799" y="1318" type="line"/>
      <point x="252" y="512" type="line"/>
      <point x="799" y="512" type="line"/>
    </contour>
  </outline>
</glyph>
<glyph name="five" format="1">
  <advance width="1196"/>
  <unicode hex="0035"/>
  <outline>
    <contour>
      <point x="1005" y="1524" type="line"/>
      <point x="992" y="1391" type="line"/>
      <point x="351" y="1391" type="line"/>
      <point x="344" y="1166"/>
      <point x="341" y="1064"/>
      <point x="336" y="840" type="curve"/>
      <point x="424" y="904"/>
      <point x="514" y="930"/>
      <point x="610" y="930" type="curve" smooth="yes"/>
      <point x="929" y="930"/>
      <point x="1068" y="721"/>
      <point x="1068" y="484" type="curve" smooth="yes"/>
      <point x="1068" y="178"/>
      <point x="854" y="-25"/>
      <point x="514" y="-25" type="curve" smooth="yes"/>
      <point x="360" y="-25"/>
      <point x="250" y="-15"/>
      <point x="129" y="110" type="curve"/>
      <point x="187" y="217" type="line"/>
      <point x="274" y="140"/>
      <point x="371" y="102"/>
      <point x="536" y="102" type="curve" smooth="yes"/>
      <point x="771" y="102"/>
      <point x="923" y="256"/>
      <point x="923" y="478" type="curve" smooth="yes"/>
      <point x="923" y="661"/>
      <point x="815" y="807"/>
      <point x="580" y="807" type="curve" smooth="yes"/>
      <point x="476" y="807"/>
      <point x="396" y="780"/>
      <point x="335" y="714" type="curve"/>
      <point x="213" y="722" type="line"/>
      <point x="253" y="1524" type="line"/>
    </contour>
  </outline>
</glyph>
<glyph name="six" format="1">
  <advance width="1196"/>
  <unicode hex="0036"/>
  <outline>
    <contour>
      <point x="625" y="923" type="curve" smooth="yes"/>
      <point x="861" y="923"/>
      <point x="1082" y="720"/>
      <point x="1082" y="444" type="curve" smooth="yes"/>
      <point x="1082" y="192"/>
      <point x="906" y="-25"/>
      <point x="603" y="-25" type="curve" smooth="yes"/>
      <point x="285" y="-25"/>
      <point x="121" y="225"/>
      <point x="121" y="479" type="curve" smooth="yes"/>
      <point x="121" y="726"/>
      <point x="188" y="868"/>
      <point x="431" y="1197" type="curve"/>
      <point x="547" y="1364"/>
      <point x="728" y="1513"/>
      <point x="728" y="1513" type="curve"/>
      <point x="912" y="1513" type="line"/>
      <point x="350" y="836" type="line"/>
      <point x="424" y="885"/>
      <point x="529" y="923"/>
    </contour>
    <contour>
      <point x="272" y="455" type="curve" smooth="yes"/>
      <point x="272" y="272"/>
      <point x="379" y="93"/>
      <point x="600" y="93" type="curve" smooth="yes"/>
      <point x="818" y="93"/>
      <point x="934" y="261"/>
      <point x="934" y="441" type="curve" smooth="yes"/>
      <point x="934" y="637"/>
      <point x="807" y="801"/>
      <point x="599" y="801" type="curve" smooth="yes"/>
      <point x="364" y="801"/>
      <point x="272" y="633"/>
    </contour>
  </outline>
</glyph>
<glyph name="seven" format="1">
  <advance width="1060"/>
  <unicode hex="0037"/>
  <outline>
    <contour>
      <point x="277" y="1" type="line"/>
      <point x="807" y="1402" type="line"/>
      <point x="117" y="1402" type="line"/>
      <point x="132" y="1523" type="line"/>
      <point x="965" y="1523" type="line"/>
      <point x="965" y="1402" type="line"/>
      <point x="418" y="1" type="line"/>
    </contour>
  </outline>
</glyph>
<glyph name="eight" format="1">
  <advance width="1197"/>
  <unicode hex="0038"/>
  <outline>
    <contour>
      <point x="602" y="-25" type="curve" smooth="yes"/>
      <point x="341" y="-25"/>
      <point x="122" y="118"/>
      <point x="122" y="382" type="curve" smooth="yes"/>
      <point x="122" y="576"/>
      <point x="242" y="743"/>
      <point x="458" y="803" type="curve"/>
      <point x="267" y="862"/>
      <point x="154" y="988"/>
      <point x="154" y="1175" type="curve" smooth="yes"/>
      <point x="154" y="1408"/>
      <point x="339" y="1551"/>
      <point x="602" y="1551" type="curve" smooth="yes"/>
      <point x="863" y="1551"/>
      <point x="1043" y="1409"/>
      <point x="1043" y="1175" type="curve" smooth="yes"/>
      <point x="1043" y="986"/>
      <point x="936" y="861"/>
      <point x="763" y="803" type="curve"/>
      <point x="958" y="744"/>
      <point x="1075" y="579"/>
      <point x="1075" y="383" type="curve" smooth="yes"/>
      <point x="1075" y="119"/>
      <point x="863" y="-25"/>
    </contour>
    <contour>
      <point x="602" y="721" type="curve"/>
      <point x="411" y="678"/>
      <point x="265" y="572"/>
      <point x="265" y="400" type="curve" smooth="yes"/>
      <point x="265" y="219"/>
      <point x="416" y="105"/>
      <point x="602" y="105" type="curve" smooth="yes"/>
      <point x="786" y="105"/>
      <point x="932" y="218"/>
      <point x="932" y="399" type="curve" smooth="yes"/>
      <point x="932" y="571"/>
      <point x="795" y="677"/>
    </contour>
    <contour>
      <point x="602" y="1419" type="curve" smooth="yes"/>
      <point x="452" y="1419"/>
      <point x="306" y="1343"/>
      <point x="306" y="1183" type="curve" smooth="yes"/>
      <point x="306" y="1016"/>
      <point x="406" y="912"/>
      <point x="602" y="866" type="curve"/>
      <point x="796" y="910"/>
      <point x="892" y="1015"/>
      <point x="892" y="1183" type="curve" smooth="yes"/>
      <point x="892" y="1343"/>
      <point x="751" y="1419"/>
    </contour>
  </outline>
</glyph>
<glyph name="nine" format="1">
  <advance width="1141"/>
  <unicode hex="0039"/>
  <outline>
    <contour>
      <point x="550" y="630" type="curve" smooth="yes"/>
      <point x="314" y="630"/>
      <point x="93" y="806"/>
      <point x="93" y="1083" type="curve" smooth="yes"/>
      <point x="93" y="1334"/>
      <point x="278" y="1551"/>
      <point x="580" y="1551" type="curve" smooth="yes"/>
      <point x="899" y="1551"/>
      <point x="1054" y="1320"/>
      <point x="1054" y="1066" type="curve" smooth="yes"/>
      <point x="1054" y="860"/>
      <point x="1002" y="731"/>
      <point x="822" y="470" type="curve"/>
      <point x="690" y="271"/>
      <point x="426" y="0"/>
      <point x="426" y="0" type="curve"/>
      <point x="257" y="0" type="line"/>
      <point x="826" y="717" type="line"/>
      <point x="751" y="668"/>
      <point x="646" y="630"/>
    </contour>
    <contour>
      <point x="904" y="1088" type="curve" smooth="yes"/>
      <point x="904" y="1271"/>
      <point x="804" y="1433"/>
      <point x="583" y="1433" type="curve" smooth="yes"/>
      <point x="366" y="1433"/>
      <point x="241" y="1264"/>
      <point x="241" y="1083" type="curve" smooth="yes"/>
      <point x="241" y="887"/>
      <point x="368" y="755"/>
      <point x="576" y="755" type="curve" smooth="yes"/>
      <point x="811" y="755"/>
      <point x="904" y="910"/>
    </contour>
  </outline>
</glyph>
<glyph name="colon" format="1">
  <advance width="511"/>
  <unicode hex="003A"/>
  <outline>
    <contour>
      <point x="168" y="931" type="line"/>
      <point x="168" y="1137" type="line"/>
      <point x="346" y="1137" type="line"/>
      <point x="346" y="931" type="line"/>
    </contour>
    <contour>
      <point x="168" y="-39" type="line"/>
      <point x="168" y="171" type="line"/>
      <point x="346" y="171" type="line"/>
      <point x="346" y="-39" type="line"/>
    </contour>
  </outline>
</glyph>
<glyph name="semicolon" format="1">
  <advance width="552"/>
  <unicode hex="003B"/>
  <outline>
    <contour>
      <point x="198" y="931" type="line"/>
      <point x="198" y="1138" type="line"/>
      <point x="376" y="1138" type="line"/>
      <point x="376" y="931" type="line"/>
    </contour>
    <contour>
      <point x="370" y="161" type="line"/>
      <point x="245" y="-301" type="line"/>
      <point x="153" y="-301" type="line"/>
      <point x="209" y="161" type="line"/>
    </contour>
  </outline>
</glyph>
<glyph name="less" format="1">
  <advance width="1165"/>
  <unicode hex="003C"/>
  <outline>
    <contour>
      <point x="1051" y="110" type="line"/>
      <point x="97" y="576" type="line"/>
      <point x="97" y="653" type="line"/>
      <point x="1054" y="1154" type="line"/>
      <point x="1054" y="1031" type="line"/>
      <point x="245" y="618" type="line"/>
      <point x="1051" y="233" type="line"/>
    </contour>
  </outline>
</glyph>
<glyph name="equal" format="1">
  <advance width="1241"/>
  <unicode hex="003D"/>
  <outline>
    <contour>
      <point x="151" y="392" type="line"/>
      <point x="1090" y="392" type="line"/>
      <point x="1090" y="498" type="line"/>
      <point x="151" y="498" type="line"/>
    </contour>
    <contour>
      <point x="149" y="832" type="line"/>
      <point x="1091" y="832" type="line"/>
      <point x="1091" y="940" type="line"/>
      <point x="149" y="940" type="line"/>
    </contour>
  </outline>
</glyph>
<glyph name="greater" format="1">
  <advance width="1166"/>
  <unicode hex="003E"/>
  <outline>
    <contour>
      <point x="113" y="244" type="line"/>
      <point x="921" y="618" type="line"/>
      <point x="116" y="1042" type="line"/>
      <point x="116" y="1162" type="line"/>
      <point x="1070" y="652" type="line"/>
      <point x="1070" y="574" type="line"/>
      <point x="113" y="119" type="line"/>
    </contour>
  </outline>
</glyph>
<glyph name="question" format="1">
  <advance width="855"/>
  <unicode hex="003F"/>
  <outline>
    <contour>
      <point x="390" y="426" type="curve"/>
      <point x="314" y="426" type="line"/>
      <point x="296" y="619"/>
      <point x="600" y="1035"/>
      <point x="600" y="1239" type="curve" smooth="yes"/>
      <point x="597" y="1383"/>
      <point x="501" y="1425"/>
      <point x="367" y="1425" type="curve" smooth="yes"/>
      <point x="254" y="1425"/>
      <point x="160" y="1372"/>
      <point x="117" y="1346" type="curve"/>
      <point x="83" y="1459" type="line"/>
      <point x="168" y="1533"/>
      <point x="308" y="1549"/>
      <point x="393" y="1549" type="curve" smooth="yes"/>
      <point x="616" y="1549"/>
      <point x="741" y="1428"/>
      <point x="741" y="1238" type="curve" smooth="yes"/>
      <point x="741" y="942"/>
      <point x="537" y="782"/>
    </contour>
    <contour>
      <point x="252" y="110" type="curve" smooth="yes"/>
      <point x="252" y="163"/>
      <point x="287" y="225"/>
      <point x="375" y="225" type="curve" smooth="yes"/>
      <point x="465" y="225"/>
      <point x="498" y="163"/>
      <point x="498" y="110" type="curve" smooth="yes"/>
      <point x="498" y="56"/>
      <point x="465" y="-8"/>
      <point x="375" y="-8" type="curve" smooth="yes"/>
      <point x="287" y="-8"/>
      <point x="252" y="56"/>
    </contour>
  </outline>
</glyph>
<glyph name="at" format="1">
  <advance width="1869"/>
  <unicode hex="0040"/>
  <outline>
    <contour>
      <point x="1737" y="844" type="curve" smooth="yes"/>
      <point x="1737" y="517"/>
      <point x="1531" y="334"/>
      <point x="1337" y="334" type="curve" smooth="yes"/>
      <point x="1228" y="334"/>
      <point x="1150" y="398"/>
      <point x="1130" y="471" type="curve"/>
      <point x="1086" y="445"/>
      <point x="996" y="339"/>
      <point x="857" y="339" type="curve" smooth="yes"/>
      <point x="693" y="339"/>
      <point x="582" y="460"/>
      <point x="582" y="690" type="curve" smooth="yes"/>
      <point x="582" y="944"/>
      <point x="703" y="1148"/>
      <point x="970" y="1148" type="curve" smooth="yes"/>
      <point x="1055" y="1148"/>
      <point x="1186" y="1127"/>
      <point x="1269" y="1100" type="curve"/>
      <point x="1242" y="882"/>
      <point x="1209" y="660"/>
      <point x="1219" y="560" type="curve" smooth="yes"/>
      <point x="1229" y="502"/>
      <point x="1275" y="441"/>
      <point x="1350" y="441" type="curve" smooth="yes"/>
      <point x="1472" y="441"/>
      <point x="1618" y="593"/>
      <point x="1618" y="854" type="curve" smooth="yes"/>
      <point x="1618" y="1233"/>
      <point x="1344" y="1451"/>
      <point x="966" y="1451" type="curve" smooth="yes"/>
      <point x="586" y="1451"/>
      <point x="251" y="1223"/>
      <point x="251" y="701" type="curve" smooth="yes"/>
      <point x="251" y="291"/>
      <point x="488" y="37"/>
      <point x="885" y="37" type="curve" smooth="yes"/>
      <point x="1042" y="37"/>
      <point x="1183" y="71"/>
      <point x="1304" y="120" type="curve"/>
      <point x="1329" y="6" type="line"/>
      <point x="1209" y="-58"/>
      <point x="1046" y="-77"/>
      <point x="882" y="-77" type="curve" smooth="yes"/>
      <point x="430" y="-77"/>
      <point x="132" y="204"/>
      <point x="132" y="686" type="curve" smooth="yes"/>
      <point x="132" y="1179"/>
      <point x="477" y="1560"/>
      <point x="979" y="1560" type="curve" smooth="yes"/>
      <point x="1411" y="1560"/>
      <point x="1737" y="1289"/>
    </contour>
    <contour>
      <point x="703" y="684" type="curve" smooth="yes"/>
      <point x="703" y="539"/>
      <point x="762" y="458"/>
      <point x="883" y="458" type="curve" smooth="yes"/>
      <point x="1035" y="458"/>
      <point x="1090" y="557"/>
      <point x="1105" y="750" type="curve" smooth="yes"/>
      <point x="1113" y="830"/>
      <point x="1119" y="913"/>
      <point x="1126" y="1001" type="curve"/>
      <point x="1089" y="1019"/>
      <point x="1017" y="1028"/>
      <point x="965" y="1028" type="curve" smooth="yes"/>
      <point x="768" y="1028"/>
      <point x="703" y="892"/>
    </contour>
  </outline>
</glyph>
<glyph name="A" format="1">
  <advance width="1275"/>
  <unicode hex="0041"/>
  <outline>
    <contour>
      <point x="637" y="1492" type="move" name="top"/>
    </contour>
    <contour>
      <point x="1147" y="10" type="move" name="ogonek"/>
    </contour>
    <contour>
      <point x="1139" y="0" type="line"/>
      <point x="1269" y="0" type="line"/>
      <point x="708" y="1494" type="line"/>
      <point x="588" y="1494" type="line"/>
      <point x="6" y="0" type="line"/>
      <point x="130" y="0" type="line"/>
      <point x="326" y="509" type="line"/>
      <point x="952" y="509" type="line"/>
    </contour>
    <contour>
      <point x="903" y="612" type="curve"/>
      <point x="379" y="612" type="line"/>
      <point x="379" y="612"/>
      <point x="620" y="1267"/>
      <point x="647" y="1369" type="curve"/>
      <point x="677" y="1252"/>
      <point x="903" y="612"/>
    </contour>
  </outline>
</glyph>
<glyph name="B" format="1">
  <advance width="1263"/>
  <unicode hex="0042"/>
  <outline>
    <contour>
      <point x="307" y="730" type="line"/>
      <point x="307" y="95" type="line"/>
      <point x="652" y="95" type="line" smooth="yes"/>
      <point x="920" y="95"/>
      <point x="1058" y="198"/>
      <point x="1058" y="418" type="curve" smooth="yes"/>
      <point x="1058" y="661"/>
      <point x="897" y="730"/>
      <point x="593" y="730" type="curve" smooth="yes"/>
    </contour>
    <contour>
      <point x="307" y="823" type="line"/>
      <point x="665" y="823" type="line" smooth="yes"/>
      <point x="864" y="823"/>
      <point x="999" y="876"/>
      <point x="999" y="1109" type="curve" smooth="yes"/>
      <point x="999" y="1328"/>
      <point x="847" y="1389"/>
      <point x="580" y="1389" type="curve" smooth="yes"/>
      <point x="307" y="1389" type="line"/>
    </contour>
    <contour>
      <point x="181" y="1489" type="line"/>
      <point x="586" y="1489" type="line" smooth="yes"/>
      <point x="961" y="1489"/>
      <point x="1138" y="1374"/>
      <point x="1138" y="1128" type="curve" smooth="yes"/>
      <point x="1138" y="1072"/>
      <point x="1124" y="864"/>
      <point x="870" y="786" type="curve"/>
      <point x="1088" y="754"/>
      <point x="1193" y="593"/>
      <point x="1193" y="418" type="curve" smooth="yes"/>
      <point x="1193" y="169"/>
      <point x="1043" y="0"/>
      <point x="684" y="0" type="curve" smooth="yes"/>
      <point x="181" y="0" type="line"/>
    </contour>
  </outline>
</glyph>
<glyph name="C" format="1">
  <advance width="1285"/>
  <unicode hex="0043"/>
  <outline>
    <contour>
      <point x="642" y="1492" type="move" name="top"/>
    </contour>
    <contour>
      <point x="642" y="0" type="move" name="bottom"/>
    </contour>
    <contour>
      <point x="826" y="1415" type="curve" smooth="yes"/>
      <point x="450" y="1415"/>
      <point x="257" y="1114"/>
      <point x="257" y="743" type="curve" smooth="yes"/>
      <point x="257" y="386"/>
      <point x="427" y="79"/>
      <point x="832" y="79" type="curve" smooth="yes"/>
      <point x="961" y="79"/>
      <point x="1080" y="121"/>
      <point x="1181" y="166" type="curve"/>
      <point x="1206" y="67" type="line"/>
      <point x="1120" y="13"/>
      <point x="992" y="-23"/>
      <point x="812" y="-23" type="curve" smooth="yes"/>
      <point x="344" y="-23"/>
      <point x="118" y="310"/>
      <point x="118" y="749" type="curve" smooth="yes"/>
      <point x="118" y="1188"/>
      <point x="371" y="1517"/>
      <point x="826" y="1517" type="curve" smooth="yes"/>
      <point x="1011" y="1517"/>
      <point x="1140" y="1472"/>
      <point x="1239" y="1414" type="curve"/>
      <point x="1179" y="1319" type="line"/>
      <point x="1081" y="1378"/>
      <point x="954" y="1415"/>
    </contour>
  </outline>
</glyph>
<glyph name="D" format="1">
  <advance width="1496"/>
  <unicode hex="0044"/>
  <outline>
    <contour>
      <point x="748" y="1492" type="move" name="top"/>
    </contour>
    <contour>
      <point x="748" y="746" type="move" name="center"/>
    </contour>
    <contour>
      <point x="1238" y="739" type="curve" smooth="yes"/>
      <point x="1238" y="311"/>
      <point x="1011" y="103"/>
      <point x="600" y="103" type="curve" smooth="yes"/>
      <point x="307" y="103" type="line"/>
      <point x="307" y="1387" type="line"/>
      <point x="571" y="1387" type="line" smooth="yes"/>
      <point x="982" y="1387"/>
      <point x="1238" y="1208"/>
    </contour>
    <contour>
      <point x="1378" y="743" type="curve" smooth="yes"/>
      <point x="1378" y="1270"/>
      <point x="1059" y="1489"/>
      <point x="584" y="1489" type="curve" smooth="yes"/>
      <point x="181" y="1489" type="line"/>
      <point x="181" y="0" type="line"/>
      <point x="616" y="0" type="line" smooth="yes"/>
      <point x="1089" y="0"/>
      <point x="1378" y="247"/>
    </contour>
  </outline>
</glyph>
<glyph name="E" format="1">
  <advance width="1141"/>
  <unicode hex="0045"/>
  <outline>
    <contour>
      <point x="571" y="1492" type="move" name="top"/>
    </contour>
    <contour>
      <point x="1027" y="10" type="move" name="ogonek"/>
    </contour>
    <contour>
      <point x="571" y="0" type="move" name="bottom"/>
    </contour>
    <contour>
      <point x="181" y="0" type="line"/>
      <point x="1016" y="0" type="line"/>
      <point x="1027" y="107" type="line"/>
      <point x="307" y="107" type="line"/>
      <point x="307" y="716" type="line"/>
      <point x="970" y="716" type="line"/>
      <point x="970" y="820" type="line"/>
      <point x="307" y="820" type="line"/>
      <point x="307" y="1382" type="line"/>
      <point x="1005" y="1382" type="line"/>
      <point x="1010" y="1489" type="line"/>
      <point x="181" y="1489" type="line"/>
    </contour>
  </outline>
</glyph>
<glyph name="F" format="1">
  <advance width="1023"/>
  <unicode hex="0046"/>
  <outline>
    <contour>
      <point x="308" y="0" type="line"/>
      <point x="308" y="689" type="line"/>
      <point x="944" y="689" type="line"/>
      <point x="944" y="787" type="line"/>
      <point x="308" y="787" type="line"/>
      <point x="308" y="1382" type="line"/>
      <point x="974" y="1382" type="line"/>
      <point x="980" y="1489" type="line"/>
      <point x="181" y="1489" type="line"/>
      <point x="181" y="0" type="line"/>
    </contour>
  </outline>
</glyph>
<glyph name="G" format="1">
  <advance width="1458"/>
  <unicode hex="0047"/>
  <outline>
    <contour>
      <point x="730" y="1492" type="move" name="top"/>
    </contour>
    <contour>
      <point x="730" y="0" type="move" name="bottom"/>
    </contour>
    <contour>
      <point x="822" y="-23" type="curve" smooth="yes"/>
      <point x="1026" y="-23"/>
      <point x="1163" y="2"/>
      <point x="1330" y="89" type="curve"/>
      <point x="1330" y="742" type="line"/>
      <point x="852" y="742" type="line"/>
      <point x="843" y="637" type="line"/>
      <point x="1213" y="637" type="line"/>
      <point x="1213" y="155" type="line"/>
      <point x="1125" y="119"/>
      <point x="987" y="78"/>
      <point x="865" y="78" type="curve" smooth="yes"/>
      <point x="452" y="78"/>
      <point x="257" y="347"/>
      <point x="257" y="743" type="curve" smooth="yes"/>
      <point x="257" y="1110"/>
      <point x="447" y="1415"/>
      <point x="849" y="1415" type="curve" smooth="yes"/>
      <point x="982" y="1415"/>
      <point x="1129" y="1365"/>
      <point x="1236" y="1301" type="curve"/>
      <point x="1291" y="1401" type="line"/>
      <point x="1169" y="1473"/>
      <point x="1022" y="1517"/>
      <point x="848" y="1517" type="curve" smooth="yes"/>
      <point x="382" y="1517"/>
      <point x="119" y="1187"/>
      <point x="119" y="741" type="curve" smooth="yes"/>
      <point x="119" y="317"/>
      <point x="359" y="-23"/>
    </contour>
  </outline>
</glyph>
<glyph name="H" format="1">
  <advance width="1473"/>
  <unicode hex="0048"/>
  <outline>
    <contour>
      <point x="736" y="1492" type="move" name="top"/>
    </contour>
    <contour>
      <point x="736" y="746" type="move" name="center"/>
    </contour>
    <contour>
      <point x="1290" y="0" type="line"/>
      <point x="1290" y="1489" type="line"/>
      <point x="1164" y="1489" type="line"/>
      <point x="1164" y="828" type="line"/>
      <point x="307" y="828" type="line"/>
      <point x="307" y="1489" type="line"/>
      <point x="181" y="1489" type="line"/>
      <point x="181" y="0" type="line"/>
      <point x="307" y="0" type="line"/>
      <point x="307" y="721" type="line"/>
      <point x="1164" y="721" type="line"/>
      <point x="1164" y="0" type="line"/>
    </contour>
  </outline>
</glyph>
<glyph name="I" format="1">
  <advance width="510"/>
  <unicode hex="0049"/>
  <outline>
    <contour>
      <point x="255" y="1492" type="move" name="top"/>
    </contour>
    <contour>
      <point x="459" y="10" type="move" name="ogonek"/>
    </contour>
    <contour>
      <point x="190" y="0" type="line"/>
      <point x="190" y="1489" type="line"/>
      <point x="316" y="1489" type="line"/>
      <point x="316" y="0" type="line"/>
    </contour>
  </outline>
</glyph>
<glyph name="J" format="1">
  <advance width="510"/>
  <unicode hex="004A"/>
  <outline>
    <contour>
      <point x="255" y="1492" type="move" name="top"/>
    </contour>
    <contour>
      <point x="234" y="219" type="curve" smooth="yes"/>
      <point x="234" y="1516" type="line"/>
      <point x="365" y="1516" type="line"/>
      <point x="365" y="310" type="line" smooth="yes"/>
      <point x="365" y="15"/>
      <point x="366" y="-130"/>
      <point x="13" y="-130" type="curve" smooth="yes"/>
      <point x="29" y="-130"/>
      <point x="-5" y="-132"/>
      <point x="7" y="-136" type="curve"/>
      <point x="-19" y="-46" type="line"/>
      <point x="-33" y="-42"/>
      <point x="53" y="-40"/>
      <point x="40" y="-40" type="curve" smooth="yes"/>
      <point x="235" y="-40"/>
      <point x="234" y="83"/>
    </contour>
  </outline>
</glyph>
<glyph name="K" format="1">
  <advance width="1204"/>
  <unicode hex="004B"/>
  <outline>
    <contour>
      <point x="602" y="1492" type="move" name="top"/>
    </contour>
    <contour>
      <point x="602" y="0" type="move" name="bottom"/>
    </contour>
    <contour>
      <point x="1222" y="0" type="line"/>
      <point x="1061" y="0" type="line"/>
      <point x="453" y="742" type="line"/>
      <point x="307" y="605" type="line"/>
      <point x="307" y="0" type="line"/>
      <point x="180" y="0" type="line"/>
      <point x="180" y="1489" type="line"/>
      <point x="307" y="1489" type="line"/>
      <point x="307" y="715" type="line"/>
      <point x="247" y="595"/>
      <point x="1066" y="1606"/>
      <point x="1004" y="1489" type="curve"/>
      <point x="1171" y="1489" type="line"/>
      <point x="549" y="818" type="line"/>
    </contour>
  </outline>
</glyph>
<glyph name="L" format="1">
  <advance width="996"/>
  <unicode hex="004C"/>
  <outline>
    <contour>
      <point x="499" y="1492" type="move" name="top"/>
    </contour>
    <contour>
      <point x="499" y="0" type="move" name="bottom"/>
    </contour>
    <contour>
      <point x="181" y="0" type="line"/>
      <point x="181" y="1489" type="line"/>
      <point x="308" y="1489" type="line"/>
      <point x="308" y="108" type="line"/>
      <point x="978" y="108" type="line"/>
      <point x="972" y="0" type="line"/>
    </contour>
  </outline>
</glyph>
<glyph name="M" format="1">
  <advance width="1805"/>
  <unicode hex="004D"/>
  <outline>
    <contour>
      <point x="833" y="84" type="line"/>
      <point x="337" y="1230" type="line"/>
      <point x="299" y="1352" type="line"/>
      <point x="305" y="1007" type="line"/>
      <point x="305" y="0" type="line"/>
      <point x="183" y="0" type="line"/>
      <point x="183" y="1489" type="line"/>
      <point x="360" y="1489" type="line"/>
      <point x="910" y="224" type="line"/>
      <point x="1451" y="1489" type="line"/>
      <point x="1621" y="1489" type="line"/>
      <point x="1621" y="0" type="line"/>
      <point x="1493" y="0" type="line"/>
      <point x="1493" y="1012" type="line"/>
      <point x="1500" y="1348" type="line"/>
      <point x="1463" y="1227" type="line"/>
      <point x="972" y="84" type="line"/>
    </contour>
  </outline>
</glyph>
<glyph name="N" format="1">
  <advance width="1498"/>
  <unicode hex="004E"/>
  <outline>
    <contour>
      <point x="749" y="1492" type="move" name="top"/>
    </contour>
    <contour>
      <point x="749" y="0" type="move" name="bottom"/>
    </contour>
    <contour>
      <point x="1315" y="0" type="line"/>
      <point x="1165" y="0" type="line"/>
      <point x="346" y="1262" type="line"/>
      <point x="295" y="1335" type="line"/>
      <point x="302" y="1132"/>
      <point x="302" y="1130"/>
      <point x="302" y="946" type="curve"/>
      <point x="302" y="0" type="line"/>
      <point x="181" y="0" type="line"/>
      <point x="181" y="1489" type="line"/>
      <point x="328" y="1489" type="line"/>
      <point x="1150" y="224" type="line"/>
      <point x="1202" y="151" type="line"/>
      <point x="1202" y="151"/>
      <point x="1195" y="458"/>
      <point x="1195" y="535" type="curve"/>
      <point x="1195" y="1489" type="line"/>
      <point x="1315" y="1489" type="line"/>
    </contour>
  </outline>
</glyph>
<glyph name="O" format="1">
  <advance width="1626"/>
  <unicode hex="004F"/>
  <outline>
    <contour>
      <point x="813" y="1492" type="move" name="top"/>
    </contour>
    <contour>
      <point x="255" y="746" type="curve" smooth="yes"/>
      <point x="255" y="346"/>
      <point x="436" y="77"/>
      <point x="814" y="77" type="curve" smooth="yes"/>
      <point x="1192" y="77"/>
      <point x="1368" y="346"/>
      <point x="1368" y="746" type="curve" smooth="yes"/>
      <point x="1368" y="1165"/>
      <point x="1183" y="1416"/>
      <point x="815" y="1416" type="curve" smooth="yes"/>
      <point x="447" y="1416"/>
      <point x="255" y="1167"/>
    </contour>
    <contour>
      <point x="1508" y="744" type="curve" smooth="yes"/>
      <point x="1508" y="307"/>
      <point x="1269" y="-23"/>
      <point x="814" y="-23" type="curve" smooth="yes"/>
      <point x="350" y="-23"/>
      <point x="118" y="298"/>
      <point x="118" y="745" type="curve" smooth="yes"/>
      <point x="118" y="1207"/>
      <point x="362" y="1519"/>
      <point x="815" y="1519" type="curve" smooth="yes"/>
      <point x="1258" y="1519"/>
      <point x="1508" y="1204"/>
    </contour>
  </outline>
</glyph>
<glyph name="P" format="1">
  <advance width="1137"/>
  <unicode hex="0050"/>
  <outline>
    <contour>
      <point x="287" y="0" type="line"/>
      <point x="154" y="0" type="line"/>
      <point x="154" y="1516" type="line"/>
      <point x="632" y="1516" type="line" smooth="yes"/>
      <point x="891" y="1516"/>
      <point x="1106" y="1414"/>
      <point x="1106" y="1140" type="curve" smooth="yes"/>
      <point x="1106" y="852"/>
      <point x="988" y="676"/>
      <point x="542" y="676" type="curve" smooth="yes"/>
      <point x="480" y="676"/>
      <point x="363" y="685"/>
      <point x="287" y="692" type="curve"/>
    </contour>
    <contour>
      <point x="581" y="797" type="curve" smooth="yes"/>
      <point x="945" y="797"/>
      <point x="965" y="977"/>
      <point x="965" y="1141" type="curve" smooth="yes"/>
      <point x="965" y="1329"/>
      <point x="822" y="1388"/>
      <point x="637" y="1388" type="curve" smooth="yes"/>
      <point x="287" y="1388" type="line"/>
      <point x="287" y="799" type="line"/>
      <point x="278" y="801"/>
      <point x="510" y="797"/>
    </contour>
  </outline>
</glyph>
<glyph name="Q" format="1">
  <advance width="1626"/>
  <unicode hex="0051"/>
  <outline>
    <contour>
      <point x="1260" y="-470" type="curve"/>
      <point x="1365" y="-367" type="line"/>
      <point x="1247" y="-247"/>
      <point x="1078" y="84"/>
      <point x="1102" y="27" type="curve"/>
      <point x="1368" y="138"/>
      <point x="1500" y="408"/>
      <point x="1500" y="746" type="curve" smooth="yes"/>
      <point x="1500" y="1208"/>
      <point x="1263" y="1519"/>
      <point x="816" y="1519" type="curve" smooth="yes"/>
      <point x="358" y="1519"/>
      <point x="126" y="1213"/>
      <point x="126" y="747" type="curve" smooth="yes"/>
      <point x="126" y="296"/>
      <point x="346" y="-23"/>
      <point x="814" y="-23" type="curve" smooth="yes"/>
      <point x="864" y="-23"/>
      <point x="910" y="-19"/>
      <point x="955" y="-12" type="curve"/>
      <point x="1041" y="-202"/>
      <point x="1258" y="-465"/>
    </contour>
    <contour>
      <point x="814" y="87" type="curve" smooth="yes"/>
      <point x="444" y="87"/>
      <point x="267" y="343"/>
      <point x="267" y="748" type="curve" smooth="yes"/>
      <point x="267" y="1176"/>
      <point x="456" y="1408"/>
      <point x="815" y="1408" type="curve" smooth="yes"/>
      <point x="1174" y="1408"/>
      <point x="1355" y="1174"/>
      <point x="1355" y="748" type="curve" smooth="yes"/>
      <point x="1355" y="343"/>
      <point x="1184" y="87"/>
    </contour>
  </outline>
</glyph>
<glyph name="R" format="1">
  <advance width="1345"/>
  <unicode hex="0052"/>
  <outline>
    <contour>
      <point x="673" y="1492" type="move" name="top"/>
    </contour>
    <contour>
      <point x="673" y="0" type="move" name="bottom"/>
    </contour>
    <contour>
      <point x="1248" y="0" type="line"/>
      <point x="1090" y="0" type="line"/>
      <point x="871" y="523" type="line"/>
      <point x="831" y="617"/>
      <point x="815" y="656"/>
      <point x="773" y="735" type="curve"/>
      <point x="738" y="730"/>
      <point x="602" y="725"/>
      <point x="571" y="725" type="curve" smooth="yes"/>
      <point x="545" y="725"/>
      <point x="288" y="738"/>
      <point x="288" y="738" type="curve"/>
      <point x="288" y="0" type="line"/>
      <point x="155" y="0" type="line"/>
      <point x="155" y="1516" type="line"/>
      <point x="594" y="1516" type="line" smooth="yes"/>
      <point x="955" y="1516"/>
      <point x="1184" y="1474"/>
      <point x="1184" y="1136" type="curve" smooth="yes"/>
      <point x="1184" y="960"/>
      <point x="1082" y="806"/>
      <point x="894" y="758" type="curve"/>
      <point x="871" y="788"/>
      <point x="963" y="638"/>
      <point x="993" y="573" type="curve"/>
    </contour>
    <contour>
      <point x="288" y="1395" type="line"/>
      <point x="288" y="853" type="line"/>
      <point x="455" y="850"/>
      <point x="523" y="846"/>
      <point x="690" y="846" type="curve" smooth="yes"/>
      <point x="980" y="846"/>
      <point x="1054" y="948"/>
      <point x="1054" y="1134" type="curve" smooth="yes"/>
      <point x="1054" y="1299"/>
      <point x="979" y="1395"/>
      <point x="725" y="1395" type="curve" smooth="yes"/>
    </contour>
  </outline>
</glyph>
<glyph name="S" format="1">
  <advance width="1248"/>
  <unicode hex="0053"/>
  <outline>
    <contour>
      <point x="625" y="1492" type="move" name="top"/>
    </contour>
    <contour>
      <point x="625" y="0" type="move" name="bottom"/>
    </contour>
    <contour>
      <point x="156" y="192" type="line"/>
      <point x="283" y="132"/>
      <point x="461" y="80"/>
      <point x="669" y="80" type="curve" smooth="yes"/>
      <point x="903" y="80"/>
      <point x="1024" y="198"/>
      <point x="1024" y="449" type="curve" smooth="yes"/>
      <point x="1024" y="594"/>
      <point x="972" y="693"/>
      <point x="737" y="748" type="curve" smooth="yes"/>
      <point x="774" y="716"/>
      <point x="458" y="794"/>
      <point x="500" y="746" type="curve" smooth="yes"/>
      <point x="253" y="787"/>
      <point x="97" y="903"/>
      <point x="97" y="1132" type="curve" smooth="yes"/>
      <point x="97" y="1436"/>
      <point x="316" y="1550"/>
      <point x="654" y="1550" type="curve" smooth="yes"/>
      <point x="839" y="1550"/>
      <point x="1007" y="1502"/>
      <point x="1097" y="1444" type="curve"/>
      <point x="1061" y="1346" type="line"/>
      <point x="1000" y="1380"/>
      <point x="822" y="1446"/>
      <point x="651" y="1446" type="curve" smooth="yes"/>
      <point x="373" y="1446"/>
      <point x="233" y="1353"/>
      <point x="233" y="1140" type="curve" smooth="yes"/>
      <point x="233" y="1004"/>
      <point x="323" y="928"/>
      <point x="493" y="892" type="curve" smooth="yes"/>
      <point x="476" y="903"/>
      <point x="834" y="813"/>
      <point x="804" y="833" type="curve" smooth="yes"/>
      <point x="1020" y="805"/>
      <point x="1159" y="693"/>
      <point x="1159" y="444" type="curve" smooth="yes"/>
      <point x="1159" y="116"/>
      <point x="957" y="-25"/>
      <point x="659" y="-25" type="curve" smooth="yes"/>
      <point x="374" y="-25"/>
      <point x="177" y="60"/>
      <point x="99" y="108" type="curve"/>
    </contour>
  </outline>
</glyph>
<glyph name="T" format="1">
  <advance width="1080"/>
  <unicode hex="0054"/>
  <outline>
    <contour>
      <point x="541" y="1492" type="move" name="top"/>
    </contour>
    <contour>
      <point x="541" y="746" type="move" name="center"/>
    </contour>
    <contour>
      <point x="541" y="0" type="move" name="bottom"/>
    </contour>
    <contour>
      <point x="603" y="0" type="line"/>
      <point x="476" y="0" type="line"/>
      <point x="476" y="1383" type="line"/>
      <point x="7" y="1383" type="line"/>
      <point x="7" y="1489" type="line"/>
      <point x="1072" y="1489" type="line"/>
      <point x="1072" y="1383" type="line"/>
      <point x="603" y="1383" type="line"/>
    </contour>
  </outline>
</glyph>
<glyph name="U" format="1">
  <advance width="1424"/>
  <unicode hex="0055"/>
  <outline>
    <contour>
      <point x="712" y="1492" type="move" name="top"/>
    </contour>
    <contour>
      <point x="1281" y="10" type="move" name="ogonek"/>
    </contour>
    <contour>
      <point x="1254" y="1489" type="line"/>
      <point x="1254" y="515" type="line" smooth="yes"/>
      <point x="1254" y="197"/>
      <point x="1098" y="-23"/>
      <point x="704" y="-23" type="curve" smooth="yes"/>
      <point x="310" y="-23"/>
      <point x="161" y="197"/>
      <point x="161" y="517" type="curve" smooth="yes"/>
      <point x="161" y="1489" type="line"/>
      <point x="288" y="1489" type="line"/>
      <point x="288" y="495" type="line" smooth="yes"/>
      <point x="288" y="207"/>
      <point x="429" y="74"/>
      <point x="711" y="74" type="curve" smooth="yes"/>
      <point x="985" y="74"/>
      <point x="1129" y="209"/>
      <point x="1129" y="496" type="curve" smooth="yes"/>
      <point x="1129" y="1489" type="line"/>
    </contour>
  </outline>
</glyph>
<glyph name="V" format="1">
  <advance width="1204"/>
  <unicode hex="0056"/>
  <outline>
    <contour>
      <point x="1067" y="1489" type="curve"/>
      <point x="1209" y="1489" type="line"/>
      <point x="666" y="0" type="line"/>
      <point x="531" y="0" type="line"/>
      <point x="-5" y="1489" type="line"/>
      <point x="135" y="1489" type="line"/>
      <point x="473" y="527" type="line"/>
      <point x="529" y="346"/>
      <point x="553" y="308"/>
      <point x="598" y="131" type="curve"/>
      <point x="613" y="215"/>
      <point x="648" y="284"/>
      <point x="726" y="534" type="curve"/>
      <point x="868" y="998"/>
      <point x="930" y="1049"/>
    </contour>
  </outline>
</glyph>
<glyph name="W" format="1">
  <advance width="1995"/>
  <unicode hex="0057"/>
  <outline>
    <contour>
      <point x="998" y="1492" type="move" name="top"/>
    </contour>
    <contour>
      <point x="1531" y="0" type="line"/>
      <point x="1390" y="0" type="line"/>
      <point x="1006" y="1329" type="line"/>
      <point x="605" y="0" type="line"/>
      <point x="464" y="0" type="line"/>
      <point x="3" y="1489" type="line"/>
      <point x="141" y="1489" type="line"/>
      <point x="539" y="136" type="line"/>
      <point x="919" y="1448" type="line"/>
      <point x="1086" y="1448" type="line"/>
      <point x="1458" y="137" type="line"/>
      <point x="1854" y="1489" type="line"/>
      <point x="1992" y="1489" type="line"/>
    </contour>
  </outline>
</glyph>
<glyph name="X" format="1">
  <advance width="1193"/>
  <unicode hex="0058"/>
  <outline>
    <contour>
      <point x="1175" y="0" type="line"/>
      <point x="1032" y="0" type="line"/>
      <point x="599" y="727" type="line"/>
      <point x="154" y="0" type="line"/>
      <point x="18" y="0" type="line"/>
      <point x="521" y="788" type="line"/>
      <point x="49" y="1489" type="line"/>
      <point x="200" y="1489" type="line"/>
      <point x="601" y="863" type="line"/>
      <point x="1020" y="1489" type="line"/>
      <point x="1155" y="1489" type="line"/>
      <point x="684" y="796" type="line"/>
    </contour>
  </outline>
</glyph>
<glyph name="Y" format="1">
  <advance width="1164"/>
  <unicode hex="0059"/>
  <outline>
    <contour>
      <point x="582" y="1492" type="move" name="top"/>
    </contour>
    <contour>
      <point x="574" y="697" type="line"/>
      <point x="1021" y="1489" type="line"/>
      <point x="1159" y="1489" type="line"/>
      <point x="630" y="593" type="line"/>
      <point x="630" y="0" type="line"/>
      <point x="501" y="0" type="line"/>
      <point x="501" y="590" type="line"/>
      <point x="5" y="1489" type="line"/>
      <point x="142" y="1489" type="line"/>
    </contour>
  </outline>
</glyph>
<glyph name="Z" format="1">
  <advance width="1172"/>
  <unicode hex="005A"/>
  <outline>
    <contour>
      <point x="586" y="1492" type="move" name="top"/>
    </contour>
    <contour>
      <point x="98" y="0" type="line"/>
      <point x="1090" y="0" type="line"/>
      <point x="1098" y="108" type="line"/>
      <point x="257" y="108" type="line"/>
      <point x="1090" y="1388" type="line"/>
      <point x="1090" y="1489" type="line"/>
      <point x="128" y="1489" type="line"/>
      <point x="128" y="1381" type="line"/>
      <point x="925" y="1381" type="line"/>
      <point x="98" y="108" type="line"/>
    </contour>
  </outline>
</glyph>
<glyph name="bracketleft" format="1">
  <advance width="688"/>
  <unicode hex="005B"/>
  <outline>
    <contour>
      <point x="595" y="-313" type="line"/>
      <point x="147" y="-313" type="line"/>
      <point x="147" y="1465" type="line"/>
      <point x="595" y="1465" type="line"/>
      <point x="595" y="1369" type="line"/>
      <point x="282" y="1369" type="line"/>
      <point x="282" y="-216" type="line"/>
      <point x="595" y="-216" type="line"/>
    </contour>
  </outline>
</glyph>
<glyph name="backslash" format="1">
  <advance width="814"/>
  <unicode hex="005C"/>
  <outline>
    <contour>
      <point x="183" y="1466" type="line"/>
      <point x="773" y="-60" type="line"/>
      <point x="652" y="-60" type="line"/>
      <point x="62" y="1466" type="line"/>
    </contour>
  </outline>
</glyph>
<glyph name="bracketright" format="1">
  <advance width="688"/>
  <unicode hex="005D"/>
  <outline>
    <contour>
      <point x="94" y="-216" type="line"/>
      <point x="407" y="-216" type="line"/>
      <point x="407" y="1369" type="line"/>
      <point x="94" y="1369" type="line"/>
      <point x="94" y="1465" type="line"/>
      <point x="541" y="1465" type="line"/>
      <point x="541" y="-313" type="line"/>
      <point x="94" y="-313" type="line"/>
    </contour>
  </outline>
</glyph>
<glyph name="asciicircum" format="1">
  <advance width="1158"/>
  <unicode hex="005E"/>
  <outline>
    <contour>
      <point x="85" y="619" type="line"/>
      <point x="522" y="1549" type="line"/>
      <point x="611" y="1549" type="line"/>
      <point x="1070" y="619" type="line"/>
      <point x="959" y="619" type="line"/>
      <point x="565" y="1422" type="line"/>
      <point x="199" y="619" type="line"/>
    </contour>
  </outline>
</glyph>
<glyph name="underscore" format="1">
  <advance width="1051"/>
  <unicode hex="005F"/>
  <outline>
    <contour>
      <point x="977" y="-294" type="line"/>
      <point x="73" y="-294" type="line"/>
      <point x="73" y="-189" type="line"/>
      <point x="977" y="-189" type="line"/>
    </contour>
  </outline>
</glyph>
<glyph name="grave" format="1">
  <advance width="705"/>
  <unicode hex="0060"/>
  <outline>
    <contour>
      <point x="333" y="1097" type="move" name="_top"/>
    </contour>
    <contour>
      <point x="449" y="1292" type="line"/>
      <point x="130" y="1682" type="line"/>
      <point x="353" y="1682" type="line"/>
      <point x="537" y="1292" type="line"/>
    </contour>
  </outline>
</glyph>
<glyph name="a" format="1">
  <advance width="1076"/>
  <unicode hex="0061"/>
  <outline>
    <contour>
      <point x="538" y="1097" type="move" name="top"/>
    </contour>
    <contour>
      <point x="969" y="10" type="move" name="ogonek"/>
    </contour>
    <contour>
      <point x="443" y="74" type="curve" smooth="yes"/>
      <point x="610" y="74"/>
      <point x="768" y="177"/>
      <point x="803" y="383" type="curve"/>
      <point x="803" y="548" type="line"/>
      <point x="766" y="545"/>
      <point x="697" y="537"/>
      <point x="657" y="536" type="curve"/>
      <point x="327" y="505"/>
      <point x="230" y="438"/>
      <point x="230" y="275" type="curve" smooth="yes"/>
      <point x="230" y="134"/>
      <point x="317" y="74"/>
    </contour>
    <contour>
      <point x="825" y="0" type="line"/>
      <point x="817" y="40"/>
      <point x="810" y="101"/>
      <point x="803" y="141" type="curve"/>
      <point x="668" y="0"/>
      <point x="575" y="-25"/>
      <point x="440" y="-25" type="curve" smooth="yes"/>
      <point x="239" y="-25"/>
      <point x="99" y="79"/>
      <point x="99" y="276" type="curve" smooth="yes"/>
      <point x="99" y="510"/>
      <point x="311" y="597"/>
      <point x="616" y="620" type="curve"/>
      <point x="680" y="624"/>
      <point x="744" y="628"/>
      <point x="806" y="632" type="curve"/>
      <point x="806" y="758" type="line" smooth="yes"/>
      <point x="806" y="923"/>
      <point x="737" y="1013"/>
      <point x="563" y="1013" type="curve" smooth="yes"/>
      <point x="455" y="1013"/>
      <point x="340" y="987"/>
      <point x="238" y="930" type="curve"/>
      <point x="226" y="962"/>
      <point x="210" y="988"/>
      <point x="199" y="1021" type="curve"/>
      <point x="280" y="1074"/>
      <point x="427" y="1116"/>
      <point x="557" y="1116" type="curve" smooth="yes"/>
      <point x="812" y="1116"/>
      <point x="925" y="1026"/>
      <point x="925" y="733" type="curve" smooth="yes"/>
      <point x="925" y="0" type="line"/>
    </contour>
  </outline>
</glyph>
<glyph name="b" format="1">
  <advance width="1193"/>
  <unicode hex="0062"/>
  <outline>
    <contour>
      <point x="631" y="1019" type="curve" smooth="yes"/>
      <point x="398" y="1019"/>
      <point x="274" y="841"/>
      <point x="275" y="535" type="curve"/>
      <point x="275" y="264"/>
      <point x="372" y="70"/>
      <point x="631" y="70" type="curve" smooth="yes"/>
      <point x="890" y="70"/>
      <point x="967" y="311"/>
      <point x="967" y="542" type="curve" smooth="yes"/>
      <point x="967" y="776"/>
      <point x="890" y="1019"/>
    </contour>
    <contour>
      <point x="624" y="1116" type="curve" smooth="yes"/>
      <point x="930" y="1116"/>
      <point x="1096" y="871"/>
      <point x="1096" y="549" type="curve" smooth="yes"/>
      <point x="1096" y="218"/>
      <point x="938" y="-25"/>
      <point x="625" y="-25" type="curve" smooth="yes"/>
      <point x="480" y="-25"/>
      <point x="360" y="32"/>
      <point x="269" y="160" type="curve"/>
      <point x="256" y="-1" type="line"/>
      <point x="154" y="-1" type="line"/>
      <point x="154" y="1521" type="line"/>
      <point x="275" y="1531" type="line"/>
      <point x="275" y="1162" type="line" smooth="yes"/>
      <point x="275" y="1070"/>
      <point x="275" y="992"/>
      <point x="272" y="928" type="curve"/>
      <point x="359" y="1063"/>
      <point x="499" y="1116"/>
    </contour>
  </outline>
</glyph>
<glyph name="c" format="1">
  <advance width="951"/>
  <unicode hex="0063"/>
  <outline>
    <contour>
      <point x="476" y="1097" type="move" name="top"/>
    </contour>
    <contour>
      <point x="476" y="0" type="move" name="bottom"/>
    </contour>
    <contour>
      <point x="604" y="-25" type="curve" smooth="yes"/>
      <point x="275" y="-25"/>
      <point x="97" y="238"/>
      <point x="97" y="536" type="curve" smooth="yes"/>
      <point x="99" y="845"/>
      <point x="274" y="1116"/>
      <point x="608" y="1116" type="curve" smooth="yes"/>
      <point x="715" y="1116"/>
      <point x="833" y="1082"/>
      <point x="881" y="1045" type="curve"/>
      <point x="843" y="956" type="line"/>
      <point x="762" y="1002"/>
      <point x="665" y="1014"/>
      <point x="598" y="1014" type="curve" smooth="yes"/>
      <point x="368" y="1014"/>
      <point x="227" y="820"/>
      <point x="227" y="536" type="curve" smooth="yes"/>
      <point x="227" y="268"/>
      <point x="365" y="75"/>
      <point x="599" y="75" type="curve" smooth="yes"/>
      <point x="688" y="75"/>
      <point x="778" y="101"/>
      <point x="856" y="134" type="curve"/>
      <point x="875" y="49" type="line"/>
      <point x="811" y="1"/>
      <point x="700" y="-25"/>
    </contour>
  </outline>
</glyph>
<glyph name="d" format="1">
  <advance width="1188"/>
  <unicode hex="0064"/>
  <outline>
    <contour>
      <point x="594" y="549" type="move" name="center"/>
    </contour>
    <contour>
      <point x="555" y="79" type="curve" smooth="yes"/>
      <point x="810" y="79"/>
      <point x="910" y="269"/>
      <point x="909" y="525" type="curve"/>
      <point x="909" y="819"/>
      <point x="820" y="1014"/>
      <point x="553" y="1014" type="curve" smooth="yes"/>
      <point x="315" y="1014"/>
      <point x="228" y="773"/>
      <point x="228" y="546" type="curve" smooth="yes"/>
      <point x="228" y="299"/>
      <point x="315" y="79"/>
    </contour>
    <contour>
      <point x="916" y="166" type="line"/>
      <point x="834" y="32"/>
      <point x="685" y="-23"/>
      <point x="561" y="-23" type="curve" smooth="yes"/>
      <point x="270" y="-23"/>
      <point x="97" y="191"/>
      <point x="97" y="549" type="curve" smooth="yes"/>
      <point x="97" y="883"/>
      <point x="279" y="1116"/>
      <point x="557" y="1116" type="curve" smooth="yes"/>
      <point x="671" y="1116"/>
      <point x="839" y="1072"/>
      <point x="916" y="934" type="curve"/>
      <point x="919" y="891"/>
      <point x="917" y="998"/>
      <point x="917" y="960" type="curve" smooth="yes"/>
      <point x="917" y="1521" type="line"/>
      <point x="1035" y="1531" type="line"/>
      <point x="1035" y="0" type="line"/>
      <point x="934" y="0" type="line"/>
    </contour>
  </outline>
</glyph>
<glyph name="e" format="1">
  <advance width="1087"/>
  <unicode hex="0065"/>
  <outline>
    <contour>
      <point x="543" y="1097" type="move" name="top"/>
    </contour>
    <contour>
      <point x="978" y="10" type="move" name="ogonek"/>
    </contour>
    <contour>
      <point x="543" y="0" type="move" name="bottom"/>
    </contour>
    <contour>
      <point x="562" y="1014" type="curve" smooth="yes"/>
      <point x="369" y="1014"/>
      <point x="253" y="852"/>
      <point x="232" y="632" type="curve"/>
      <point x="858" y="632" type="line"/>
      <point x="858" y="883"/>
      <point x="742" y="1014"/>
    </contour>
    <contour>
      <point x="591" y="-25" type="curve" smooth="yes"/>
      <point x="290" y="-25"/>
      <point x="99" y="191"/>
      <point x="99" y="540" type="curve" smooth="yes"/>
      <point x="99" y="874"/>
      <point x="290" y="1109"/>
      <point x="565" y="1116" type="curve" smooth="yes"/>
      <point x="821" y="1116"/>
      <point x="991" y="920"/>
      <point x="991" y="609" type="curve" smooth="yes"/>
      <point x="991" y="591"/>
      <point x="990" y="555"/>
      <point x="990" y="534" type="curve"/>
      <point x="227" y="534" type="line"/>
      <point x="230" y="248"/>
      <point x="376" y="85"/>
      <point x="595" y="85" type="curve" smooth="yes"/>
      <point x="732" y="85"/>
      <point x="848" y="127"/>
      <point x="945" y="176" type="curve"/>
      <point x="966" y="77" type="line"/>
      <point x="860" y="13"/>
      <point x="749" y="-25"/>
    </contour>
  </outline>
</glyph>
<glyph name="f" format="1">
  <advance width="636"/>
  <unicode hex="0066"/>
  <outline>
    <contour>
      <point x="552" y="1468" type="curve"/>
      <point x="382" y="1474"/>
      <point x="338" y="1384"/>
      <point x="338" y="1129" type="curve" smooth="yes"/>
      <point x="338" y="1095" type="line"/>
      <point x="605" y="1095" type="line"/>
      <point x="605" y="1008" type="line"/>
      <point x="338" y="1008" type="line"/>
      <point x="338" y="0" type="line"/>
      <point x="216" y="0" type="line"/>
      <point x="216" y="1008" type="line"/>
      <point x="37" y="1008" type="line"/>
      <point x="37" y="1103" type="line"/>
      <point x="216" y="1091" type="line"/>
      <point x="216" y="1136" type="line" smooth="yes"/>
      <point x="219" y="1441"/>
      <point x="326" y="1559"/>
      <point x="546" y="1548" type="curve"/>
      <point x="582" y="1546"/>
      <point x="625" y="1541"/>
      <point x="674" y="1535" type="curve"/>
      <point x="669" y="1451" type="line"/>
      <point x="629" y="1457"/>
      <point x="589" y="1462"/>
    </contour>
  </outline>
</glyph>
<glyph name="g" format="1">
  <advance width="1148"/>
  <unicode hex="0067"/>
  <outline>
    <contour>
      <point x="575" y="1097" type="move" name="top"/>
    </contour>
    <contour>
      <point x="293" y="-510" type="line"/>
      <point x="494" y="-510" type="line" smooth="yes"/>
      <point x="1005" y="-510"/>
      <point x="1009" y="-145"/>
      <point x="1009" y="80" type="curve" smooth="yes"/>
      <point x="1009" y="1095" type="line"/>
      <point x="880" y="1095" type="line"/>
      <point x="889" y="941" type="line"/>
      <point x="796" y="1065"/>
      <point x="692" y="1116"/>
      <point x="554" y="1116" type="curve" smooth="yes"/>
      <point x="184" y="1116"/>
      <point x="67" y="807"/>
      <point x="67" y="533" type="curve" smooth="yes"/>
      <point x="67" y="341"/>
      <point x="188" y="2"/>
      <point x="530" y="2" type="curve" smooth="yes"/>
      <point x="703" y="2"/>
      <point x="808" y="81"/>
      <point x="886" y="200" type="curve"/>
      <point x="884" y="229"/>
      <point x="883" y="108"/>
      <point x="883" y="138" type="curve" smooth="yes"/>
      <point x="883" y="-176"/>
      <point x="881" y="-403"/>
      <point x="515" y="-403" type="curve" smooth="yes"/>
      <point x="278" y="-403" type="line"/>
    </contour>
    <contour>
      <point x="547" y="114" type="curve" smooth="yes"/>
      <point x="296" y="114"/>
      <point x="196" y="373"/>
      <point x="196" y="548" type="curve" smooth="yes"/>
      <point x="196" y="720"/>
      <point x="284" y="1018"/>
      <point x="542" y="1018" type="curve"/>
      <point x="796" y="1019"/>
      <point x="889" y="812"/>
      <point x="889" y="615" type="curve" smooth="yes"/>
      <point x="889" y="617"/>
      <point x="889" y="495"/>
      <point x="889" y="497" type="curve" smooth="yes"/>
      <point x="890" y="308"/>
      <point x="798" y="114"/>
    </contour>
  </outline>
</glyph>
<glyph name="h" format="1">
  <advance width="1052"/>
  <unicode hex="0068"/>
  <outline>
    <contour>
      <point x="526" y="1097" type="move" name="top"/>
    </contour>
    <contour>
      <point x="526" y="549" type="move" name="center"/>
    </contour>
    <contour>
      <point x="889" y="0" type="line"/>
      <point x="889" y="660" type="line" smooth="yes"/>
      <point x="889" y="901"/>
      <point x="830" y="1015"/>
      <point x="630" y="1015" type="curve" smooth="yes"/>
      <point x="434" y="1015"/>
      <point x="301" y="897"/>
      <point x="273" y="739" type="curve"/>
      <point x="272" y="701"/>
      <point x="272" y="662"/>
      <point x="272" y="626" type="curve" smooth="yes"/>
      <point x="272" y="0" type="line"/>
      <point x="150" y="0" type="line"/>
      <point x="150" y="1521" type="line"/>
      <point x="272" y="1531" type="line"/>
      <point x="272" y="1001" type="line" smooth="yes"/>
      <point x="272" y="940"/>
      <point x="271" y="993"/>
      <point x="269" y="928" type="curve"/>
      <point x="361" y="1054"/>
      <point x="493" y="1116"/>
      <point x="653" y="1116" type="curve" smooth="yes"/>
      <point x="906" y="1116"/>
      <point x="1010" y="954"/>
      <point x="1010" y="684" type="curve" smooth="yes"/>
      <point x="1010" y="0" type="line"/>
    </contour>
  </outline>
</glyph>
<glyph name="i" format="1">
  <advance width="444"/>
  <unicode hex="0069"/>
  <outline>
    <contour>
      <point x="292" y="1095" type="line"/>
      <point x="292" y="0" type="line"/>
      <point x="169" y="0" type="line"/>
      <point x="169" y="1095" type="line"/>
    </contour>
    <contour>
      <point x="292" y="1506" type="line"/>
      <point x="292" y="1327" type="line"/>
      <point x="169" y="1327" type="line"/>
      <point x="169" y="1506" type="line"/>
    </contour>
  </outline>
</glyph>
<glyph name="j" format="1">
  <advance width="406"/>
  <unicode hex="006A"/>
  <outline>
    <contour>
      <point x="284" y="1095" type="line"/>
      <point x="284" y="-260" type="line" smooth="yes"/>
      <point x="284" y="-499"/>
      <point x="226" y="-557"/>
      <point x="-9" y="-557" type="curve" smooth="yes"/>
      <point x="-58" y="-557" type="line"/>
      <point x="-77" y="-438" type="line"/>
      <point x="-28" y="-438" type="line" smooth="yes"/>
      <point x="163" y="-438"/>
      <point x="161" y="-363"/>
      <point x="161" y="-198" type="curve" smooth="yes"/>
      <point x="161" y="1095" type="line"/>
    </contour>
    <contour>
      <point x="284" y="1506" type="line"/>
      <point x="284" y="1327" type="line"/>
      <point x="161" y="1327" type="line"/>
      <point x="161" y="1506" type="line"/>
    </contour>
  </outline>
</glyph>
<glyph name="k" format="1">
  <advance width="984"/>
  <unicode hex="006B"/>
  <outline>
    <contour>
      <point x="493" y="0" type="move" name="bottom"/>
    </contour>
    <contour>
      <point x="150" y="0" type="line"/>
      <point x="270" y="0" type="line"/>
      <point x="270" y="451" type="line"/>
      <point x="398" y="570" type="line"/>
      <point x="818" y="0" type="line"/>
      <point x="973" y="0" type="line"/>
      <point x="482" y="638" type="line"/>
      <point x="940" y="1095" type="line"/>
      <point x="776" y="1095" type="line"/>
      <point x="622" y="941"/>
      <point x="437" y="751"/>
      <point x="308" y="617" type="curve"/>
      <point x="290" y="595"/>
      <point x="289" y="596"/>
      <point x="272" y="576" type="curve"/>
      <point x="272" y="576"/>
      <point x="270" y="627"/>
      <point x="270" y="655" type="curve"/>
      <point x="270" y="1531" type="line"/>
      <point x="150" y="1521" type="line"/>
    </contour>
  </outline>
</glyph>
<glyph name="l" format="1">
  <advance width="526"/>
  <unicode hex="006C"/>
  <outline>
    <contour>
      <point x="264" y="1097" type="move" name="top"/>
    </contour>
    <contour>
      <point x="506" y="1097" type="move" name="topright"/>
    </contour>
    <contour>
      <point x="264" y="0" type="move" name="bottom"/>
    </contour>
    <contour>
      <point x="277" y="426" type="line"/>
      <point x="277" y="166"/>
      <point x="284" y="74"/>
      <point x="445" y="74" type="curve" smooth="yes"/>
      <point x="500" y="74"/>
      <point x="519" y="78"/>
      <point x="565" y="82" type="curve"/>
      <point x="575" y="-12" type="line"/>
      <point x="476" y="-30"/>
      <point x="411" y="-24"/>
      <point x="407" y="-24" type="curve" smooth="yes"/>
      <point x="239" y="-24"/>
      <point x="157" y="43"/>
      <point x="157" y="315" type="curve" smooth="yes"/>
      <point x="157" y="1521" type="line"/>
      <point x="277" y="1531" type="line"/>
    </contour>
  </outline>
</glyph>
<glyph name="m" format="1">
  <advance width="1714"/>
  <unicode hex="006D"/>
  <outline>
    <contour>
      <point x="1542" y="0" type="line"/>
      <point x="1542" y="532" type="line" smooth="yes"/>
      <point x="1542" y="796"/>
      <point x="1527" y="1013"/>
      <point x="1309" y="1013" type="curve" smooth="yes"/>
      <point x="1140" y="1013"/>
      <point x="1018" y="906"/>
      <point x="973" y="723" type="curve" smooth="yes"/>
      <point x="973" y="670"/>
      <point x="975" y="620"/>
      <point x="978" y="565" type="curve"/>
      <point x="978" y="0" type="line"/>
      <point x="857" y="0" type="line"/>
      <point x="857" y="554" type="line" smooth="yes"/>
      <point x="857" y="817"/>
      <point x="823" y="1014"/>
      <point x="622" y="1014" type="curve" smooth="yes"/>
      <point x="437" y="1014"/>
      <point x="309" y="906"/>
      <point x="274" y="739" type="curve"/>
      <point x="272" y="699"/>
      <point x="272" y="662"/>
      <point x="272" y="627" type="curve" smooth="yes"/>
      <point x="272" y="0" type="line"/>
      <point x="150" y="0" type="line"/>
      <point x="150" y="0"/>
      <point x="148" y="990"/>
      <point x="148" y="1095" type="curve"/>
      <point x="253" y="1095" type="line"/>
      <point x="270" y="926" type="line"/>
      <point x="333" y="1036"/>
      <point x="470" y="1116"/>
      <point x="615" y="1116" type="curve" smooth="yes"/>
      <point x="837" y="1116"/>
      <point x="915" y="1000"/>
      <point x="945" y="907" type="curve"/>
      <point x="1027" y="1053"/>
      <point x="1156" y="1116"/>
      <point x="1314" y="1116" type="curve" smooth="yes"/>
      <point x="1558" y="1116"/>
      <point x="1663" y="973"/>
      <point x="1663" y="709" type="curve" smooth="yes"/>
      <point x="1663" y="0" type="line"/>
    </contour>
  </outline>
</glyph>
<glyph name="n" format="1">
  <advance width="1150"/>
  <unicode hex="006E"/>
  <outline>
    <contour>
      <point x="575" y="1097" type="move" name="top"/>
    </contour>
    <contour>
      <point x="575" y="0" type="move" name="bottom"/>
    </contour>
    <contour>
      <point x="148" y="0" type="line"/>
      <point x="148" y="1095" type="line"/>
      <point x="253" y="1095" type="line"/>
      <point x="270" y="926" type="line"/>
      <point x="348" y="1036"/>
      <point x="490" y="1116"/>
      <point x="643" y="1116" type="curve" smooth="yes"/>
      <point x="893" y="1116"/>
      <point x="1010" y="988"/>
      <point x="1010" y="679" type="curve" smooth="yes"/>
      <point x="1010" y="0" type="line"/>
      <point x="889" y="0" type="line"/>
      <point x="889" y="0"/>
      <point x="889" y="667"/>
      <point x="888" y="739" type="curve" smooth="yes"/>
      <point x="881" y="933"/>
      <point x="813" y="1013"/>
      <point x="637" y="1013" type="curve" smooth="yes"/>
      <point x="430" y="1013"/>
      <point x="304" y="894"/>
      <point x="275" y="739" type="curve"/>
      <point x="272" y="706"/>
      <point x="272" y="675"/>
      <point x="272" y="648" type="curve" smooth="yes"/>
      <point x="272" y="0" type="line"/>
    </contour>
  </outline>
</glyph>
<glyph name="o" format="1">
  <advance width="1191"/>
  <unicode hex="006F"/>
  <outline>
    <contour>
      <point x="596" y="1097" type="move" name="top"/>
    </contour>
    <contour>
      <point x="228" y="542" type="curve" smooth="yes"/>
      <point x="228" y="282"/>
      <point x="348" y="71"/>
      <point x="600" y="71" type="curve" smooth="yes"/>
      <point x="850" y="71"/>
      <point x="962" y="281"/>
      <point x="962" y="545" type="curve" smooth="yes"/>
      <point x="962" y="812"/>
      <point x="856" y="1018"/>
      <point x="597" y="1018" type="curve" smooth="yes"/>
      <point x="348" y="1018"/>
      <point x="228" y="805"/>
    </contour>
    <contour>
      <point x="1092" y="546" type="curve" smooth="yes"/>
      <point x="1092" y="223"/>
      <point x="909" y="-25"/>
      <point x="592" y="-25" type="curve" smooth="yes"/>
      <point x="287" y="-25"/>
      <point x="97" y="222"/>
      <point x="97" y="545" type="curve" smooth="yes"/>
      <point x="97" y="869"/>
      <point x="285" y="1116"/>
      <point x="600" y="1116" type="curve" smooth="yes"/>
      <point x="916" y="1116"/>
      <point x="1092" y="868"/>
    </contour>
  </outline>
</glyph>
<glyph name="p" format="1">
  <advance width="1174"/>
  <unicode hex="0070"/>
  <outline>
    <contour>
      <point x="148" y="-490" type="line"/>
      <point x="269" y="-480" type="line"/>
      <point x="269" y="-83" type="line" smooth="yes"/>
      <point x="269" y="6"/>
      <point x="267" y="88"/>
      <point x="264" y="163" type="curve"/>
      <point x="337" y="52"/>
      <point x="474" y="-25"/>
      <point x="621" y="-25" type="curve" smooth="yes"/>
      <point x="906" y="-25"/>
      <point x="1077" y="212"/>
      <point x="1077" y="534" type="curve" smooth="yes"/>
      <point x="1077" y="881"/>
      <point x="932" y="1115"/>
      <point x="609" y="1115" type="curve" smooth="yes"/>
      <point x="460" y="1115"/>
      <point x="363" y="1049"/>
      <point x="267" y="939" type="curve"/>
      <point x="257" y="1095" type="line"/>
      <point x="148" y="1095" type="line"/>
    </contour>
    <contour>
      <point x="613" y="74" type="curve" smooth="yes"/>
      <point x="347" y="74"/>
      <point x="268" y="272"/>
      <point x="268" y="562" type="curve"/>
      <point x="268" y="818"/>
      <point x="356" y="1015"/>
      <point x="613" y="1015" type="curve" smooth="yes"/>
      <point x="853" y="1015"/>
      <point x="948" y="766"/>
      <point x="948" y="543" type="curve" smooth="yes"/>
      <point x="948" y="321"/>
      <point x="851" y="74"/>
    </contour>
  </outline>
</glyph>
<glyph name="q" format="1">
  <advance width="1188"/>
  <unicode hex="0071"/>
  <outline>
    <contour>
      <point x="560" y="-25" type="curve" smooth="yes"/>
      <point x="264" y="-25"/>
      <point x="103" y="213"/>
      <point x="103" y="531" type="curve" smooth="yes"/>
      <point x="103" y="874"/>
      <point x="262" y="1116"/>
      <point x="569" y="1116" type="curve" smooth="yes"/>
      <point x="708" y="1116"/>
      <point x="825" y="1050"/>
      <point x="920" y="929" type="curve"/>
      <point x="927" y="1095" type="line"/>
      <point x="1036" y="1095" type="line"/>
      <point x="1036" y="-482" type="line"/>
      <point x="915" y="-490" type="line"/>
      <point x="915" y="13" type="line" smooth="yes"/>
      <point x="915" y="75"/>
      <point x="917" y="126"/>
      <point x="920" y="166" type="curve"/>
      <point x="836" y="32"/>
      <point x="680" y="-25"/>
    </contour>
    <contour>
      <point x="559" y="80" type="curve" smooth="yes"/>
      <point x="817" y="80"/>
      <point x="909" y="265"/>
      <point x="912" y="525" type="curve"/>
      <point x="912" y="814"/>
      <point x="824" y="1013"/>
      <point x="559" y="1013" type="curve" smooth="yes"/>
      <point x="313" y="1013"/>
      <point x="232" y="765"/>
      <point x="232" y="543" type="curve" smooth="yes"/>
      <point x="232" y="309"/>
      <point x="313" y="80"/>
    </contour>
  </outline>
</glyph>
<glyph name="r" format="1">
  <advance width="721"/>
  <unicode hex="0072"/>
  <outline>
    <contour>
      <point x="360" y="1097" type="move" name="top"/>
    </contour>
    <contour>
      <point x="360" y="0" type="move" name="bottom"/>
    </contour>
    <contour>
      <point x="603" y="1101" type="curve" smooth="yes"/>
      <point x="635" y="1101"/>
      <point x="664" y="1098"/>
      <point x="691" y="1094" type="curve"/>
      <point x="684" y="993" type="line"/>
      <point x="654" y="999"/>
      <point x="627" y="1003"/>
      <point x="605" y="1003" type="curve" smooth="yes"/>
      <point x="418" y="1003"/>
      <point x="277" y="828"/>
      <point x="277" y="631" type="curve" smooth="yes"/>
      <point x="277" y="0" type="line"/>
      <point x="156" y="0" type="line"/>
      <point x="156" y="0"/>
      <point x="154" y="961"/>
      <point x="154" y="1095" type="curve"/>
      <point x="255" y="1095" type="line"/>
      <point x="262" y="877" type="line"/>
      <point x="337" y="1003"/>
      <point x="467" y="1101"/>
    </contour>
  </outline>
</glyph>
<glyph name="s" format="1">
  <advance width="944"/>
  <unicode hex="0073"/>
  <outline>
    <contour>
      <point x="473" y="1097" type="move" name="top"/>
    </contour>
    <contour>
      <point x="473" y="0" type="move" name="bottom"/>
    </contour>
    <contour>
      <point x="467" y="-25" type="curve" smooth="yes"/>
      <point x="692" y="-25"/>
      <point x="847" y="81"/>
      <point x="851" y="275" type="curve" smooth="yes"/>
      <point x="851" y="438"/>
      <point x="778" y="524"/>
      <point x="542" y="597" type="curve" smooth="yes"/>
      <point x="507" y="609"/>
      <point x="476" y="619"/>
      <point x="448" y="629" type="curve" smooth="yes"/>
      <point x="273" y="688"/>
      <point x="231" y="724"/>
      <point x="231" y="822" type="curve" smooth="yes"/>
      <point x="231" y="941"/>
      <point x="325" y="1017"/>
      <point x="482" y="1017" type="curve" smooth="yes"/>
      <point x="587" y="1017"/>
      <point x="682" y="992"/>
      <point x="768" y="960" type="curve"/>
      <point x="809" y="1049" type="line"/>
      <point x="715" y="1090"/>
      <point x="609" y="1116"/>
      <point x="484" y="1116" type="curve" smooth="yes"/>
      <point x="240" y="1116"/>
      <point x="109" y="964"/>
      <point x="109" y="825" type="curve" smooth="yes"/>
      <point x="110" y="713"/>
      <point x="170" y="611"/>
      <point x="368" y="552" type="curve"/>
      <point x="362" y="556"/>
      <point x="469" y="514"/>
      <point x="464" y="518" type="curve" smooth="yes"/>
      <point x="690" y="442"/>
      <point x="737" y="390"/>
      <point x="737" y="281" type="curve" smooth="yes"/>
      <point x="731" y="140"/>
      <point x="627" y="77"/>
      <point x="455" y="77" type="curve" smooth="yes"/>
      <point x="318" y="77"/>
      <point x="208" y="128"/>
      <point x="139" y="163" type="curve"/>
      <point x="121" y="63" type="line"/>
      <point x="185" y="20"/>
      <point x="315" y="-25"/>
    </contour>
  </outline>
</glyph>
<glyph name="t" format="1">
  <advance width="669"/>
  <unicode hex="0074"/>
  <outline>
    <contour>
      <point x="334" y="549" type="move" name="center"/>
    </contour>
    <contour>
      <point x="334" y="0" type="move" name="bottom"/>
    </contour>
    <contour>
      <point x="454" y="-24" type="curve" smooth="yes"/>
      <point x="493" y="-24"/>
      <point x="534" y="-21"/>
      <point x="641" y="1" type="curve"/>
      <point x="636" y="107" type="line"/>
      <point x="561" y="95"/>
      <point x="540" y="87"/>
      <point x="489" y="87" type="curve" smooth="yes"/>
      <point x="367" y="87"/>
      <point x="310" y="130"/>
      <point x="310" y="291" type="curve" smooth="yes"/>
      <point x="310" y="1017" type="line"/>
      <point x="630" y="1017" type="line"/>
      <point x="630" y="1116" type="line"/>
      <point x="310" y="1116" type="line"/>
      <point x="310" y="1351" type="line"/>
      <point x="224" y="1345" type="line"/>
      <point x="181" y="1131" type="line"/>
      <point x="38" y="1077" type="line"/>
      <point x="35" y="1017" type="line"/>
      <point x="189" y="1017" type="line"/>
      <point x="189" y="1017"/>
      <point x="189" y="309"/>
      <point x="190" y="236" type="curve" smooth="yes"/>
      <point x="197" y="50"/>
      <point x="274" y="-24"/>
    </contour>
  </outline>
</glyph>
<glyph name="u" format="1">
  <advance width="1086"/>
  <unicode hex="0075"/>
  <outline>
    <contour>
      <point x="543" y="1097" type="move" name="top"/>
    </contour>
    <contour>
      <point x="978" y="10" type="move" name="ogonek"/>
    </contour>
    <contour>
      <point x="113" y="348" type="curve" smooth="yes"/>
      <point x="113" y="1095" type="line"/>
      <point x="236" y="1095" type="line"/>
      <point x="236" y="345" type="line" smooth="yes"/>
      <point x="236" y="126"/>
      <point x="379" y="81"/>
      <point x="545" y="81" type="curve" smooth="yes"/>
      <point x="709" y="81"/>
      <point x="850" y="129"/>
      <point x="850" y="345" type="curve" smooth="yes"/>
      <point x="850" y="1095" type="line"/>
      <point x="972" y="1095" type="line"/>
      <point x="972" y="348" type="line" smooth="yes"/>
      <point x="972" y="58"/>
      <point x="760" y="-28"/>
      <point x="545" y="-28" type="curve" smooth="yes"/>
      <point x="329" y="-28"/>
      <point x="113" y="62"/>
    </contour>
  </outline>
</glyph>
<glyph name="v" format="1">
  <advance width="986"/>
  <unicode hex="0076"/>
  <outline>
    <contour>
      <point x="416" y="0" type="line"/>
      <point x="-2" y="1095" type="line"/>
      <point x="129" y="1095" type="line"/>
      <point x="384" y="401" type="line"/>
      <point x="430" y="249"/>
      <point x="493" y="105"/>
      <point x="493" y="105" type="curve"/>
      <point x="530" y="237"/>
      <point x="546" y="231"/>
      <point x="598" y="398" type="curve"/>
      <point x="670" y="628"/>
      <point x="699" y="614"/>
      <point x="853" y="1095" type="curve"/>
      <point x="983" y="1095" type="line"/>
      <point x="558" y="0" type="line"/>
    </contour>
  </outline>
</glyph>
<glyph name="w" format="1">
  <advance width="1554"/>
  <unicode hex="0077"/>
  <outline>
    <contour>
      <point x="777" y="1097" type="move" name="top"/>
    </contour>
    <contour>
      <point x="1090" y="0" type="line"/>
      <point x="960" y="474"/>
      <point x="906" y="486"/>
      <point x="779" y="964" type="curve"/>
      <point x="657" y="477"/>
      <point x="605" y="472"/>
      <point x="470" y="0" type="curve"/>
      <point x="328" y="0" type="line"/>
      <point x="22" y="1095" type="line"/>
      <point x="150" y="1095" type="line"/>
      <point x="399" y="130" type="line"/>
      <point x="524" y="600"/>
      <point x="578" y="632"/>
      <point x="710" y="1095" type="curve"/>
      <point x="860" y="1095" type="line"/>
      <point x="988" y="634"/>
      <point x="1046" y="600"/>
      <point x="1169" y="133" type="curve"/>
      <point x="1406" y="1095" type="line"/>
      <point x="1533" y="1095" type="line"/>
      <point x="1232" y="0" type="line"/>
    </contour>
  </outline>
</glyph>
<glyph name="x" format="1">
  <advance width="1009"/>
  <unicode hex="0078"/>
  <outline>
    <contour>
      <point x="445" y="555" type="line"/>
      <point x="49" y="1095" type="line"/>
      <point x="189" y="1095" type="line"/>
      <point x="506" y="645" type="line"/>
      <point x="820" y="1095" type="line"/>
      <point x="963" y="1095" type="line"/>
      <point x="568" y="551" type="line"/>
      <point x="972" y="0" type="line"/>
      <point x="841" y="0" type="line"/>
      <point x="507" y="472" type="line"/>
      <point x="177" y="0" type="line"/>
      <point x="36" y="0" type="line"/>
    </contour>
  </outline>
</glyph>
<glyph name="y" format="1">
  <advance width="979"/>
  <unicode hex="0079"/>
  <outline>
    <contour>
      <point x="490" y="1097" type="move" name="top"/>
    </contour>
    <contour>
      <point x="7" y="1095" type="line"/>
      <point x="135" y="1095" type="line"/>
      <point x="509" y="103" type="line"/>
      <point x="482" y="-45"/>
      <point x="867" y="1238"/>
      <point x="837" y="1095" type="curve"/>
      <point x="964" y="1095" type="line"/>
      <point x="964" y="1095"/>
      <point x="526" y="-137"/>
      <point x="506" y="-195" type="curve" smooth="yes"/>
      <point x="420" y="-399"/>
      <point x="314" y="-522"/>
      <point x="96" y="-522" type="curve" smooth="yes"/>
      <point x="68" y="-522"/>
      <point x="40" y="-519"/>
      <point x="12" y="-514" type="curve"/>
      <point x="4" y="-417" type="line"/>
      <point x="28" y="-418"/>
      <point x="50" y="-419"/>
      <point x="71" y="-419" type="curve" smooth="yes"/>
      <point x="238" y="-419"/>
      <point x="300" y="-370"/>
      <point x="367" y="-199" type="curve" smooth="yes"/>
      <point x="389" y="-137"/>
      <point x="413" y="-71"/>
      <point x="438" y="-1" type="curve"/>
    </contour>
  </outline>
</glyph>
<glyph name="z" format="1">
  <advance width="881"/>
  <unicode hex="007A"/>
  <outline>
    <contour>
      <point x="440" y="1097" type="move" name="top"/>
    </contour>
    <contour>
      <point x="814" y="0" type="line"/>
      <point x="89" y="0" type="line"/>
      <point x="89" y="102" type="line"/>
      <point x="669" y="1000" type="line"/>
      <point x="99" y="1000" type="line"/>
      <point x="99" y="1095" type="line"/>
      <point x="796" y="1095" type="line"/>
      <point x="796" y="981" type="line"/>
      <point x="215" y="89" type="line"/>
      <point x="814" y="89" type="line"/>
    </contour>
  </outline>
</glyph>
<glyph name="braceleft" format="1">
  <advance width="708"/>
  <unicode hex="007B"/>
  <outline>
    <contour>
      <point x="418" y="81" type="line"/>
      <point x="418" y="-116"/>
      <point x="464" y="-183"/>
      <point x="611" y="-185" type="curve"/>
      <point x="611" y="-277" type="line"/>
      <point x="376" y="-275"/>
      <point x="295" y="-132"/>
      <point x="295" y="98" type="curve" smooth="yes"/>
      <point x="295" y="254" type="line" smooth="yes"/>
      <point x="295" y="435"/>
      <point x="276" y="593"/>
      <point x="86" y="593" type="curve"/>
      <point x="86" y="688" type="line"/>
      <point x="309" y="692"/>
      <point x="295" y="822"/>
      <point x="295" y="1029" type="curve" smooth="yes"/>
      <point x="295" y="1237" type="line" smooth="yes"/>
      <point x="295" y="1430"/>
      <point x="409" y="1559"/>
      <point x="611" y="1559" type="curve"/>
      <point x="611" y="1467" type="line"/>
      <point x="462" y="1465"/>
      <point x="418" y="1390"/>
      <point x="418" y="1199" type="curve" smooth="yes"/>
      <point x="418" y="937" type="line"/>
      <point x="419" y="826"/>
      <point x="363" y="730"/>
      <point x="246" y="638" type="curve"/>
      <point x="378" y="585"/>
      <point x="418" y="445"/>
      <point x="418" y="341" type="curve" smooth="yes"/>
    </contour>
  </outline>
</glyph>
<glyph name="bar" format="1">
  <advance width="818"/>
  <unicode hex="007C"/>
  <outline>
    <contour>
      <point x="350" y="1609" type="line"/>
      <point x="468" y="1609" type="line"/>
      <point x="468" y="-415" type="line"/>
      <point x="350" y="-415" type="line"/>
    </contour>
  </outline>
</glyph>
<glyph name="braceright" format="1">
  <advance width="715"/>
  <unicode hex="007D"/>
  <outline>
    <contour>
      <point x="464" y="647" type="curve"/>
      <point x="334" y="687"/>
      <point x="292" y="832"/>
      <point x="293" y="937" type="curve"/>
      <point x="293" y="1199" type="line" smooth="yes"/>
      <point x="293" y="1390"/>
      <point x="247" y="1465"/>
      <point x="100" y="1467" type="curve"/>
      <point x="100" y="1559" type="line"/>
      <point x="331" y="1559"/>
      <point x="416" y="1408"/>
      <point x="416" y="1182" type="curve" smooth="yes"/>
      <point x="416" y="1029" type="line" smooth="yes"/>
      <point x="416" y="845"/>
      <point x="429" y="692"/>
      <point x="626" y="688" type="curve"/>
      <point x="626" y="593" type="line"/>
      <point x="434" y="593"/>
      <point x="416" y="432"/>
      <point x="416" y="254" type="curve" smooth="yes"/>
      <point x="416" y="44" type="line" smooth="yes"/>
      <point x="416" y="-145"/>
      <point x="307" y="-275"/>
      <point x="100" y="-277" type="curve"/>
      <point x="100" y="-185" type="line"/>
      <point x="244" y="-183"/>
      <point x="293" y="-115"/>
      <point x="293" y="81" type="curve" smooth="yes"/>
      <point x="293" y="341" type="line" smooth="yes"/>
      <point x="293" y="458"/>
      <point x="325" y="517"/>
    </contour>
  </outline>
</glyph>
<glyph name="asciitilde" format="1">
  <advance width="1235"/>
  <unicode hex="007E"/>
  <outline>
    <contour>
      <point x="377" y="695" type="curve" smooth="yes"/>
      <point x="289" y="695"/>
      <point x="204" y="621"/>
      <point x="155" y="527" type="curve"/>
      <point x="115" y="602" type="line"/>
      <point x="160" y="717"/>
      <point x="251" y="803"/>
      <point x="379" y="803" type="curve" smooth="yes"/>
      <point x="458" y="803"/>
      <point x="513" y="783"/>
      <point x="617" y="735" type="curve" smooth="yes"/>
      <point x="717" y="690"/>
      <point x="801" y="643"/>
      <point x="860" y="643" type="curve" smooth="yes"/>
      <point x="943" y="643"/>
      <point x="1026" y="732"/>
      <point x="1056" y="814" type="curve"/>
      <point x="1105" y="746" type="line"/>
      <point x="1056" y="607"/>
      <point x="984" y="540"/>
      <point x="861" y="540" type="curve" smooth="yes"/>
      <point x="794" y="540"/>
      <point x="721" y="564"/>
      <point x="640" y="600" type="curve"/>
      <point x="527" y="654"/>
      <point x="445" y="695"/>
    </contour>
  </outline>
</glyph>
<glyph name="exclamdown" format="1">
  <advance width="653"/>
  <unicode hex="00A1"/>
  <outline>
    <contour>
      <point x="450" y="1429" type="curve" smooth="yes"/>
      <point x="450" y="1375"/>
      <point x="415" y="1313"/>
      <point x="326" y="1313" type="curve" smooth="yes"/>
      <point x="237" y="1313"/>
      <point x="204" y="1375"/>
      <point x="204" y="1429" type="curve" smooth="yes"/>
      <point x="204" y="1482"/>
      <point x="237" y="1546"/>
      <point x="326" y="1546" type="curve" smooth="yes"/>
      <point x="415" y="1546"/>
      <point x="450" y="1482"/>
    </contour>
    <contour>
      <point x="237" y="14" type="line"/>
      <point x="237" y="98" type="line"/>
      <point x="287" y="1114" type="line"/>
      <point x="352" y="1114" type="line"/>
      <point x="413" y="98" type="line"/>
      <point x="413" y="14" type="line"/>
    </contour>
  </outline>
</glyph>
<glyph name="cent" format="1">
  <advance width="1112"/>
  <unicode hex="00A2"/>
  <outline>
    <contour>
      <point x="534" y="1565" type="line"/>
      <point x="627" y="1565" type="line"/>
      <point x="627" y="1411" type="line"/>
      <point x="734" y="1406"/>
      <point x="829" y="1369"/>
      <point x="878" y="1317" type="curve"/>
      <point x="837" y="1238" type="line"/>
      <point x="759" y="1294"/>
      <point x="691" y="1306"/>
      <point x="627" y="1311" type="curve"/>
      <point x="627" y="355" type="line"/>
      <point x="710" y="363"/>
      <point x="783" y="398"/>
      <point x="837" y="436" type="curve"/>
      <point x="875" y="356" type="line"/>
      <point x="819" y="296"/>
      <point x="717" y="262"/>
      <point x="627" y="255" type="curve"/>
      <point x="627" y="150" type="line"/>
      <point x="534" y="150" type="line"/>
      <point x="534" y="255" type="line"/>
      <point x="219" y="284"/>
      <point x="64" y="576"/>
      <point x="64" y="819" type="curve" smooth="yes"/>
      <point x="67" y="1065"/>
      <point x="224" y="1376"/>
      <point x="534" y="1410" type="curve"/>
    </contour>
    <contour>
      <point x="534" y="356" type="curve"/>
      <point x="534" y="1310" type="line"/>
      <point x="340" y="1281"/>
      <point x="199" y="1058"/>
      <point x="199" y="817" type="curve" smooth="yes"/>
      <point x="199" y="590"/>
      <point x="331" y="387"/>
    </contour>
  </outline>
</glyph>
<glyph name="sterling" format="1">
  <advance width="1124"/>
  <unicode hex="00A3"/>
  <outline>
    <contour>
      <point x="693" y="1515" type="curve" smooth="yes"/>
      <point x="839" y="1515"/>
      <point x="951" y="1462"/>
      <point x="1036" y="1392" type="curve"/>
      <point x="970" y="1308" type="line"/>
      <point x="882" y="1381"/>
      <point x="793" y="1415"/>
      <point x="689" y="1415" type="curve" smooth="yes"/>
      <point x="474" y="1415"/>
      <point x="412" y="1239"/>
      <point x="412" y="975" type="curve" smooth="yes"/>
      <point x="412" y="798" type="line"/>
      <point x="831" y="798" type="line"/>
      <point x="831" y="697" type="line"/>
      <point x="412" y="697" type="line"/>
      <point x="412" y="527" type="line" smooth="yes"/>
      <point x="412" y="340"/>
      <point x="402" y="198"/>
      <point x="285" y="109" type="curve"/>
      <point x="330" y="112"/>
      <point x="330" y="117"/>
      <point x="374" y="117" type="curve"/>
      <point x="1050" y="117" type="line"/>
      <point x="1054" y="0" type="line"/>
      <point x="101" y="0" type="line"/>
      <point x="93" y="102" type="line"/>
      <point x="230" y="149"/>
      <point x="277" y="273"/>
      <point x="277" y="435" type="curve" smooth="yes"/>
      <point x="277" y="697" type="line"/>
      <point x="91" y="697" type="line"/>
      <point x="91" y="798" type="line"/>
      <point x="277" y="798" type="line"/>
      <point x="277" y="887" type="line" smooth="yes"/>
      <point x="277" y="1186"/>
      <point x="322" y="1515"/>
    </contour>
  </outline>
</glyph>
<glyph name="currency" format="1">
  <advance width="1146"/>
  <unicode hex="00A4"/>
  <outline>
    <contour>
      <point x="251" y="732" type="curve" smooth="yes"/>
      <point x="251" y="548"/>
      <point x="395" y="400"/>
      <point x="573" y="400" type="curve" smooth="yes"/>
      <point x="753" y="400"/>
      <point x="896" y="549"/>
      <point x="896" y="732" type="curve" smooth="yes"/>
      <point x="896" y="915"/>
      <point x="752" y="1066"/>
      <point x="573" y="1066" type="curve" smooth="yes"/>
      <point x="395" y="1066"/>
      <point x="251" y="915"/>
    </contour>
    <contour>
      <point x="157" y="732" type="curve" smooth="yes"/>
      <point x="157" y="826"/>
      <point x="188" y="915"/>
      <point x="243" y="990" type="curve"/>
      <point x="57" y="1172" type="line"/>
      <point x="121" y="1229" type="line"/>
      <point x="305" y="1053" type="line"/>
      <point x="380" y="1116"/>
      <point x="472" y="1151"/>
      <point x="573" y="1151" type="curve" smooth="yes"/>
      <point x="676" y="1151"/>
      <point x="766" y="1115"/>
      <point x="840" y="1052" type="curve"/>
      <point x="1028" y="1229" type="line"/>
      <point x="1087" y="1170" type="line"/>
      <point x="903" y="990" type="line"/>
      <point x="959" y="910"/>
      <point x="990" y="823"/>
      <point x="990" y="732" type="curve" smooth="yes"/>
      <point x="990" y="634"/>
      <point x="960" y="545"/>
      <point x="904" y="473" type="curve"/>
      <point x="1087" y="293" type="line"/>
      <point x="1028" y="234" type="line"/>
      <point x="840" y="412" type="line"/>
      <point x="766" y="350"/>
      <point x="676" y="314"/>
      <point x="573" y="314" type="curve" smooth="yes"/>
      <point x="471" y="314"/>
      <point x="380" y="349"/>
      <point x="306" y="413" type="curve"/>
      <point x="121" y="235" type="line"/>
      <point x="58" y="293" type="line"/>
      <point x="243" y="473" type="line"/>
      <point x="188" y="547"/>
      <point x="157" y="636"/>
    </contour>
  </outline>
</glyph>
<glyph name="brokenbar" format="1">
  <advance width="774"/>
  <unicode hex="00A6"/>
  <outline>
    <contour>
      <point x="330" y="288" type="line"/>
      <point x="449" y="288" type="line"/>
      <point x="449" y="-414" type="line"/>
      <point x="330" y="-414" type="line"/>
    </contour>
    <contour>
      <point x="330" y="1609" type="line"/>
      <point x="449" y="1609" type="line"/>
      <point x="449" y="910" type="line"/>
      <point x="330" y="910" type="line"/>
    </contour>
  </outline>
</glyph>
<glyph name="dieresis" format="1">
  <advance width="769"/>
  <unicode hex="00A8"/>
  <outline>
    <contour>
      <point x="392" y="1097" type="move" name="_top"/>
    </contour>
    <contour>
      <point x="648" y="1267" type="line"/>
      <point x="512" y="1267" type="line"/>
      <point x="512" y="1448" type="line"/>
      <point x="648" y="1448" type="line"/>
    </contour>
    <contour>
      <point x="272" y="1267" type="line"/>
      <point x="137" y="1267" type="line"/>
      <point x="137" y="1448" type="line"/>
      <point x="272" y="1448" type="line"/>
    </contour>
  </outline>
</glyph>
<glyph name="copyright" format="1">
  <advance width="1888"/>
  <unicode hex="00A9"/>
  <outline>
    <contour>
      <point x="1725" y="810" type="curve" smooth="yes"/>
      <point x="1725" y="205"/>
      <point x="1329" y="-29"/>
      <point x="918" y="-29" type="curve" smooth="yes"/>
      <point x="539" y="-29"/>
      <point x="130" y="205"/>
      <point x="130" y="810" type="curve" smooth="yes"/>
      <point x="130" y="1413"/>
      <point x="532" y="1645"/>
      <point x="911" y="1645" type="curve" smooth="yes"/>
      <point x="1322" y="1645"/>
      <point x="1725" y="1410"/>
    </contour>
    <contour>
      <point x="918" y="59" type="curve" smooth="yes"/>
      <point x="1400" y="59"/>
      <point x="1614" y="396"/>
      <point x="1614" y="805" type="curve" smooth="yes"/>
      <point x="1614" y="1214"/>
      <point x="1395" y="1558"/>
      <point x="911" y="1558" type="curve" smooth="yes"/>
      <point x="460" y="1558"/>
      <point x="241" y="1215"/>
      <point x="241" y="813" type="curve" smooth="yes"/>
      <point x="241" y="399"/>
      <point x="461" y="59"/>
    </contour>
    <contour>
      <point x="1226" y="466" type="curve"/>
      <point x="1262" y="364" type="line"/>
      <point x="1197" y="325"/>
      <point x="1060" y="282"/>
      <point x="935" y="282" type="curve" smooth="yes"/>
      <point x="654" y="282"/>
      <point x="453" y="510"/>
      <point x="453" y="816" type="curve" smooth="yes"/>
      <point x="453" y="1127"/>
      <point x="648" y="1347"/>
      <point x="950" y="1347" type="curve" smooth="yes"/>
      <point x="1069" y="1347"/>
      <point x="1176" y="1310"/>
      <point x="1258" y="1252" type="curve"/>
      <point x="1193" y="1163" type="line"/>
      <point x="1138" y="1206"/>
      <point x="1035" y="1231"/>
      <point x="935" y="1231" type="curve" smooth="yes"/>
      <point x="688" y="1231"/>
      <point x="585" y="1039"/>
      <point x="585" y="823" type="curve" smooth="yes"/>
      <point x="585" y="577"/>
      <point x="701" y="391"/>
      <point x="960" y="391" type="curve" smooth="yes"/>
      <point x="1059" y="391"/>
      <point x="1179" y="431"/>
    </contour>
  </outline>
</glyph>
<glyph name="ordfeminine" format="1">
  <advance width="831"/>
  <unicode hex="00AA"/>
  <outline>
    <contour>
      <point x="375" y="881" type="curve" smooth="yes"/>
      <point x="245" y="881"/>
      <point x="154" y="979"/>
      <point x="154" y="1114" type="curve" smooth="yes"/>
      <point x="154" y="1292"/>
      <point x="298" y="1336"/>
      <point x="561" y="1346" type="curve"/>
      <point x="561" y="1356"/>
      <point x="561" y="1345"/>
      <point x="561" y="1354" type="curve" smooth="yes"/>
      <point x="557" y="1481"/>
      <point x="532" y="1538"/>
      <point x="428" y="1538" type="curve" smooth="yes"/>
      <point x="351" y="1538"/>
      <point x="288" y="1541"/>
      <point x="229" y="1428" type="curve"/>
      <point x="159" y="1483" type="line"/>
      <point x="226" y="1616"/>
      <point x="315" y="1646"/>
      <point x="429" y="1646" type="curve" smooth="yes"/>
      <point x="550" y="1646"/>
      <point x="656" y="1565"/>
      <point x="656" y="1376" type="curve" smooth="yes"/>
      <point x="653" y="1055" type="line"/>
      <point x="653" y="1035"/>
      <point x="654" y="1049"/>
      <point x="661" y="908" type="curve"/>
      <point x="551" y="908" type="line"/>
      <point x="555" y="983" type="line"/>
      <point x="517" y="921"/>
      <point x="466" y="881"/>
    </contour>
    <contour>
      <point x="394" y="980" type="curve" smooth="yes"/>
      <point x="537" y="980"/>
      <point x="577" y="1139"/>
      <point x="561" y="1295" type="curve"/>
      <point x="561" y="1260" type="line"/>
      <point x="456" y="1254"/>
      <point x="255" y="1276"/>
      <point x="255" y="1107" type="curve" smooth="yes"/>
      <point x="255" y="1012"/>
      <point x="310" y="980"/>
    </contour>
    <contour>
      <point x="144" y="804" type="line"/>
      <point x="682" y="804" type="line"/>
      <point x="682" y="707" type="line"/>
      <point x="144" y="707" type="line"/>
    </contour>
  </outline>
</glyph>
<glyph name="guillemotleft" format="1">
  <advance width="960"/>
  <unicode hex="00AB"/>
  <outline>
    <contour>
      <point x="391" y="158" type="line"/>
      <point x="501" y="181" type="line"/>
      <point x="235" y="560" type="line"/>
      <point x="506" y="936" type="line"/>
      <point x="394" y="957" type="line"/>
      <point x="108" y="551" type="line"/>
      <point x="142" y="501" type="line"/>
    </contour>
    <contour>
      <point x="752" y="158" type="curve"/>
      <point x="844" y="181" type="line"/>
      <point x="594" y="560" type="line"/>
      <point x="846" y="936" type="line"/>
      <point x="754" y="957" type="line"/>
      <point x="460" y="574" type="line"/>
      <point x="460" y="574"/>
      <point x="625" y="350"/>
    </contour>
  </outline>
</glyph>
<glyph name="logicalnot" format="1">
  <advance width="1195"/>
  <unicode hex="00AC"/>
  <outline>
    <contour>
      <point x="1075" y="818" type="line"/>
      <point x="1075" y="269" type="line"/>
      <point x="967" y="269" type="line"/>
      <point x="967" y="710" type="line"/>
      <point x="98" y="710" type="line"/>
      <point x="98" y="818" type="line"/>
    </contour>
  </outline>
</glyph>
<glyph name="uni00AD" format="1">
  <advance width="1043"/>
  <unicode hex="00AD"/>
  <outline>
    <contour>
      <point x="124" y="131" type="line"/>
      <point x="124" y="241" type="line"/>
      <point x="926" y="241" type="line"/>
      <point x="926" y="131" type="line"/>
    </contour>
  </outline>
</glyph>
<glyph name="registered" format="1">
  <advance width="1867"/>
  <unicode hex="00AE"/>
  <outline>
    <contour>
      <point x="1727" y="810" type="curve" smooth="yes"/>
      <point x="1727" y="205"/>
      <point x="1330" y="-29"/>
      <point x="919" y="-29" type="curve" smooth="yes"/>
      <point x="540" y="-29"/>
      <point x="130" y="205"/>
      <point x="130" y="810" type="curve" smooth="yes"/>
      <point x="130" y="1413"/>
      <point x="533" y="1645"/>
      <point x="912" y="1645" type="curve" smooth="yes"/>
      <point x="1323" y="1645"/>
      <point x="1727" y="1410"/>
    </contour>
    <contour>
      <point x="919" y="59" type="curve" smooth="yes"/>
      <point x="1401" y="59"/>
      <point x="1615" y="396"/>
      <point x="1615" y="805" type="curve" smooth="yes"/>
      <point x="1615" y="1214"/>
      <point x="1397" y="1558"/>
      <point x="912" y="1558" type="curve" smooth="yes"/>
      <point x="460" y="1558"/>
      <point x="241" y="1215"/>
      <point x="241" y="813" type="curve" smooth="yes"/>
      <point x="241" y="399"/>
      <point x="461" y="59"/>
    </contour>
    <contour>
      <point x="872" y="865" type="line"/>
      <point x="1073" y="865"/>
      <point x="1177" y="898"/>
      <point x="1177" y="1026" type="curve" smooth="yes"/>
      <point x="1177" y="1158"/>
      <point x="1091" y="1185"/>
      <point x="862" y="1185" type="curve" smooth="yes"/>
      <point x="743" y="1185" type="line"/>
      <point x="743" y="865" type="line"/>
    </contour>
    <contour>
      <point x="941" y="737" type="curve" smooth="yes"/>
      <point x="743" y="737" type="line"/>
      <point x="743" y="323" type="line"/>
      <point x="618" y="323" type="line"/>
      <point x="618" y="1314" type="line"/>
      <point x="856" y="1314" type="line" smooth="yes"/>
      <point x="1197" y="1314"/>
      <point x="1340" y="1207"/>
      <point x="1340" y="1038" type="curve" smooth="yes"/>
      <point x="1340" y="919"/>
      <point x="1274" y="774"/>
      <point x="1058" y="757" type="curve"/>
      <point x="1166" y="684"/>
      <point x="1188" y="602"/>
      <point x="1351" y="323" type="curve"/>
      <point x="1210" y="323" type="line"/>
      <point x="1085" y="543" type="line"/>
      <point x="1038" y="622"/>
      <point x="1005" y="681"/>
    </contour>
  </outline>
</glyph>
<glyph name="macron" format="1">
  <advance width="1134"/>
  <unicode hex="00AF"/>
  <outline>
    <contour>
      <point x="567" y="1097" type="move" name="_top"/>
    </contour>
    <contour>
      <point x="989" y="1695" type="line"/>
      <point x="989" y="1569" type="line"/>
      <point x="146" y="1569" type="line"/>
      <point x="146" y="1695" type="line"/>
    </contour>
  </outline>
</glyph>
<glyph name="degree" format="1">
  <advance width="844"/>
  <unicode hex="00B0"/>
  <outline>
    <contour>
      <point x="218" y="1235" type="curve" smooth="yes"/>
      <point x="218" y="1101"/>
      <point x="318" y="1005"/>
      <point x="423" y="1005" type="curve" smooth="yes"/>
      <point x="528" y="1005"/>
      <point x="627" y="1103"/>
      <point x="627" y="1235" type="curve" smooth="yes"/>
      <point x="627" y="1367"/>
      <point x="535" y="1466"/>
      <point x="423" y="1466" type="curve" smooth="yes"/>
      <point x="311" y="1466"/>
      <point x="218" y="1367"/>
    </contour>
    <contour>
      <point x="112" y="1233" type="curve" smooth="yes"/>
      <point x="112" y="1421"/>
      <point x="266" y="1566"/>
      <point x="421" y="1566" type="curve" smooth="yes"/>
      <point x="579" y="1566"/>
      <point x="732" y="1421"/>
      <point x="732" y="1233" type="curve" smooth="yes"/>
      <point x="732" y="1052"/>
      <point x="585" y="903"/>
      <point x="421" y="903" type="curve" smooth="yes"/>
      <point x="267" y="903"/>
      <point x="112" y="1043"/>
    </contour>
  </outline>
</glyph>
<glyph name="plusminus" format="1">
  <advance width="1161"/>
  <unicode hex="00B1"/>
  <outline>
    <contour>
      <point x="94" y="0" type="line"/>
      <point x="94" y="118" type="line"/>
      <point x="1070" y="118" type="line"/>
      <point x="1070" y="0" type="line"/>
    </contour>
    <contour>
      <point x="631" y="763" type="line"/>
      <point x="1067" y="763" type="line"/>
      <point x="1067" y="655" type="line"/>
      <point x="633" y="655" type="line"/>
      <point x="633" y="213" type="line"/>
      <point x="526" y="213" type="line"/>
      <point x="526" y="655" type="line"/>
      <point x="94" y="655" type="line"/>
      <point x="94" y="763" type="line"/>
      <point x="525" y="763" type="line"/>
      <point x="525" y="1214" type="line"/>
      <point x="631" y="1214" type="line"/>
    </contour>
  </outline>
</glyph>
<glyph name="acute" format="1">
  <advance width="649"/>
  <unicode hex="00B4"/>
  <outline>
    <contour>
      <point x="310" y="1097" type="move" name="_top"/>
    </contour>
    <contour>
      <point x="522" y="1682" type="line"/>
      <point x="192" y="1291" type="line"/>
      <point x="98" y="1291" type="line"/>
      <point x="291" y="1682" type="line"/>
    </contour>
  </outline>
</glyph>
<glyph name="paragraph" format="1">
  <advance width="1004"/>
  <unicode hex="00B6"/>
  <outline>
    <contour>
      <point x="380" y="-164" type="line"/>
      <point x="380" y="895" type="line"/>
      <point x="152" y="890"/>
      <point x="-18" y="1092"/>
      <point x="-18" y="1262" type="curve" smooth="yes"/>
      <point x="-18" y="1382"/>
      <point x="56" y="1616"/>
      <point x="391" y="1616" type="curve" smooth="yes"/>
      <point x="879" y="1616" type="line"/>
      <point x="879" y="1514" type="line"/>
      <point x="808" y="1514" type="line"/>
      <point x="808" y="-163" type="line"/>
      <point x="718" y="-163" type="line"/>
      <point x="718" y="1514" type="line"/>
      <point x="473" y="1514" type="line"/>
      <point x="473" y="-163" type="line"/>
    </contour>
  </outline>
</glyph>
<glyph name="periodcentered" format="1">
  <advance width="490"/>
  <unicode hex="00B7"/>
  <outline>
    <contour>
      <point x="312" y="773" type="line"/>
      <point x="312" y="615" type="line"/>
      <point x="179" y="615" type="line"/>
      <point x="179" y="773" type="line"/>
    </contour>
  </outline>
</glyph>
<glyph name="cedilla" format="1">
  <advance width="600"/>
  <unicode hex="00B8"/>
  <outline>
    <contour>
      <point x="337" y="0" type="move" name="_bottom"/>
    </contour>
    <contour>
      <point x="267" y="-449" type="line"/>
      <point x="304" y="10" type="line"/>
      <point x="246" y="10" type="line"/>
      <point x="139" y="-449" type="line"/>
    </contour>
  </outline>
</glyph>
<glyph name="uni00B9" format="1">
  <advance width="533"/>
  <unicode hex="00B9"/>
  <outline>
    <contour>
      <point x="117" y="1411" type="curve"/>
      <point x="117" y="1480" type="line"/>
      <point x="200" y="1528"/>
      <point x="183" y="1518"/>
      <point x="238" y="1579" type="curve"/>
      <point x="312" y="1578" type="line"/>
      <point x="312" y="744" type="line"/>
      <point x="429" y="744" type="line"/>
      <point x="429" y="686" type="line"/>
      <point x="127" y="686" type="line"/>
      <point x="127" y="744" type="line"/>
      <point x="234" y="744" type="line"/>
      <point x="234" y="1486" type="line"/>
      <point x="182" y="1447"/>
      <point x="177" y="1447"/>
    </contour>
  </outline>
</glyph>
<glyph name="guillemotright" format="1">
  <advance width="937"/>
  <unicode hex="00BB"/>
  <outline>
    <contour>
      <point x="483" y="546" type="line"/>
      <point x="190" y="158" type="line"/>
      <point x="97" y="181" type="line"/>
      <point x="348" y="562" type="line"/>
      <point x="98" y="936" type="line"/>
      <point x="190" y="957" type="line"/>
    </contour>
    <contour>
      <point x="840" y="546" type="line"/>
      <point x="561" y="158" type="line"/>
      <point x="453" y="181" type="line"/>
      <point x="720" y="562" type="line"/>
      <point x="458" y="936" type="line"/>
      <point x="564" y="957" type="line"/>
    </contour>
  </outline>
</glyph>
<glyph name="onequarter" format="1">
  <advance width="1551"/>
  <unicode hex="00BC"/>
  <outline>
    <contour>
      <point x="140" y="1411" type="curve"/>
      <point x="140" y="1480" type="line"/>
      <point x="223" y="1528"/>
      <point x="206" y="1518"/>
      <point x="260" y="1579" type="curve"/>
      <point x="335" y="1578" type="line"/>
      <point x="335" y="744" type="line"/>
      <point x="451" y="744" type="line"/>
      <point x="451" y="686" type="line"/>
      <point x="150" y="686" type="line"/>
      <point x="150" y="744" type="line"/>
      <point x="256" y="744" type="line"/>
      <point x="256" y="1486" type="line"/>
      <point x="204" y="1447"/>
      <point x="200" y="1447"/>
    </contour>
    <contour>
      <point x="1360" y="62" type="line"/>
      <point x="1277" y="62" type="line"/>
      <point x="1277" y="282" type="line"/>
      <point x="893" y="282" type="line"/>
      <point x="893" y="350" type="line"/>
      <point x="1268" y="924" type="line"/>
      <point x="1362" y="924" type="line"/>
      <point x="1362" y="388" type="line"/>
      <point x="1446" y="388" type="line"/>
      <point x="1460" y="282" type="line"/>
      <point x="1359" y="282" type="line"/>
    </contour>
    <contour>
      <point x="1087" y="1602" type="line"/>
      <point x="1194" y="1602" type="line"/>
      <point x="318" y="0" type="line"/>
      <point x="216" y="0" type="line"/>
    </contour>
    <contour>
      <point x="1013" y="388" type="line"/>
      <point x="1276" y="388" type="line"/>
      <point x="1276" y="388"/>
      <point x="1276" y="724"/>
      <point x="1278" y="768" type="curve"/>
    </contour>
  </outline>
</glyph>
<glyph name="onehalf" format="1">
  <advance width="1488"/>
  <unicode hex="00BD"/>
  <outline>
    <contour>
      <point x="130" y="1411" type="line"/>
      <point x="189" y="1447"/>
      <point x="195" y="1447"/>
      <point x="247" y="1486" type="curve"/>
      <point x="246" y="744" type="line"/>
      <point x="140" y="744" type="line"/>
      <point x="140" y="686" type="line"/>
      <point x="441" y="686" type="line"/>
      <point x="441" y="744" type="line"/>
      <point x="325" y="744" type="line"/>
      <point x="325" y="1578" type="line"/>
      <point x="263" y="1609" type="line"/>
      <point x="208" y="1548"/>
      <point x="213" y="1528"/>
      <point x="130" y="1480" type="curve"/>
    </contour>
    <contour>
      <point x="1288" y="662" type="curve" smooth="yes"/>
      <point x="1288" y="551"/>
      <point x="1105" y="334"/>
      <point x="836" y="31" type="curve"/>
      <point x="837" y="-31" type="line"/>
      <point x="1388" y="-31" type="line"/>
      <point x="1380" y="43" type="line"/>
      <point x="958" y="43" type="line"/>
      <point x="1188" y="270"/>
      <point x="1398" y="483"/>
      <point x="1398" y="679" type="curve" smooth="yes"/>
      <point x="1398" y="836"/>
      <point x="1276" y="892"/>
      <point x="1148" y="892" type="curve" smooth="yes"/>
      <point x="1031" y="892"/>
      <point x="897" y="830"/>
      <point x="855" y="706" type="curve"/>
      <point x="855" y="706"/>
      <point x="945" y="655"/>
      <point x="937" y="678" type="curve"/>
      <point x="1001" y="782"/>
      <point x="1081" y="816"/>
      <point x="1152" y="816" type="curve" smooth="yes"/>
      <point x="1226" y="816"/>
      <point x="1288" y="757"/>
    </contour>
    <contour>
      <point x="1085" y="1602" type="line"/>
      <point x="214" y="0" type="line"/>
      <point x="316" y="0" type="line"/>
      <point x="1190" y="1602" type="line"/>
    </contour>
  </outline>
</glyph>
<glyph name="threequarters" format="1">
  <advance width="1604"/>
  <unicode hex="00BE"/>
  <outline>
    <contour>
      <point x="178" y="1390" type="curve"/>
      <point x="134" y="1490" type="line"/>
      <point x="181" y="1560"/>
      <point x="254" y="1614"/>
      <point x="332" y="1614" type="curve" smooth="yes"/>
      <point x="446" y="1612"/>
      <point x="584" y="1504"/>
      <point x="584" y="1350" type="curve" smooth="yes"/>
      <point x="584" y="1220"/>
      <point x="543" y="1178"/>
      <point x="476" y="1135" type="curve"/>
      <point x="563" y="1086"/>
      <point x="604" y="1022"/>
      <point x="604" y="911" type="curve" smooth="yes"/>
      <point x="604" y="750"/>
      <point x="465" y="639"/>
      <point x="328" y="639" type="curve" smooth="yes"/>
      <point x="247" y="639"/>
      <point x="178" y="681"/>
      <point x="129" y="759" type="curve"/>
      <point x="183" y="848" type="line"/>
      <point x="236" y="781"/>
      <point x="273" y="748"/>
      <point x="325" y="748" type="curve" smooth="yes"/>
      <point x="407" y="748"/>
      <point x="485" y="818"/>
      <point x="485" y="913" type="curve" smooth="yes"/>
      <point x="485" y="1036"/>
      <point x="407" y="1076"/>
      <point x="289" y="1076" type="curve"/>
      <point x="254" y="1077" type="line"/>
      <point x="254" y="1199" type="line"/>
      <point x="281" y="1199" type="line" smooth="yes"/>
      <point x="377" y="1199"/>
      <point x="464" y="1226"/>
      <point x="464" y="1350" type="curve" smooth="yes"/>
      <point x="464" y="1456"/>
      <point x="405" y="1493"/>
      <point x="335" y="1493" type="curve" smooth="yes"/>
      <point x="276" y="1493"/>
      <point x="233" y="1455"/>
    </contour>
    <contour>
      <point x="1415" y="68" type="line"/>
      <point x="1332" y="68" type="line"/>
      <point x="1332" y="285" type="line"/>
      <point x="946" y="285" type="line"/>
      <point x="946" y="351" type="line"/>
      <point x="1321" y="913" type="line"/>
      <point x="1415" y="913" type="line"/>
      <point x="1415" y="387" type="line"/>
      <point x="1502" y="387" type="line"/>
      <point x="1513" y="285" type="line"/>
      <point x="1414" y="285" type="line"/>
    </contour>
    <contour>
      <point x="1225" y="1602" type="line"/>
      <point x="1344" y="1602" type="line"/>
      <point x="457" y="0" type="line"/>
      <point x="356" y="0" type="line"/>
    </contour>
    <contour>
      <point x="1065" y="387" type="line"/>
      <point x="1328" y="387" type="line"/>
      <point x="1328" y="770"/>
      <point x="1328" y="674"/>
      <point x="1333" y="762" type="curve"/>
    </contour>
  </outline>
</glyph>
<glyph name="AE" format="1">
  <advance width="2126"/>
  <unicode hex="00C6"/>
  <outline>
    <contour>
      <point x="1063" y="1492" type="move" name="top"/>
    </contour>
    <contour>
      <point x="108" y="0" type="line"/>
      <point x="219" y="0" type="line"/>
      <point x="476" y="465" type="line"/>
      <point x="1192" y="465" type="line"/>
      <point x="1223" y="0" type="line"/>
      <point x="1992" y="0" type="line"/>
      <point x="1985" y="131" type="line"/>
      <point x="1333" y="131" type="line"/>
      <point x="1290" y="775" type="line"/>
      <point x="1940" y="775" type="line"/>
      <point x="1940" y="905" type="line"/>
      <point x="1270" y="905" type="line"/>
      <point x="1228" y="1500" type="line"/>
      <point x="1980" y="1500" type="line"/>
      <point x="1972" y="1632" type="line"/>
      <point x="1058" y="1632" type="line"/>
    </contour>
    <contour>
      <point x="555" y="602" type="line"/>
      <point x="1101" y="1536" type="line"/>
      <point x="1167" y="602" type="line"/>
    </contour>
  </outline>
</glyph>
<glyph name="Eth" format="1">
  <advance width="1521"/>
  <unicode hex="00D0"/>
  <outline>
    <contour>
      <point x="40" y="732" type="line"/>
      <point x="40" y="834" type="line"/>
      <point x="155" y="834" type="line"/>
      <point x="155" y="1520" type="line"/>
      <point x="518" y="1520" type="line" smooth="yes"/>
      <point x="1022" y="1520"/>
      <point x="1398" y="1347"/>
      <point x="1398" y="745" type="curve" smooth="yes"/>
      <point x="1398" y="232"/>
      <point x="1087" y="-1"/>
      <point x="623" y="-1" type="curve" smooth="yes"/>
      <point x="155" y="-1" type="line"/>
      <point x="155" y="732" type="line"/>
    </contour>
    <contour>
      <point x="288" y="834" type="line"/>
      <point x="551" y="834" type="line"/>
      <point x="551" y="732" type="line"/>
      <point x="288" y="732" type="line"/>
      <point x="288" y="118" type="line"/>
      <point x="642" y="118" type="line" smooth="yes"/>
      <point x="1019" y="118"/>
      <point x="1248" y="316"/>
      <point x="1248" y="741" type="curve" smooth="yes"/>
      <point x="1248" y="1262"/>
      <point x="948" y="1404"/>
      <point x="539" y="1404" type="curve" smooth="yes"/>
      <point x="288" y="1404" type="line"/>
    </contour>
  </outline>
</glyph>
<glyph name="multiply" format="1">
  <advance width="800"/>
  <unicode hex="00D7"/>
  <outline>
    <contour>
      <point x="745" y="-44" type="line"/>
      <point x="704" y="-36" type="line"/>
      <point x="669" y="17"/>
      <point x="263" y="555"/>
      <point x="228" y="609" type="curve"/>
      <point x="-90" y="206" type="line"/>
      <point x="-125" y="198" type="line"/>
      <point x="374" y="861" type="line"/>
      <point x="38" y="1287" type="line"/>
      <point x="77" y="1275" type="line"/>
      <point x="555" y="630" type="line"/>
      <point x="876" y="1032" type="line"/>
      <point x="909" y="1044" type="line"/>
      <point x="410" y="377" type="line"/>
    </contour>
  </outline>
</glyph>
<glyph name="Oslash" format="1">
  <advance width="1671"/>
  <unicode hex="00D8"/>
  <outline>
    <contour>
      <point x="835" y="1492" type="move" name="top"/>
    </contour>
    <contour>
      <point x="834" y="1500" type="curve" smooth="yes"/>
      <point x="449" y="1500"/>
      <point x="258" y="1191"/>
      <point x="258" y="820" type="curve" smooth="yes"/>
      <point x="258" y="550"/>
      <point x="349" y="312"/>
      <point x="536" y="198" type="curve"/>
      <point x="1020" y="1474" type="line"/>
      <point x="964" y="1492"/>
      <point x="903" y="1500"/>
    </contour>
    <contour>
      <point x="1149" y="1798" type="line"/>
      <point x="1292" y="1748" type="line"/>
      <point x="1214" y="1551" type="line"/>
      <point x="1444" y="1416"/>
      <point x="1561" y="1154"/>
      <point x="1561" y="806" type="curve" smooth="yes"/>
      <point x="1561" y="341"/>
      <point x="1336" y="-28"/>
      <point x="835" y="-28" type="curve" smooth="yes"/>
      <point x="752" y="-28"/>
      <point x="678" y="-19"/>
      <point x="611" y="-1" type="curve"/>
      <point x="545" y="-167" type="line"/>
      <point x="408" y="-123" type="line"/>
      <point x="478" y="54" type="line"/>
      <point x="227" y="186"/>
      <point x="108" y="473"/>
      <point x="108" y="806" type="curve" smooth="yes"/>
      <point x="108" y="1307"/>
      <point x="356" y="1645"/>
      <point x="834" y="1645" type="curve" smooth="yes"/>
      <point x="922" y="1645"/>
      <point x="1003" y="1634"/>
      <point x="1077" y="1613" type="curve"/>
    </contour>
    <contour>
      <point x="669" y="139" type="line"/>
      <point x="719" y="126"/>
      <point x="774" y="120"/>
      <point x="834" y="120" type="curve" smooth="yes"/>
      <point x="1224" y="120"/>
      <point x="1408" y="436"/>
      <point x="1408" y="820" type="curve" smooth="yes"/>
      <point x="1408" y="1068"/>
      <point x="1324" y="1288"/>
      <point x="1154" y="1408" type="curve"/>
    </contour>
  </outline>
</glyph>
<glyph name="Thorn" format="1">
  <advance width="1274"/>
  <unicode hex="00DE"/>
  <outline>
    <contour>
      <point x="132" y="-8" type="line"/>
      <point x="288" y="-8" type="line"/>
      <point x="288" y="357" type="line"/>
      <point x="288" y="357"/>
      <point x="706" y="346"/>
      <point x="716" y="346" type="curve" smooth="yes"/>
      <point x="1079" y="346"/>
      <point x="1178" y="548"/>
      <point x="1178" y="795" type="curve" smooth="yes"/>
      <point x="1178" y="1106"/>
      <point x="1001" y="1208"/>
      <point x="629" y="1208" type="curve" smooth="yes"/>
      <point x="288" y="1208" type="line"/>
      <point x="288" y="1527" type="line"/>
      <point x="132" y="1527" type="line"/>
    </contour>
    <contour>
      <point x="287" y="463" type="line"/>
      <point x="288" y="1080" type="line"/>
      <point x="645" y="1080" type="line" smooth="yes"/>
      <point x="946" y="1080"/>
      <point x="1035" y="981"/>
      <point x="1035" y="774" type="curve" smooth="yes"/>
      <point x="1035" y="605"/>
      <point x="966" y="463"/>
      <point x="694" y="463" type="curve" smooth="yes"/>
    </contour>
  </outline>
</glyph>
<glyph name="germandbls" format="1">
  <advance width="1204"/>
  <unicode hex="00DF"/>
  <outline>
    <contour>
      <point x="773" y="125" type="line"/>
      <point x="912" y="125"/>
      <point x="993" y="210"/>
      <point x="993" y="341" type="curve" smooth="yes"/>
      <point x="993" y="526"/>
      <point x="717" y="648"/>
      <point x="592" y="736" type="curve"/>
      <point x="542" y="773"/>
      <point x="513" y="810"/>
      <point x="513" y="848" type="curve" smooth="yes"/>
      <point x="513" y="872"/>
      <point x="523" y="910"/>
      <point x="574" y="957" type="curve" smooth="yes"/>
      <point x="676" y="1046"/>
      <point x="806" y="1059"/>
      <point x="806" y="1210" type="curve" smooth="yes"/>
      <point x="806" y="1347"/>
      <point x="687" y="1427"/>
      <point x="561" y="1427" type="curve" smooth="yes"/>
      <point x="346" y="1427"/>
      <point x="249" y="1288"/>
      <point x="249" y="1085" type="curve" smooth="yes"/>
      <point x="249" y="0" type="line"/>
      <point x="123" y="0" type="line"/>
      <point x="123" y="1062" type="line" smooth="yes"/>
      <point x="123" y="1362"/>
      <point x="253" y="1551"/>
      <point x="561" y="1551" type="curve" smooth="yes"/>
      <point x="814" y="1551"/>
      <point x="965" y="1413"/>
      <point x="965" y="1210" type="curve" smooth="yes"/>
      <point x="965" y="1012"/>
      <point x="813" y="974"/>
      <point x="648" y="867" type="curve"/>
      <point x="841" y="707"/>
      <point x="1149" y="615"/>
      <point x="1149" y="351" type="curve" smooth="yes"/>
      <point x="1149" y="85"/>
      <point x="990" y="0"/>
      <point x="782" y="0" type="curve" smooth="yes"/>
      <point x="415" y="0" type="line" smooth="yes"/>
      <point x="414" y="0"/>
      <point x="426" y="125"/>
      <point x="426" y="125" type="curve"/>
    </contour>
  </outline>
</glyph>
<glyph name="ae" format="1">
  <advance width="1672"/>
  <unicode hex="00E6"/>
  <outline>
    <contour>
      <point x="836" y="1097" type="move" name="top"/>
    </contour>
    <contour>
      <point x="401" y="-29" type="curve" smooth="yes"/>
      <point x="539" y="-29"/>
      <point x="735" y="29"/>
      <point x="865" y="93" type="curve"/>
      <point x="946" y="12"/>
      <point x="1043" y="-28"/>
      <point x="1167" y="-28" type="curve" smooth="yes"/>
      <point x="1341" y="-28"/>
      <point x="1480" y="48"/>
      <point x="1559" y="123" type="curve"/>
      <point x="1516" y="214" type="line"/>
      <point x="1437" y="158"/>
      <point x="1305" y="83"/>
      <point x="1176" y="83" type="curve"/>
      <point x="949" y="82"/>
      <point x="873" y="266"/>
      <point x="854" y="516" type="curve"/>
      <point x="807" y="510"/>
      <point x="1360" y="533"/>
      <point x="1342" y="532" type="curve"/>
      <point x="1532" y="543"/>
      <point x="1543" y="605"/>
      <point x="1543" y="727" type="curve" smooth="yes"/>
      <point x="1543" y="919"/>
      <point x="1448" y="1116"/>
      <point x="1184" y="1116" type="curve" smooth="yes"/>
      <point x="1046" y="1116"/>
      <point x="905" y="1066"/>
      <point x="832" y="912" type="curve"/>
      <point x="806" y="1053"/>
      <point x="676" y="1115"/>
      <point x="523" y="1116" type="curve"/>
      <point x="383" y="1119"/>
      <point x="204" y="1064"/>
      <point x="131" y="1018" type="curve"/>
      <point x="161" y="910" type="line"/>
      <point x="256" y="969"/>
      <point x="391" y="996"/>
      <point x="532" y="996" type="curve"/>
      <point x="670" y="1000"/>
      <point x="724" y="940"/>
      <point x="724" y="806" type="curve" smooth="yes"/>
      <point x="724" y="606" type="line"/>
      <point x="672" y="606" type="line"/>
      <point x="381" y="603"/>
      <point x="84" y="568"/>
      <point x="84" y="288" type="curve" smooth="yes"/>
      <point x="84" y="11"/>
      <point x="243" y="-29"/>
    </contour>
    <contour>
      <point x="400" y="86" type="curve" smooth="yes"/>
      <point x="303" y="86"/>
      <point x="220" y="124"/>
      <point x="220" y="281" type="curve" smooth="yes"/>
      <point x="220" y="407"/>
      <point x="287" y="494"/>
      <point x="666" y="518" type="curve" smooth="yes"/>
      <point x="694" y="521"/>
      <point x="688" y="515"/>
      <point x="717" y="517" type="curve"/>
      <point x="726" y="378"/>
      <point x="746" y="286"/>
      <point x="808" y="160" type="curve"/>
      <point x="680" y="143"/>
      <point x="514" y="86"/>
    </contour>
    <contour>
      <point x="861" y="594" type="line"/>
      <point x="870" y="783"/>
      <point x="939" y="1013"/>
      <point x="1180" y="1013" type="curve" smooth="yes"/>
      <point x="1329" y="1013"/>
      <point x="1412" y="927"/>
      <point x="1415" y="610" type="curve" smooth="yes"/>
      <point x="1415" y="623"/>
      <point x="1416" y="615"/>
      <point x="1416" y="615" type="curve"/>
    </contour>
  </outline>
</glyph>
<glyph name="eth" format="1">
  <advance width="1194"/>
  <unicode hex="00F0"/>
  <outline>
    <contour>
      <point x="592" y="876" type="curve" smooth="yes"/>
      <point x="372" y="876"/>
      <point x="243" y="689"/>
      <point x="243" y="490" type="curve" smooth="yes"/>
      <point x="243" y="287"/>
      <point x="355" y="67"/>
      <point x="598" y="67" type="curve" smooth="yes"/>
      <point x="826" y="67"/>
      <point x="950" y="253"/>
      <point x="950" y="472" type="curve" smooth="yes"/>
      <point x="950" y="657"/>
      <point x="826" y="876"/>
    </contour>
    <contour>
      <point x="565" y="1003" type="curve" smooth="yes"/>
      <point x="731" y="1003"/>
      <point x="814" y="930"/>
      <point x="892" y="865" type="curve"/>
      <point x="829" y="1000"/>
      <point x="760" y="1097"/>
      <point x="544" y="1347" type="curve"/>
      <point x="261" y="1226" type="line"/>
      <point x="226" y="1331" type="line"/>
      <point x="464" y="1427" type="line"/>
      <point x="212" y="1648" type="line"/>
      <point x="399" y="1648" type="line"/>
      <point x="558" y="1475" type="line"/>
      <point x="855" y="1592" type="line"/>
      <point x="893" y="1492" type="line"/>
      <point x="636" y="1392" type="line"/>
      <point x="809" y="1195"/>
      <point x="926" y="1046"/>
      <point x="995" y="921" type="curve" smooth="yes"/>
      <point x="1067" y="772"/>
      <point x="1096" y="653"/>
      <point x="1095" y="517" type="curve"/>
      <point x="1095" y="229"/>
      <point x="936" y="-28"/>
      <point x="592" y="-28" type="curve" smooth="yes"/>
      <point x="257" y="-28"/>
      <point x="88" y="237"/>
      <point x="88" y="500" type="curve" smooth="yes"/>
      <point x="88" y="800"/>
      <point x="280" y="1003"/>
    </contour>
  </outline>
</glyph>
<glyph name="divide" format="1">
  <advance width="1093"/>
  <unicode hex="00F7"/>
  <outline>
    <contour>
      <point x="1013" y="548" type="line"/>
      <point x="58" y="548" type="line"/>
      <point x="58" y="669" type="line"/>
      <point x="1013" y="669" type="line"/>
    </contour>
    <contour>
      <point x="640" y="1190" type="line"/>
      <point x="640" y="986" type="line"/>
      <point x="443" y="986" type="line"/>
      <point x="443" y="1190" type="line"/>
    </contour>
    <contour>
      <point x="594" y="226" type="line"/>
      <point x="594" y="23" type="line"/>
      <point x="443" y="23" type="line"/>
      <point x="443" y="226" type="line"/>
    </contour>
  </outline>
</glyph>
<glyph name="oslash" format="1">
  <advance width="1175"/>
  <unicode hex="00F8"/>
  <outline>
    <contour>
      <point x="588" y="1097" type="move" name="top"/>
    </contour>
    <contour>
      <point x="280" y="-312" type="line"/>
      <point x="407" y="3" type="line"/>
      <point x="463" y="-19"/>
      <point x="525" y="-32"/>
      <point x="594" y="-32" type="curve" smooth="yes"/>
      <point x="914" y="-32"/>
      <point x="1092" y="258"/>
      <point x="1092" y="547" type="curve" smooth="yes"/>
      <point x="1092" y="758"/>
      <point x="1011" y="959"/>
      <point x="848" y="1059" type="curve"/>
      <point x="976" y="1395" type="line"/>
      <point x="895" y="1431" type="line"/>
      <point x="771" y="1097" type="line"/>
      <point x="719" y="1116"/>
      <point x="660" y="1127"/>
      <point x="596" y="1127" type="curve" smooth="yes"/>
      <point x="271" y="1127"/>
      <point x="82" y="845"/>
      <point x="82" y="545" type="curve" smooth="yes"/>
      <point x="82" y="336"/>
      <point x="171" y="143"/>
      <point x="332" y="42" type="curve"/>
      <point x="204" y="-271" type="line"/>
    </contour>
    <contour>
      <point x="379" y="147" type="line"/>
      <point x="269" y="237"/>
      <point x="219" y="396"/>
      <point x="219" y="540" type="curve" smooth="yes"/>
      <point x="219" y="752"/>
      <point x="331" y="1018"/>
      <point x="593" y="1018" type="curve" smooth="yes"/>
      <point x="643" y="1018"/>
      <point x="687" y="1011"/>
      <point x="726" y="998" type="curve"/>
    </contour>
    <contour>
      <point x="597" y="77" type="curve" smooth="yes"/>
      <point x="542" y="77"/>
      <point x="494" y="87"/>
      <point x="453" y="104" type="curve"/>
      <point x="801" y="959" type="line"/>
      <point x="912" y="871"/>
      <point x="953" y="707"/>
      <point x="953" y="544" type="curve" smooth="yes"/>
      <point x="953" y="330"/>
      <point x="860" y="77"/>
    </contour>
  </outline>
</glyph>
<glyph name="thorn" format="1">
  <advance width="1165"/>
  <unicode hex="00FE"/>
  <outline>
    <contour>
      <point x="247" y="194" type="curve"/>
      <point x="247" y="-479" type="line"/>
      <point x="107" y="-479" type="line"/>
      <point x="107" y="1219" type="line" smooth="yes"/>
      <point x="107" y="1171"/>
      <point x="109" y="1519"/>
      <point x="109" y="1519" type="curve"/>
      <point x="247" y="1519" type="line"/>
      <point x="247" y="929" type="line"/>
      <point x="364" y="1126"/>
      <point x="478" y="1162"/>
      <point x="610" y="1162" type="curve" smooth="yes"/>
      <point x="861" y="1159"/>
      <point x="1048" y="918"/>
      <point x="1048" y="589" type="curve" smooth="yes"/>
      <point x="1048" y="296"/>
      <point x="901" y="-29"/>
      <point x="603" y="-29" type="curve" smooth="yes"/>
      <point x="477" y="-29"/>
      <point x="349" y="-4"/>
    </contour>
    <contour>
      <point x="590" y="67" type="curve" smooth="yes"/>
      <point x="838" y="67"/>
      <point x="903" y="372"/>
      <point x="903" y="566" type="curve" smooth="yes"/>
      <point x="903" y="762"/>
      <point x="841" y="1060"/>
      <point x="600" y="1060" type="curve" smooth="yes"/>
      <point x="370" y="1060"/>
      <point x="245" y="815"/>
      <point x="245" y="566" type="curve" smooth="yes"/>
      <point x="245" y="316"/>
      <point x="342" y="67"/>
    </contour>
  </outline>
</glyph>
<glyph name="dcroat" format="1">
  <advance width="1136"/>
  <unicode hex="0111"/>
  <outline>
    <contour>
      <point x="531" y="88" type="curve" smooth="yes"/>
      <point x="788" y="88"/>
      <point x="884" y="341"/>
      <point x="884" y="549" type="curve" smooth="yes"/>
      <point x="884" y="757"/>
      <point x="799" y="1003"/>
      <point x="528" y="1003" type="curve" smooth="yes"/>
      <point x="269" y="1003"/>
      <point x="209" y="701"/>
      <point x="209" y="557" type="curve" smooth="yes"/>
      <point x="209" y="375"/>
      <point x="269" y="88"/>
    </contour>
    <contour>
      <point x="535" y="-26" type="curve"/>
      <point x="244" y="-30"/>
      <point x="72" y="208"/>
      <point x="72" y="559" type="curve" smooth="yes"/>
      <point x="72" y="872"/>
      <point x="264" y="1118"/>
      <point x="528" y="1118" type="curve" smooth="yes"/>
      <point x="658" y="1118"/>
      <point x="821" y="1052"/>
      <point x="884" y="915" type="curve"/>
      <point x="884" y="1192" type="line"/>
      <point x="691" y="1192" type="line"/>
      <point x="691" y="1334" type="line"/>
      <point x="884" y="1334" type="line"/>
      <point x="884" y="1485" type="line"/>
      <point x="1011" y="1507" type="line"/>
      <point x="1011" y="1334" type="line"/>
      <point x="1133" y="1334" type="line"/>
      <point x="1133" y="1192" type="line"/>
      <point x="1011" y="1192" type="line"/>
      <point x="1011" y="0" type="line"/>
      <point x="908" y="0" type="line"/>
      <point x="882" y="185" type="line"/>
      <point x="815" y="64"/>
      <point x="684" y="-26"/>
    </contour>
  </outline>
</glyph>
<glyph name="gcommaaccent" format="1">
  <advance width="1148"/>
  <unicode hex="0123"/>
  <outline>
    <contour>
      <point x="802" y="1763" type="line"/>
      <point x="691" y="1277" type="line"/>
      <point x="509" y="1277" type="line"/>
      <point x="674" y="1763" type="line"/>
    </contour>
    <component base="g"/>
  </outline>
</glyph>
<glyph name="Hbar" format="1">
  <advance width="1450"/>
  <unicode hex="0126"/>
  <outline>
    <contour>
      <point x="288" y="1123" type="line"/>
      <point x="288" y="844" type="line"/>
      <point x="1163" y="844" type="line"/>
      <point x="1163" y="1123" type="line"/>
    </contour>
    <contour>
      <point x="1163" y="724" type="line"/>
      <point x="288" y="724" type="line"/>
      <point x="288" y="0" type="line"/>
      <point x="155" y="0" type="line"/>
      <point x="155" y="1123" type="line"/>
      <point x="63" y="1123" type="line"/>
      <point x="63" y="1208" type="line"/>
      <point x="155" y="1208" type="line"/>
      <point x="155" y="1524" type="line"/>
      <point x="288" y="1524" type="line"/>
      <point x="288" y="1208" type="line"/>
      <point x="1163" y="1208" type="line"/>
      <point x="1163" y="1524" type="line"/>
      <point x="1296" y="1524" type="line"/>
      <point x="1296" y="1208" type="line"/>
      <point x="1389" y="1208" type="line"/>
      <point x="1389" y="1123" type="line"/>
      <point x="1296" y="1123" type="line"/>
      <point x="1296" y="0" type="line"/>
      <point x="1163" y="0" type="line"/>
    </contour>
  </outline>
</glyph>
<glyph name="hbar" format="1">
  <advance width="1075"/>
  <unicode hex="0127"/>
  <outline>
    <contour>
      <point x="244" y="0" type="line"/>
      <point x="118" y="0" type="line"/>
      <point x="118" y="1303" type="line"/>
      <point x="29" y="1303" type="line"/>
      <point x="29" y="1405" type="line"/>
      <point x="118" y="1405" type="line"/>
      <point x="118" y="1486" type="line"/>
      <point x="244" y="1507" type="line"/>
      <point x="244" y="1405" type="line"/>
      <point x="510" y="1405" type="line"/>
      <point x="510" y="1303" type="line"/>
      <point x="244" y="1303" type="line"/>
      <point x="244" y="931" type="line"/>
      <point x="338" y="1056"/>
      <point x="475" y="1127"/>
      <point x="651" y="1127" type="curve" smooth="yes"/>
      <point x="889" y="1127"/>
      <point x="965" y="916"/>
      <point x="965" y="662" type="curve" smooth="yes"/>
      <point x="965" y="0" type="line"/>
      <point x="839" y="0" type="line"/>
      <point x="839" y="590" type="line" smooth="yes"/>
      <point x="839" y="885"/>
      <point x="805" y="1019"/>
      <point x="599" y="1019" type="curve" smooth="yes"/>
      <point x="411" y="1019"/>
      <point x="261" y="860"/>
      <point x="244" y="750" type="curve"/>
    </contour>
  </outline>
</glyph>
<glyph name="kgreenlandic" format="1">
  <advance width="1095"/>
  <unicode hex="0138"/>
  <outline>
    <contour>
      <point x="817" y="0" type="line"/>
      <point x="269" y="469" type="line"/>
      <point x="259" y="541" type="line"/>
      <point x="259" y="0" type="line"/>
      <point x="163" y="0" type="line"/>
      <point x="163" y="1109" type="line"/>
      <point x="259" y="1109" type="line"/>
      <point x="259" y="575" type="line"/>
      <point x="768" y="1109" type="line"/>
      <point x="921" y="1109" type="line"/>
      <point x="367" y="518" type="line"/>
      <point x="635" y="235"/>
      <point x="721" y="284"/>
      <point x="948" y="0" type="curve"/>
    </contour>
  </outline>
</glyph>
<glyph name="ldot" format="1">
  <advance width="526"/>
  <unicode hex="0140"/>
  <outline>
    <contour>
      <point x="838" y="773" type="line"/>
      <point x="838" y="615" type="line"/>
      <point x="705" y="615" type="line"/>
      <point x="705" y="773" type="line"/>
    </contour>
    <component base="l"/>
  </outline>
</glyph>
<glyph name="Lslash" format="1">
  <advance width="935"/>
  <unicode hex="0141"/>
  <outline>
    <contour>
      <point x="10" y="547" type="line"/>
      <point x="10" y="668" type="line"/>
      <point x="156" y="743" type="line"/>
      <point x="156" y="1520" type="line"/>
      <point x="290" y="1520" type="line"/>
      <point x="290" y="796" type="line"/>
      <point x="652" y="993" type="line"/>
      <point x="652" y="859" type="line"/>
      <point x="290" y="668" type="line"/>
      <point x="290" y="120" type="line"/>
      <point x="965" y="120" type="line"/>
      <point x="954" y="0" type="line"/>
      <point x="156" y="0" type="line"/>
      <point x="156" y="619" type="line"/>
    </contour>
  </outline>
</glyph>
<glyph name="lslash" format="1">
  <advance width="546"/>
  <unicode hex="0142"/>
  <outline>
    <contour>
      <point x="455" y="883" type="line"/>
      <point x="455" y="763" type="line"/>
      <point x="270" y="598" type="line"/>
      <point x="270" y="426" type="line" smooth="yes"/>
      <point x="270" y="155"/>
      <point x="272" y="72"/>
      <point x="408" y="72" type="curve" smooth="yes"/>
      <point x="442" y="72"/>
      <point x="496" y="78"/>
      <point x="563" y="84" type="curve"/>
      <point x="577" y="-13" type="line"/>
      <point x="509" y="-21"/>
      <point x="399" y="-25"/>
      <point x="393" y="-25" type="curve" smooth="yes"/>
      <point x="150" y="-25"/>
      <point x="143" y="85"/>
      <point x="143" y="475" type="curve" smooth="yes"/>
      <point x="143" y="485" type="line"/>
      <point x="31" y="384" type="line"/>
      <point x="31" y="501" type="line"/>
      <point x="143" y="603" type="line"/>
      <point x="143" y="1487" type="line"/>
      <point x="270" y="1507" type="line"/>
      <point x="270" y="717" type="line"/>
    </contour>
  </outline>
</glyph>
<glyph name="Eng" format="1">
  <advance width="1420"/>
  <unicode hex="014A"/>
  <outline>
    <contour>
      <point x="847" y="-342" type="curve"/>
      <point x="1196" y="-342"/>
      <point x="1250" y="-120"/>
      <point x="1250" y="179" type="curve" smooth="yes"/>
      <point x="1250" y="1047" type="line" smooth="yes"/>
      <point x="1250" y="1378"/>
      <point x="1109" y="1543"/>
      <point x="861" y="1543" type="curve" smooth="yes"/>
      <point x="684" y="1543"/>
      <point x="507" y="1532"/>
      <point x="289" y="1283" type="curve"/>
      <point x="276" y="1520" type="line"/>
      <point x="151" y="1520" type="line"/>
      <point x="153" y="0" type="line"/>
      <point x="285" y="0" type="line"/>
      <point x="285" y="1113" type="line"/>
      <point x="382" y="1247"/>
      <point x="542" y="1417"/>
      <point x="804" y="1417" type="curve" smooth="yes"/>
      <point x="1040" y="1417"/>
      <point x="1119" y="1333"/>
      <point x="1119" y="1046" type="curve" smooth="yes"/>
      <point x="1119" y="194" type="line" smooth="yes"/>
      <point x="1119" y="-141"/>
      <point x="1098" y="-222"/>
      <point x="779" y="-222" type="curve" smooth="yes"/>
      <point x="750" y="-222"/>
      <point x="752" y="-221"/>
      <point x="567" y="-208" type="curve"/>
      <point x="592" y="-320" type="line"/>
      <point x="758" y="-339"/>
      <point x="809" y="-342"/>
    </contour>
  </outline>
</glyph>
<glyph name="eng" format="1">
  <advance width="1084"/>
  <unicode hex="014B"/>
  <outline>
    <contour>
      <point x="616" y="-218" type="line"/>
      <point x="691" y="-218" type="line" smooth="yes"/>
      <point x="960" y="-218"/>
      <point x="971" y="-100"/>
      <point x="971" y="194" type="curve" smooth="yes"/>
      <point x="971" y="649" type="line" smooth="yes"/>
      <point x="971" y="979"/>
      <point x="868" y="1119"/>
      <point x="635" y="1116" type="curve" smooth="yes"/>
      <point x="487" y="1115"/>
      <point x="328" y="1050"/>
      <point x="243" y="923" type="curve"/>
      <point x="230" y="1098" type="line"/>
      <point x="119" y="1098" type="line"/>
      <point x="123" y="-3" type="line"/>
      <point x="250" y="-3" type="line"/>
      <point x="250" y="748" type="line"/>
      <point x="269" y="853"/>
      <point x="407" y="1008"/>
      <point x="619" y="1008" type="curve" smooth="yes"/>
      <point x="833" y="1008"/>
      <point x="844" y="856"/>
      <point x="844" y="499" type="curve" smooth="yes"/>
      <point x="844" y="147" type="line" smooth="yes"/>
      <point x="844" y="-91"/>
      <point x="825" y="-112"/>
      <point x="648" y="-112" type="curve" smooth="yes"/>
      <point x="611" y="-112" type="line"/>
    </contour>
  </outline>
</glyph>
<glyph name="OE" format="1">
  <advance width="1886"/>
  <unicode hex="0152"/>
  <outline>
    <contour>
      <point x="943" y="1492" type="move" name="top"/>
    </contour>
    <contour>
      <point x="796" y="1549" type="curve" smooth="yes"/>
      <point x="945" y="1549"/>
      <point x="1073" y="1500"/>
      <point x="1138" y="1434" type="curve"/>
      <point x="1138" y="1520" type="line"/>
      <point x="1765" y="1520" type="line"/>
      <point x="1748" y="1403" type="line"/>
      <point x="1277" y="1403" type="line"/>
      <point x="1277" y="832" type="line"/>
      <point x="1710" y="832" type="line"/>
      <point x="1710" y="715" type="line"/>
      <point x="1277" y="715" type="line"/>
      <point x="1277" y="118" type="line"/>
      <point x="1787" y="118" type="line"/>
      <point x="1773" y="-3" type="line"/>
      <point x="1138" y="-3" type="line"/>
      <point x="1138" y="80" type="line"/>
      <point x="1116" y="44"/>
      <point x="935" y="-26"/>
      <point x="827" y="-26" type="curve" smooth="yes"/>
      <point x="332" y="-26"/>
      <point x="111" y="300"/>
      <point x="111" y="795" type="curve" smooth="yes"/>
      <point x="124" y="1232"/>
      <point x="400" y="1549"/>
    </contour>
    <contour>
      <point x="1138" y="1336" type="line"/>
      <point x="1061" y="1391"/>
      <point x="946" y="1439"/>
      <point x="817" y="1439" type="curve" smooth="yes"/>
      <point x="483" y="1439"/>
      <point x="277" y="1195"/>
      <point x="266" y="801" type="curve" smooth="yes"/>
      <point x="266" y="397"/>
      <point x="404" y="92"/>
      <point x="829" y="86" type="curve" smooth="yes"/>
      <point x="943" y="86"/>
      <point x="1100" y="156"/>
      <point x="1138" y="161" type="curve"/>
    </contour>
  </outline>
</glyph>
<glyph name="oe" format="1">
  <advance width="1933"/>
  <unicode hex="0153"/>
  <outline>
    <contour>
      <point x="967" y="1097" type="move" name="top"/>
    </contour>
    <contour>
      <point x="583" y="-28" type="curve" smooth="yes"/>
      <point x="782" y="-28"/>
      <point x="920" y="77"/>
      <point x="1005" y="236" type="curve"/>
      <point x="1092" y="69"/>
      <point x="1243" y="-28"/>
      <point x="1432" y="-28" type="curve" smooth="yes"/>
      <point x="1606" y="-28"/>
      <point x="1741" y="28"/>
      <point x="1830" y="108" type="curve"/>
      <point x="1787" y="206" type="line"/>
      <point x="1705" y="152"/>
      <point x="1600" y="90"/>
      <point x="1436" y="90" type="curve" smooth="yes"/>
      <point x="1242" y="90"/>
      <point x="1083" y="264"/>
      <point x="1085" y="533" type="curve"/>
      <point x="1838" y="533" type="line"/>
      <point x="1838" y="562"/>
      <point x="1840" y="590"/>
      <point x="1840" y="599" type="curve" smooth="yes"/>
      <point x="1840" y="941"/>
      <point x="1683" y="1127"/>
      <point x="1430" y="1127" type="curve" smooth="yes"/>
      <point x="1261" y="1120"/>
      <point x="1098" y="1016"/>
      <point x="1011" y="861" type="curve"/>
      <point x="934" y="1022"/>
      <point x="794" y="1127"/>
      <point x="587" y="1127" type="curve" smooth="yes"/>
      <point x="268" y="1127"/>
      <point x="88" y="852"/>
      <point x="88" y="544" type="curve" smooth="yes"/>
      <point x="88" y="226"/>
      <point x="264" y="-28"/>
    </contour>
    <contour>
      <point x="588" y="81" type="curve" smooth="yes"/>
      <point x="315" y="81"/>
      <point x="226" y="332"/>
      <point x="226" y="539" type="curve" smooth="yes"/>
      <point x="226" y="747"/>
      <point x="317" y="1018"/>
      <point x="584" y="1018" type="curve" smooth="yes"/>
      <point x="866" y="1018"/>
      <point x="943" y="761"/>
      <point x="943" y="544" type="curve" smooth="yes"/>
      <point x="943" y="336"/>
      <point x="857" y="81"/>
    </contour>
    <contour>
      <point x="1092" y="625" type="line"/>
      <point x="1113" y="836"/>
      <point x="1232" y="1022"/>
      <point x="1423" y="1022" type="curve" smooth="yes"/>
      <point x="1590" y="1022"/>
      <point x="1707" y="889"/>
      <point x="1712" y="640" type="curve" smooth="yes"/>
      <point x="1712" y="634"/>
      <point x="1712" y="632"/>
      <point x="1712" y="625" type="curve"/>
    </contour>
  </outline>
</glyph>
<glyph name="uni018F" format="1">
  <advance width="1422"/>
  <unicode hex="018F"/>
  <outline>
    <contour>
      <point x="1156" y="657" type="curve"/>
      <point x="169" y="657" type="line"/>
      <point x="182" y="456"/>
      <point x="247" y="84"/>
      <point x="666" y="84" type="curve" smooth="yes"/>
      <point x="946" y="84"/>
      <point x="1124" y="343"/>
    </contour>
    <contour>
      <point x="665" y="-25" type="curve" smooth="yes"/>
      <point x="172" y="-25"/>
      <point x="36" y="422"/>
      <point x="23" y="596" type="curve" smooth="yes"/>
      <point x="24" y="654"/>
      <point x="33" y="782"/>
      <point x="33" y="769" type="curve"/>
      <point x="1163" y="769" type="line"/>
      <point x="1162" y="1083"/>
      <point x="1020" y="1444"/>
      <point x="591" y="1444" type="curve" smooth="yes"/>
      <point x="436" y="1444"/>
      <point x="324" y="1380"/>
      <point x="223" y="1309" type="curve"/>
      <point x="165" y="1410" type="line"/>
      <point x="293" y="1502"/>
      <point x="400" y="1551"/>
      <point x="606" y="1551" type="curve" smooth="yes"/>
      <point x="1074" y="1551"/>
      <point x="1310" y="1194"/>
      <point x="1310" y="770" type="curve" smooth="yes"/>
      <point x="1310" y="331"/>
      <point x="1052" y="-25"/>
    </contour>
  </outline>
</glyph>
<glyph name="florin" format="1">
  <advance width="941"/>
  <unicode hex="0192"/>
  <outline>
    <contour>
      <point x="399" y="922" type="curve"/>
      <point x="241" y="922" type="line"/>
      <point x="251" y="1050" type="line"/>
      <point x="421" y="1050" type="line"/>
      <point x="445" y="1237" type="line" smooth="yes"/>
      <point x="471" y="1427"/>
      <point x="543" y="1605"/>
      <point x="750" y="1605" type="curve" smooth="yes"/>
      <point x="784" y="1605"/>
      <point x="804" y="1604"/>
      <point x="862" y="1585" type="curve"/>
      <point x="856" y="1462" type="line"/>
      <point x="807" y="1487"/>
      <point x="799" y="1479"/>
      <point x="774" y="1479" type="curve" smooth="yes"/>
      <point x="667" y="1479"/>
      <point x="632" y="1411"/>
      <point x="617" y="1293" type="curve" smooth="yes"/>
      <point x="575" y="1050" type="line"/>
      <point x="757" y="1050" type="line"/>
      <point x="747" y="923" type="line"/>
      <point x="558" y="923" type="line"/>
      <point x="423" y="132" type="line" smooth="yes"/>
      <point x="373" y="-157"/>
      <point x="306" y="-374"/>
      <point x="101" y="-374" type="curve" smooth="yes"/>
      <point x="78" y="-374"/>
      <point x="74" y="-375"/>
      <point x="25" y="-358" type="curve"/>
      <point x="34" y="-241" type="line"/>
      <point x="70" y="-258"/>
      <point x="71" y="-254"/>
      <point x="90" y="-254" type="curve" smooth="yes"/>
      <point x="176" y="-254"/>
      <point x="217" y="-144"/>
      <point x="241" y="-13" type="curve" smooth="yes"/>
      <point x="306" y="288"/>
      <point x="345" y="618"/>
    </contour>
  </outline>
</glyph>
<glyph name="uni0237" format="1">
  <advance width="404"/>
  <unicode hex="0237"/>
  <outline>
    <contour>
      <point x="202" y="1097" type="move" name="top"/>
    </contour>
    <contour>
      <point x="292" y="1105" type="line"/>
      <point x="292" y="-313" type="line" smooth="yes"/>
      <point x="292" y="-547"/>
      <point x="238" y="-603"/>
      <point x="-6" y="-603" type="curve" smooth="yes"/>
      <point x="-63" y="-603" type="line"/>
      <point x="-93" y="-486" type="line"/>
      <point x="-33" y="-486" type="line" smooth="yes"/>
      <point x="157" y="-486"/>
      <point x="157" y="-412"/>
      <point x="157" y="-250" type="curve" smooth="yes"/>
      <point x="157" y="1105" type="line"/>
    </contour>
  </outline>
</glyph>
<glyph name="uni0259" format="1">
  <advance width="1079"/>
  <unicode hex="0259"/>
  <outline>
    <contour>
      <point x="509" y="1116" type="curve" smooth="yes"/>
      <point x="335" y="1116"/>
      <point x="190" y="1061"/>
      <point x="102" y="980" type="curve"/>
      <point x="144" y="890" type="line"/>
      <point x="227" y="944"/>
      <point x="341" y="1005"/>
      <point x="505" y="1005" type="curve" smooth="yes"/>
      <point x="699" y="1005"/>
      <point x="855" y="824"/>
      <point x="853" y="555" type="curve"/>
      <point x="93" y="555" type="line"/>
      <point x="93" y="541"/>
      <point x="91" y="499"/>
      <point x="91" y="489" type="curve" smooth="yes"/>
      <point x="91" y="148"/>
      <point x="253" y="-28"/>
      <point x="506" y="-28" type="curve" smooth="yes"/>
      <point x="385" y="-28"/>
      <point x="986" y="211"/>
      <point x="986" y="541" type="curve" smooth="yes"/>
      <point x="986" y="894"/>
      <point x="800" y="1116"/>
    </contour>
    <contour>
      <point x="521" y="69" type="curve" smooth="yes"/>
      <point x="350" y="69"/>
      <point x="219" y="197"/>
      <point x="219" y="459" type="curve"/>
      <point x="846" y="459" type="line"/>
      <point x="825" y="249"/>
      <point x="713" y="69"/>
    </contour>
  </outline>
</glyph>
<glyph name="afii57929" format="1">
  <advance width="561"/>
  <unicode hex="02BC"/>
  <outline>
    <contour>
      <point x="145" y="1193" type="line"/>
      <point x="285" y="1640" type="line"/>
      <point x="419" y="1640" type="line"/>
      <point x="248" y="1193" type="line"/>
    </contour>
  </outline>
</glyph>
<glyph name="circumflex" format="1">
  <advance width="812"/>
  <unicode hex="02C6"/>
  <outline>
    <contour>
      <point x="402" y="1097" type="move" name="_top"/>
    </contour>
    <contour>
      <point x="138" y="1316" type="line"/>
      <point x="294" y="1707" type="line"/>
      <point x="509" y="1707" type="line"/>
      <point x="666" y="1316" type="line"/>
      <point x="556" y="1316" type="line"/>
      <point x="401" y="1627" type="line"/>
      <point x="245" y="1316" type="line"/>
    </contour>
  </outline>
</glyph>
<glyph name="caron" format="1">
  <advance width="813"/>
  <unicode hex="02C7"/>
  <outline>
    <contour>
      <point x="401" y="1097" type="move" name="_top"/>
    </contour>
    <contour>
      <point x="141" y="1707" type="line"/>
      <point x="239" y="1707" type="line"/>
      <point x="401" y="1311" type="line"/>
      <point x="560" y="1707" type="line"/>
      <point x="661" y="1707" type="line"/>
      <point x="510" y="1293" type="line"/>
      <point x="292" y="1293" type="line"/>
    </contour>
  </outline>
</glyph>
<glyph name="breve" format="1">
  <advance width="775"/>
  <unicode hex="02D8"/>
  <outline>
    <contour>
      <point x="392" y="1097" type="move" name="_top"/>
    </contour>
    <contour>
      <point x="389" y="1350" type="curve" smooth="yes"/>
      <point x="288" y="1350"/>
      <point x="160" y="1440"/>
      <point x="160" y="1613" type="curve"/>
      <point x="252" y="1613" type="line"/>
      <point x="252" y="1496"/>
      <point x="323" y="1439"/>
      <point x="389" y="1439" type="curve" smooth="yes"/>
      <point x="456" y="1439"/>
      <point x="531" y="1496"/>
      <point x="531" y="1613" type="curve"/>
      <point x="624" y="1613" type="line"/>
      <point x="624" y="1441"/>
      <point x="492" y="1350"/>
    </contour>
  </outline>
</glyph>
<glyph name="dotaccent" format="1">
  <advance width="349"/>
  <unicode hex="02D9"/>
  <outline>
    <contour>
      <point x="184" y="1097" type="move" name="_top"/>
    </contour>
    <contour>
      <point x="257" y="1519" type="line"/>
      <point x="257" y="1334" type="line"/>
      <point x="105" y="1334" type="line"/>
      <point x="105" y="1519" type="line"/>
    </contour>
  </outline>
</glyph>
<glyph name="ring" format="1">
  <advance width="621"/>
  <unicode hex="02DA"/>
  <outline>
    <contour>
      <point x="315" y="1097" type="move" name="_top"/>
    </contour>
    <contour>
      <point x="315" y="1388" type="curve" smooth="yes"/>
      <point x="358" y="1388"/>
      <point x="406" y="1437"/>
      <point x="406" y="1501" type="curve" smooth="yes"/>
      <point x="406" y="1565"/>
      <point x="364" y="1618"/>
      <point x="315" y="1618" type="curve" smooth="yes"/>
      <point x="272" y="1618"/>
      <point x="220" y="1565"/>
      <point x="220" y="1501" type="curve" smooth="yes"/>
      <point x="220" y="1428"/>
      <point x="259" y="1388"/>
    </contour>
    <contour>
      <point x="315" y="1691" type="curve" smooth="yes"/>
      <point x="401" y="1691"/>
      <point x="497" y="1617"/>
      <point x="497" y="1501" type="curve" smooth="yes"/>
      <point x="497" y="1380"/>
      <point x="398" y="1330"/>
      <point x="318" y="1330" type="curve" smooth="yes"/>
      <point x="231" y="1330"/>
      <point x="133" y="1380"/>
      <point x="133" y="1501" type="curve" smooth="yes"/>
      <point x="133" y="1628"/>
      <point x="233" y="1691"/>
    </contour>
  </outline>
</glyph>
<glyph name="ogonek" format="1">
  <advance width="596"/>
  <unicode hex="02DB"/>
  <outline>
    <contour>
      <point x="446" y="10" type="move" name="_ogonek"/>
    </contour>
    <contour>
      <point x="312" y="-340" type="curve" smooth="yes"/>
      <point x="362" y="-340"/>
      <point x="377" y="-343"/>
      <point x="446" y="-311" type="curve"/>
      <point x="446" y="-411" type="line"/>
      <point x="418" y="-421"/>
      <point x="356" y="-439"/>
      <point x="306" y="-439" type="curve" smooth="yes"/>
      <point x="201" y="-439"/>
      <point x="120" y="-371"/>
      <point x="120" y="-260" type="curve" smooth="yes"/>
      <point x="120" y="-166"/>
      <point x="208" y="-80"/>
      <point x="311" y="-16" type="curve"/>
      <point x="428" y="-16" type="line"/>
      <point x="315" y="-103"/>
      <point x="221" y="-178"/>
      <point x="221" y="-250" type="curve" smooth="yes"/>
      <point x="221" y="-311"/>
      <point x="276" y="-340"/>
    </contour>
  </outline>
</glyph>
<glyph name="tilde" format="1">
  <advance width="933"/>
  <unicode hex="02DC"/>
  <outline>
    <contour>
      <point x="444" y="1097" type="move" name="_top"/>
    </contour>
    <contour>
      <point x="238" y="1336" type="curve"/>
      <point x="148" y="1336" type="line"/>
      <point x="148" y="1520"/>
      <point x="237" y="1540"/>
      <point x="320" y="1540" type="curve" smooth="yes"/>
      <point x="440" y="1540"/>
      <point x="623" y="1439"/>
      <point x="603" y="1439" type="curve" smooth="yes"/>
      <point x="646" y="1444"/>
      <point x="645" y="1506"/>
      <point x="650" y="1540" type="curve"/>
      <point x="741" y="1540" type="line"/>
      <point x="741" y="1372"/>
      <point x="682" y="1336"/>
      <point x="600" y="1336" type="curve" smooth="yes"/>
      <point x="519" y="1336"/>
      <point x="283" y="1438"/>
      <point x="295" y="1438" type="curve" smooth="yes"/>
      <point x="262" y="1436"/>
      <point x="242" y="1387"/>
    </contour>
  </outline>
</glyph>
<glyph name="hungarumlaut" format="1">
  <advance width="738"/>
  <unicode hex="02DD"/>
  <outline>
    <contour>
      <point x="362" y="1097" type="move" name="_top"/>
    </contour>
    <contour>
      <point x="411" y="1651" type="line"/>
      <point x="200" y="1335" type="line"/>
      <point x="118" y="1335" type="line"/>
      <point x="292" y="1651" type="line"/>
    </contour>
    <contour>
      <point x="607" y="1651" type="line"/>
      <point x="400" y="1335" type="line"/>
      <point x="313" y="1335" type="line"/>
      <point x="493" y="1651" type="line"/>
    </contour>
  </outline>
</glyph>
<glyph name="uni0307" format="1">
  <advance width="361"/>
  <unicode hex="0307"/>
  <outline>
    <contour>
      <point x="185" y="1097" type="move" name="_top"/>
    </contour>
    <contour>
      <point x="334" y="1538" type="line"/>
      <point x="257" y="1232" type="line"/>
      <point x="29" y="1354" type="line"/>
      <point x="105" y="1661" type="line"/>
    </contour>
  </outline>
</glyph>
<glyph name="uni030F" format="1">
  <advance width="794"/>
  <unicode hex="030F"/>
  <outline>
    <contour>
      <point x="412" y="1097" type="move" name="_top"/>
    </contour>
    <contour>
      <point x="380" y="1305" type="line"/>
      <point x="161" y="1637" type="line"/>
      <point x="251" y="1637" type="line"/>
      <point x="449" y="1305" type="line"/>
    </contour>
    <contour>
      <point x="602" y="1305" type="line"/>
      <point x="379" y="1637" type="line"/>
      <point x="478" y="1637" type="line"/>
      <point x="662" y="1305" type="line"/>
    </contour>
  </outline>
</glyph>
<glyph name="uni0311" format="1">
  <advance width="793"/>
  <unicode hex="0311"/>
  <outline>
    <contour>
      <point x="397" y="1613" type="curve" smooth="yes"/>
      <point x="507" y="1613"/>
      <point x="632" y="1617"/>
      <point x="632" y="1350" type="curve"/>
      <point x="539" y="1350" type="line"/>
      <point x="539" y="1499"/>
      <point x="468" y="1524"/>
      <point x="397" y="1524" type="curve" smooth="yes"/>
      <point x="327" y="1524"/>
      <point x="260" y="1499"/>
      <point x="260" y="1350" type="curve"/>
      <point x="168" y="1350" type="line"/>
      <point x="168" y="1617"/>
      <point x="289" y="1613"/>
    </contour>
  </outline>
</glyph>
<glyph name="uni0326" format="1">
  <advance width="552"/>
  <unicode hex="0326"/>
  <outline>
    <contour>
      <point x="284" y="0" type="move" name="_bottom"/>
    </contour>
    <contour>
      <point x="172" y="-670" type="line"/>
      <point x="258" y="-186" type="line"/>
      <point x="396" y="-186" type="line"/>
      <point x="265" y="-670" type="line"/>
    </contour>
  </outline>
</glyph>
<glyph name="pi" format="1">
  <advance width="1473"/>
  <unicode hex="03C0"/>
  <outline>
    <contour>
      <point x="1284" y="1129" type="line"/>
      <point x="1284" y="1012" type="line"/>
      <point x="1109" y="1012" type="line"/>
      <point x="1109" y="305" type="line" smooth="yes"/>
      <point x="1109" y="254"/>
      <point x="1108" y="132"/>
      <point x="1205" y="132" type="curve" smooth="yes"/>
      <point x="1217" y="132"/>
      <point x="1240" y="133"/>
      <point x="1268" y="140" type="curve"/>
      <point x="1269" y="175"/>
      <point x="1274" y="5"/>
      <point x="1274" y="5" type="curve"/>
      <point x="1229" y="-3"/>
      <point x="1193" y="-9"/>
      <point x="1163" y="-9" type="curve" smooth="yes"/>
      <point x="1048" y="-9"/>
      <point x="1003" y="45"/>
      <point x="1003" y="293" type="curve" smooth="yes"/>
      <point x="1002" y="1011" type="line"/>
      <point x="572" y="1011" type="line"/>
      <point x="555" y="548"/>
      <point x="524" y="99"/>
      <point x="464" y="-1" type="curve"/>
      <point x="348" y="-1" type="line"/>
      <point x="427" y="169"/>
      <point x="445" y="522"/>
      <point x="456" y="1007" type="curve"/>
      <point x="354" y="1006"/>
      <point x="280" y="992"/>
      <point x="220" y="950" type="curve"/>
      <point x="209" y="1068" type="line"/>
      <point x="253" y="1116"/>
      <point x="342" y="1129"/>
      <point x="491" y="1129" type="curve" smooth="yes"/>
    </contour>
  </outline>
</glyph>
<glyph name="afii10053" format="1">
  <advance width="1291"/>
  <unicode hex="0404"/>
  <outline>
    <contour>
      <point x="217" y="677" type="line"/>
      <point x="243" y="378"/>
      <point x="408" y="86"/>
      <point x="761" y="86" type="curve" smooth="yes"/>
      <point x="926" y="86"/>
      <point x="1069" y="146"/>
      <point x="1141" y="204" type="curve"/>
      <point x="1195" y="112" type="line"/>
      <point x="1114" y="31"/>
      <point x="972" y="-26"/>
      <point x="758" y="-26" type="curve" smooth="yes"/>
      <point x="269" y="-26"/>
      <point x="59" y="335"/>
      <point x="59" y="770" type="curve" smooth="yes"/>
      <point x="59" y="1172"/>
      <point x="260" y="1551"/>
      <point x="763" y="1551" type="curve" smooth="yes"/>
      <point x="973" y="1551"/>
      <point x="1108" y="1511"/>
      <point x="1188" y="1426" type="curve"/>
      <point x="1142" y="1320" type="line"/>
      <point x="1073" y="1377"/>
      <point x="938" y="1439"/>
      <point x="777" y="1439" type="curve" smooth="yes"/>
      <point x="354" y="1439"/>
      <point x="218" y="1116"/>
      <point x="213" y="795" type="curve"/>
      <point x="914" y="795" type="line"/>
      <point x="914" y="677" type="line"/>
    </contour>
  </outline>
</glyph>
<glyph name="afii10058" format="1">
  <advance width="1800"/>
  <unicode hex="0409"/>
  <outline>
    <contour>
      <point x="969" y="1527" type="line"/>
      <point x="969" y="866" type="line"/>
      <point x="1267" y="866" type="line" smooth="yes"/>
      <point x="1521" y="866"/>
      <point x="1676" y="734"/>
      <point x="1676" y="420" type="curve" smooth="yes"/>
      <point x="1676" y="144"/>
      <point x="1524" y="-3"/>
      <point x="1264" y="-3" type="curve" smooth="yes"/>
      <point x="809" y="-3" type="line"/>
      <point x="824" y="1406" type="line"/>
      <point x="406" y="1406" type="line"/>
      <point x="400" y="429" type="line"/>
      <point x="400" y="129"/>
      <point x="393" y="-30"/>
      <point x="51" y="-30" type="curve" smooth="yes"/>
      <point x="36" y="-30" type="line"/>
      <point x="36" y="101" type="line"/>
      <point x="68" y="100" type="line" smooth="yes"/>
      <point x="258" y="98"/>
      <point x="261" y="234"/>
      <point x="261" y="378" type="curve" smooth="yes"/>
      <point x="262" y="1527" type="line"/>
    </contour>
    <contour>
      <point x="1257" y="747" type="curve" smooth="yes"/>
      <point x="960" y="747" type="line"/>
      <point x="960" y="112" type="line"/>
      <point x="1257" y="112" type="line" smooth="yes"/>
      <point x="1402" y="112"/>
      <point x="1515" y="232"/>
      <point x="1515" y="421" type="curve" smooth="yes"/>
      <point x="1515" y="611"/>
      <point x="1409" y="747"/>
    </contour>
  </outline>
</glyph>
<glyph name="afii10018" format="1">
  <advance width="1137"/>
  <unicode hex="0411"/>
  <outline>
    <contour>
      <point x="155" y="1524" type="line"/>
      <point x="990" y="1524" type="line"/>
      <point x="990" y="1404" type="line"/>
      <point x="288" y="1404" type="line"/>
      <point x="288" y="874" type="line"/>
      <point x="611" y="874" type="line" smooth="yes"/>
      <point x="877" y="874"/>
      <point x="1047" y="741"/>
      <point x="1047" y="424" type="curve" smooth="yes"/>
      <point x="1047" y="147"/>
      <point x="894" y="0"/>
      <point x="624" y="0" type="curve" smooth="yes"/>
      <point x="155" y="0" type="line"/>
    </contour>
    <contour>
      <point x="904" y="426" type="curve" smooth="yes"/>
      <point x="904" y="616"/>
      <point x="813" y="754"/>
      <point x="617" y="754" type="curve" smooth="yes"/>
      <point x="288" y="754" type="line"/>
      <point x="288" y="121" type="line"/>
      <point x="617" y="121" type="line" smooth="yes"/>
      <point x="807" y="121"/>
      <point x="904" y="238"/>
    </contour>
  </outline>
</glyph>
<glyph name="afii10020" format="1">
  <advance width="793"/>
  <unicode hex="0413"/>
  <outline>
    <contour>
      <point x="397" y="1492" type="move" name="top"/>
    </contour>
    <contour>
      <point x="981" y="1404" type="line"/>
      <point x="287" y="1404" type="line"/>
      <point x="287" y="0" type="line"/>
      <point x="154" y="0" type="line"/>
      <point x="154" y="1524" type="line"/>
      <point x="993" y="1524" type="line"/>
    </contour>
  </outline>
</glyph>
<glyph name="afii10025" format="1">
  <advance width="1099"/>
  <unicode hex="0417"/>
  <outline>
    <contour>
      <point x="549" y="1492" type="move" name="top"/>
    </contour>
    <contour>
      <point x="549" y="0" type="move" name="bottom"/>
    </contour>
    <contour>
      <point x="489" y="701" type="curve" smooth="yes"/>
      <point x="405" y="701" type="line"/>
      <point x="405" y="825" type="line"/>
      <point x="500" y="825" type="line" smooth="yes"/>
      <point x="747" y="825"/>
      <point x="822" y="1234"/>
      <point x="822" y="1149" type="curve" smooth="yes"/>
      <point x="809" y="1357"/>
      <point x="671" y="1443"/>
      <point x="523" y="1443" type="curve" smooth="yes"/>
      <point x="410" y="1443"/>
      <point x="244" y="1389"/>
      <point x="150" y="1341" type="curve"/>
      <point x="98" y="1440" type="line"/>
      <point x="207" y="1515"/>
      <point x="361" y="1548"/>
      <point x="536" y="1548" type="curve" smooth="yes"/>
      <point x="863" y="1548"/>
      <point x="961" y="1277"/>
      <point x="961" y="1161" type="curve" smooth="yes"/>
      <point x="961" y="1000"/>
      <point x="838" y="812"/>
      <point x="697" y="782" type="curve"/>
      <point x="841" y="768"/>
      <point x="997" y="608"/>
      <point x="997" y="394" type="curve" smooth="yes"/>
      <point x="997" y="148"/>
      <point x="825" y="-26"/>
      <point x="492" y="-26" type="curve" smooth="yes"/>
      <point x="295" y="-26"/>
      <point x="164" y="35"/>
      <point x="63" y="84" type="curve"/>
      <point x="49" y="49"/>
      <point x="123" y="233"/>
      <point x="111" y="197" type="curve"/>
      <point x="195" y="131"/>
      <point x="341" y="84"/>
      <point x="486" y="84" type="curve" smooth="yes"/>
      <point x="645" y="84"/>
      <point x="850" y="152"/>
      <point x="850" y="389" type="curve" smooth="yes"/>
      <point x="850" y="539"/>
      <point x="779" y="701"/>
    </contour>
  </outline>
</glyph>
<glyph name="afii10026" format="1">
  <advance width="1496"/>
  <unicode hex="0418"/>
  <outline>
    <contour>
      <point x="749" y="1492" type="move" name="top"/>
    </contour>
    <contour>
      <point x="155" y="0" type="line"/>
      <point x="155" y="1526" type="line"/>
      <point x="278" y="1526" type="line"/>
      <point x="278" y="146" type="line"/>
      <point x="633" y="763"/>
      <point x="757" y="895"/>
      <point x="1119" y="1504" type="curve"/>
      <point x="1137" y="1534"/>
      <point x="1149" y="1495"/>
      <point x="1167" y="1526" type="curve"/>
      <point x="1338" y="1526" type="line"/>
      <point x="1338" y="0" type="line"/>
      <point x="1217" y="0" type="line"/>
      <point x="1217" y="1426" type="line"/>
      <point x="336" y="0" type="line"/>
    </contour>
  </outline>
</glyph>
<glyph name="afii10033" format="1">
  <advance width="1467"/>
  <unicode hex="041F"/>
  <outline>
    <contour>
      <point x="1175" y="1401" type="line"/>
      <point x="288" y="1401" type="line"/>
      <point x="288" y="0" type="line"/>
      <point x="155" y="0" type="line"/>
      <point x="155" y="1524" type="line"/>
      <point x="1308" y="1524" type="line"/>
      <point x="1308" y="0" type="line"/>
      <point x="1175" y="0" type="line"/>
    </contour>
  </outline>
</glyph>
<glyph name="afii10038" format="1">
  <advance width="1686"/>
  <unicode hex="0424"/>
  <outline>
    <contour>
      <point x="889" y="1524" type="line"/>
      <point x="889" y="1389" type="line"/>
      <point x="1325" y="1344"/>
      <point x="1574" y="1141"/>
      <point x="1574" y="738" type="curve" smooth="yes"/>
      <point x="1574" y="343"/>
      <point x="1325" y="145"/>
      <point x="889" y="101" type="curve"/>
      <point x="889" y="0" type="line"/>
      <point x="771" y="0" type="line"/>
      <point x="773" y="104" type="line" smooth="yes"/>
      <point x="329" y="161"/>
      <point x="111" y="375"/>
      <point x="111" y="738" type="curve" smooth="yes"/>
      <point x="111" y="1108"/>
      <point x="329" y="1329"/>
      <point x="773" y="1386" type="curve" smooth="yes"/>
      <point x="771" y="1524" type="line"/>
    </contour>
    <contour>
      <point x="773" y="1267" type="line" smooth="yes"/>
      <point x="422" y="1212"/>
      <point x="264" y="1043"/>
      <point x="264" y="741" type="curve" smooth="yes"/>
      <point x="264" y="445"/>
      <point x="421" y="278"/>
      <point x="773" y="223" type="curve" smooth="yes"/>
    </contour>
    <contour>
      <point x="889" y="1270" type="curve"/>
      <point x="889" y="222" type="line"/>
      <point x="1261" y="271"/>
      <point x="1420" y="445"/>
      <point x="1420" y="741" type="curve" smooth="yes"/>
      <point x="1420" y="1044"/>
      <point x="1261" y="1221"/>
    </contour>
  </outline>
</glyph>
<glyph name="afii10040" format="1">
  <advance width="1462"/>
  <unicode hex="0426"/>
  <outline>
    <contour>
      <point x="1160" y="125" type="line"/>
      <point x="1160" y="1524" type="line"/>
      <point x="1294" y="1524" type="line"/>
      <point x="1294" y="192" type="line"/>
      <point x="1396" y="192" type="line"/>
      <point x="1396" y="-210" type="line"/>
      <point x="1249" y="-210" type="line"/>
      <point x="1250" y="0" type="line"/>
      <point x="155" y="0" type="line"/>
      <point x="155" y="1524" type="line"/>
      <point x="288" y="1524" type="line"/>
      <point x="288" y="125" type="line"/>
    </contour>
  </outline>
</glyph>
<glyph name="afii10041" format="1">
  <advance width="964"/>
  <unicode hex="0427"/>
  <outline>
    <contour>
      <point x="839" y="916" type="curve"/>
      <point x="839" y="1527" type="line"/>
      <point x="985" y="1527" type="line"/>
      <point x="985" y="-8" type="line"/>
      <point x="839" y="-8" type="line"/>
      <point x="840" y="740" type="line"/>
      <point x="731" y="557"/>
      <point x="608" y="469"/>
      <point x="419" y="469" type="curve" smooth="yes"/>
      <point x="215" y="469"/>
      <point x="97" y="674"/>
      <point x="97" y="865" type="curve" smooth="yes"/>
      <point x="97" y="1527" type="line"/>
      <point x="251" y="1527" type="line"/>
      <point x="251" y="1017" type="line" smooth="yes"/>
      <point x="251" y="751"/>
      <point x="329" y="605"/>
      <point x="488" y="605" type="curve" smooth="yes"/>
      <point x="684" y="605"/>
      <point x="839" y="813"/>
    </contour>
  </outline>
</glyph>
<glyph name="afii10042" format="1">
  <advance width="1593"/>
  <unicode hex="0428"/>
  <outline>
    <contour>
      <point x="288" y="125" type="line"/>
      <point x="719" y="125" type="line"/>
      <point x="719" y="1524" type="line"/>
      <point x="852" y="1524" type="line"/>
      <point x="852" y="125" type="line"/>
      <point x="1302" y="125" type="line"/>
      <point x="1302" y="1524" type="line"/>
      <point x="1435" y="1524" type="line"/>
      <point x="1435" y="0" type="line"/>
      <point x="155" y="0" type="line"/>
      <point x="155" y="1524" type="line"/>
      <point x="288" y="1524" type="line"/>
    </contour>
  </outline>
</glyph>
<glyph name="afii10043" format="1">
  <advance width="1659"/>
  <unicode hex="0429"/>
  <outline>
    <contour>
      <point x="1387" y="-210" type="line"/>
      <point x="1387" y="0" type="line"/>
      <point x="155" y="0" type="line"/>
      <point x="155" y="1524" type="line"/>
      <point x="288" y="1524" type="line"/>
      <point x="288" y="125" type="line"/>
      <point x="720" y="125" type="line"/>
      <point x="720" y="1524" type="line"/>
      <point x="853" y="1524" type="line"/>
      <point x="853" y="125" type="line"/>
      <point x="1303" y="125" type="line"/>
      <point x="1303" y="1524" type="line"/>
      <point x="1436" y="1524" type="line"/>
      <point x="1436" y="192" type="line"/>
      <point x="1536" y="192" type="line"/>
      <point x="1536" y="-210" type="line"/>
    </contour>
  </outline>
</glyph>
<glyph name="afii10044" format="1">
  <advance width="1365"/>
  <unicode hex="042A"/>
  <outline>
    <contour>
      <point x="436" y="-8" type="line"/>
      <point x="436" y="1406" type="line"/>
      <point x="31" y="1406" type="line"/>
      <point x="31" y="1527" type="line"/>
      <point x="583" y="1527" type="line"/>
      <point x="583" y="788" type="line"/>
      <point x="766" y="788" type="line" smooth="yes"/>
      <point x="1124" y="788"/>
      <point x="1289" y="654"/>
      <point x="1289" y="387" type="curve" smooth="yes"/>
      <point x="1289" y="120"/>
      <point x="1090" y="-8"/>
      <point x="761" y="-8" type="curve" smooth="yes"/>
    </contour>
    <contour>
      <point x="1150" y="399" type="curve" smooth="yes"/>
      <point x="1150" y="566"/>
      <point x="1060" y="671"/>
      <point x="787" y="671" type="curve" smooth="yes"/>
      <point x="583" y="671" type="line"/>
      <point x="583" y="114" type="line"/>
      <point x="783" y="114" type="line" smooth="yes"/>
      <point x="1045" y="114"/>
      <point x="1150" y="212"/>
    </contour>
  </outline>
</glyph>
<glyph name="afii10046" format="1">
  <advance width="1073"/>
  <unicode hex="042C"/>
  <outline>
    <contour>
      <point x="283" y="1527" type="line"/>
      <point x="283" y="788" type="line"/>
      <point x="363" y="788" type="line" smooth="yes"/>
      <point x="709" y="788"/>
      <point x="927" y="655"/>
      <point x="927" y="406" type="curve" smooth="yes"/>
      <point x="927" y="171"/>
      <point x="762" y="-8"/>
      <point x="371" y="-8" type="curve" smooth="yes"/>
      <point x="132" y="-8" type="line"/>
      <point x="132" y="1527" type="line"/>
    </contour>
    <contour>
      <point x="283" y="671" type="line"/>
      <point x="283" y="113" type="line"/>
      <point x="392" y="113" type="line" smooth="yes"/>
      <point x="665" y="113"/>
      <point x="788" y="212"/>
      <point x="788" y="399" type="curve" smooth="yes"/>
      <point x="788" y="577"/>
      <point x="669" y="671"/>
      <point x="383" y="671" type="curve" smooth="yes"/>
    </contour>
  </outline>
</glyph>
<glyph name="afii10047" format="1">
  <advance width="1291"/>
  <unicode hex="042D"/>
  <outline>
    <contour>
      <point x="495" y="-26" type="curve" smooth="yes"/>
      <point x="281" y="-26"/>
      <point x="139" y="31"/>
      <point x="58" y="112" type="curve"/>
      <point x="113" y="204" type="line"/>
      <point x="184" y="146"/>
      <point x="326" y="86"/>
      <point x="492" y="86" type="curve" smooth="yes"/>
      <point x="845" y="86"/>
      <point x="1010" y="378"/>
      <point x="1036" y="677" type="curve"/>
      <point x="339" y="677" type="line"/>
      <point x="339" y="795" type="line"/>
      <point x="1041" y="795" type="line"/>
      <point x="1035" y="1116"/>
      <point x="899" y="1439"/>
      <point x="475" y="1439" type="curve" smooth="yes"/>
      <point x="315" y="1439"/>
      <point x="180" y="1377"/>
      <point x="112" y="1320" type="curve"/>
      <point x="65" y="1426" type="line"/>
      <point x="147" y="1511"/>
      <point x="287" y="1551"/>
      <point x="502" y="1551" type="curve" smooth="yes"/>
      <point x="997" y="1551"/>
      <point x="1194" y="1172"/>
      <point x="1194" y="770" type="curve" smooth="yes"/>
      <point x="1194" y="335"/>
      <point x="984" y="-26"/>
    </contour>
  </outline>
</glyph>
<glyph name="afii10048" format="1">
  <advance width="2217"/>
  <unicode hex="042E"/>
  <outline>
    <contour>
      <point x="1273" y="-26" type="curve" smooth="yes"/>
      <point x="883" y="-26"/>
      <point x="654" y="305"/>
      <point x="627" y="709" type="curve"/>
      <point x="283" y="709" type="line"/>
      <point x="283" y="-8" type="line"/>
      <point x="132" y="-8" type="line"/>
      <point x="132" y="1525" type="line"/>
      <point x="283" y="1525" type="line"/>
      <point x="283" y="827" type="line"/>
      <point x="630" y="827" type="line"/>
      <point x="656" y="1259"/>
      <point x="876" y="1551"/>
      <point x="1261" y="1551" type="curve" smooth="yes"/>
      <point x="1674" y="1551"/>
      <point x="1924" y="1214"/>
      <point x="1924" y="750" type="curve" smooth="yes"/>
      <point x="1924" y="328"/>
      <point x="1689" y="-26"/>
    </contour>
    <contour>
      <point x="1264" y="1439" type="curve" smooth="yes"/>
      <point x="944" y="1439"/>
      <point x="783" y="1103"/>
      <point x="783" y="752" type="curve" smooth="yes"/>
      <point x="783" y="247"/>
      <point x="954" y="86"/>
      <point x="1277" y="86" type="curve" smooth="yes"/>
      <point x="1597" y="86"/>
      <point x="1764" y="397"/>
      <point x="1764" y="755" type="curve" smooth="yes"/>
      <point x="1764" y="1090"/>
      <point x="1598" y="1439"/>
    </contour>
  </outline>
</glyph>
<glyph name="afii10049" format="1">
  <advance width="1299"/>
  <unicode hex="042F"/>
  <outline>
    <contour>
      <point x="1009" y="0" type="line"/>
      <point x="1009" y="662" type="line"/>
      <point x="835" y="662" type="line" smooth="yes"/>
      <point x="643" y="662"/>
      <point x="587" y="671"/>
      <point x="539" y="677" type="curve"/>
      <point x="539" y="677"/>
      <point x="411" y="392"/>
      <point x="424" y="435" type="curve" smooth="yes"/>
      <point x="218" y="0" type="line"/>
      <point x="56" y="0" type="line"/>
      <point x="117" y="149"/>
      <point x="180" y="232"/>
      <point x="288" y="478" type="curve" smooth="yes"/>
      <point x="357" y="621"/>
      <point x="413" y="736"/>
      <point x="391" y="697" type="curve"/>
      <point x="221" y="763"/>
      <point x="111" y="909"/>
      <point x="111" y="1095" type="curve" smooth="yes"/>
      <point x="111" y="1359"/>
      <point x="307" y="1524"/>
      <point x="685" y="1524" type="curve" smooth="yes"/>
      <point x="1142" y="1524" type="line"/>
      <point x="1142" y="0" type="line"/>
    </contour>
    <contour>
      <point x="632" y="783" type="curve" smooth="yes"/>
      <point x="1009" y="783" type="line"/>
      <point x="1009" y="1403" type="line"/>
      <point x="635" y="1403" type="line" smooth="yes"/>
      <point x="353" y="1403"/>
      <point x="243" y="1291"/>
      <point x="243" y="1095" type="curve" smooth="yes"/>
      <point x="243" y="920"/>
      <point x="319" y="783"/>
    </contour>
  </outline>
</glyph>
<glyph name="afii10066" format="1">
  <advance width="980"/>
  <unicode hex="0431"/>
  <outline>
    <contour>
      <point x="568" y="616" type="curve" smooth="yes"/>
      <point x="246" y="616" type="line"/>
      <point x="246" y="97" type="line"/>
      <point x="566" y="97" type="line" smooth="yes"/>
      <point x="712" y="97"/>
      <point x="795" y="269"/>
      <point x="795" y="376" type="curve" smooth="yes"/>
      <point x="795" y="488"/>
      <point x="710" y="616"/>
    </contour>
    <contour>
      <point x="119" y="1098" type="line"/>
      <point x="813" y="1098" type="line"/>
      <point x="813" y="992" type="line"/>
      <point x="246" y="992" type="line"/>
      <point x="246" y="719" type="line"/>
      <point x="537" y="719" type="line" smooth="yes"/>
      <point x="832" y="719"/>
      <point x="924" y="518"/>
      <point x="924" y="372" type="curve" smooth="yes"/>
      <point x="924" y="217"/>
      <point x="818" y="0"/>
      <point x="531" y="0" type="curve" smooth="yes"/>
      <point x="119" y="0" type="line"/>
    </contour>
  </outline>
</glyph>
<glyph name="afii10067" format="1">
  <advance width="994"/>
  <unicode hex="0432"/>
  <outline>
    <contour>
      <point x="928" y="314" type="curve" smooth="yes"/>
      <point x="928" y="182"/>
      <point x="821" y="0"/>
      <point x="528" y="0" type="curve" smooth="yes"/>
      <point x="119" y="0" type="line"/>
      <point x="119" y="1098" type="line"/>
      <point x="538" y="1098" type="line" smooth="yes"/>
      <point x="807" y="1098"/>
      <point x="892" y="925"/>
      <point x="892" y="815" type="curve" smooth="yes"/>
      <point x="892" y="733"/>
      <point x="856" y="637"/>
      <point x="755" y="576" type="curve"/>
      <point x="873" y="506"/>
      <point x="921" y="400"/>
    </contour>
    <contour>
      <point x="537" y="517" type="curve" smooth="yes"/>
      <point x="246" y="517" type="line"/>
      <point x="246" y="98" type="line"/>
      <point x="537" y="98" type="line" smooth="yes"/>
      <point x="703" y="98"/>
      <point x="798" y="182"/>
      <point x="798" y="322" type="curve" smooth="yes"/>
      <point x="791" y="415"/>
      <point x="703" y="517"/>
    </contour>
    <contour>
      <point x="246" y="630" type="line"/>
      <point x="541" y="630" type="line" smooth="yes"/>
      <point x="691" y="630"/>
      <point x="764" y="723"/>
      <point x="764" y="810" type="curve" smooth="yes"/>
      <point x="764" y="918"/>
      <point x="691" y="994"/>
      <point x="541" y="994" type="curve" smooth="yes"/>
      <point x="246" y="994" type="line"/>
    </contour>
  </outline>
</glyph>
<glyph name="afii10068" format="1">
  <advance width="631"/>
  <unicode hex="0433"/>
  <outline>
    <contour>
      <point x="316" y="1097" type="move" name="top"/>
    </contour>
    <contour>
      <point x="631" y="996" type="line"/>
      <point x="246" y="996" type="line"/>
      <point x="246" y="0" type="line"/>
      <point x="119" y="0" type="line"/>
      <point x="119" y="1098" type="line"/>
      <point x="631" y="1098" type="line"/>
    </contour>
  </outline>
</glyph>
<glyph name="afii10069" format="1">
  <advance width="1051"/>
  <unicode hex="0434"/>
  <outline>
    <contour>
      <point x="-4" y="-216" type="line"/>
      <point x="-4" y="98" type="line"/>
      <point x="99" y="98" type="line"/>
      <point x="188" y="184"/>
      <point x="193" y="373"/>
      <point x="204" y="419" type="curve" smooth="yes"/>
      <point x="247" y="1098" type="line"/>
      <point x="893" y="1098" type="line"/>
      <point x="893" y="94" type="line"/>
      <point x="964" y="94" type="line"/>
      <point x="964" y="-216" type="line"/>
      <point x="828" y="-216" type="line"/>
      <point x="836" y="0" type="line"/>
      <point x="118" y="0" type="line"/>
      <point x="122" y="-216" type="line"/>
    </contour>
    <contour>
      <point x="239" y="94" type="curve"/>
      <point x="766" y="94" type="line"/>
      <point x="766" y="997" type="line"/>
      <point x="356" y="997" type="line"/>
      <point x="356" y="1026"/>
      <point x="340" y="555"/>
      <point x="341" y="581" type="curve" smooth="yes"/>
      <point x="339" y="470"/>
      <point x="305" y="189"/>
    </contour>
  </outline>
</glyph>
<glyph name="afii10072" format="1">
  <advance width="1473"/>
  <unicode hex="0436"/>
  <outline>
    <contour>
      <point x="671" y="573" type="line"/>
      <point x="671" y="1098" type="line"/>
      <point x="801" y="1098" type="line"/>
      <point x="801" y="573" type="line"/>
      <point x="1302" y="1098" type="line"/>
      <point x="1453" y="1098" type="line"/>
      <point x="924" y="569" type="line"/>
      <point x="1459" y="0" type="line"/>
      <point x="1298" y="0" type="line"/>
      <point x="801" y="532" type="line"/>
      <point x="801" y="0" type="line"/>
      <point x="671" y="0" type="line"/>
      <point x="671" y="532" type="line"/>
      <point x="174" y="0" type="line"/>
      <point x="13" y="0" type="line"/>
      <point x="548" y="569" type="line"/>
      <point x="19" y="1098" type="line"/>
      <point x="170" y="1098" type="line"/>
    </contour>
  </outline>
</glyph>
<glyph name="afii10073" format="1">
  <advance width="935"/>
  <unicode hex="0437"/>
  <outline>
    <contour>
      <point x="468" y="1097" type="move" name="top"/>
    </contour>
    <contour>
      <point x="468" y="0" type="move" name="bottom"/>
    </contour>
    <contour>
      <point x="400" y="-28" type="curve" smooth="yes"/>
      <point x="294" y="-28"/>
      <point x="139" y="-3"/>
      <point x="67" y="86" type="curve"/>
      <point x="95" y="159"/>
      <point x="105" y="90"/>
      <point x="131" y="163" type="curve"/>
      <point x="195" y="101"/>
      <point x="307" y="74"/>
      <point x="414" y="74" type="curve" smooth="yes"/>
      <point x="603" y="74"/>
      <point x="704" y="186"/>
      <point x="704" y="310" type="curve" smooth="yes"/>
      <point x="704" y="411"/>
      <point x="632" y="532"/>
      <point x="461" y="532" type="curve" smooth="yes"/>
      <point x="281" y="532" type="line"/>
      <point x="281" y="629" type="line"/>
      <point x="461" y="629" type="line" smooth="yes"/>
      <point x="611" y="629"/>
      <point x="668" y="746"/>
      <point x="668" y="831" type="curve" smooth="yes"/>
      <point x="668" y="940"/>
      <point x="595" y="1040"/>
      <point x="407" y="1040" type="curve" smooth="yes"/>
      <point x="308" y="1040"/>
      <point x="171" y="977"/>
      <point x="131" y="927" type="curve"/>
      <point x="131" y="927"/>
      <point x="90" y="961"/>
      <point x="70" y="1015" type="curve"/>
      <point x="147" y="1112"/>
      <point x="290" y="1146"/>
      <point x="412" y="1146" type="curve" smooth="yes"/>
      <point x="731" y="1146"/>
      <point x="801" y="954"/>
      <point x="801" y="831" type="curve" smooth="yes"/>
      <point x="801" y="745"/>
      <point x="783" y="649"/>
      <point x="631" y="581" type="curve"/>
      <point x="801" y="535"/>
      <point x="833" y="420"/>
      <point x="839" y="315" type="curve" smooth="yes"/>
      <point x="839" y="171"/>
      <point x="745" y="-28"/>
    </contour>
  </outline>
</glyph>
<glyph name="afii10074" format="1">
  <advance width="1086"/>
  <unicode hex="0438"/>
  <outline>
    <contour>
      <point x="543" y="1097" type="move" name="top"/>
    </contour>
    <contour>
      <point x="964" y="0" type="line"/>
      <point x="829" y="0" type="line"/>
      <point x="829" y="820" type="line"/>
      <point x="246" y="0" type="line"/>
      <point x="119" y="0" type="line"/>
      <point x="119" y="1098" type="line"/>
      <point x="253" y="1098" type="line"/>
      <point x="253" y="187" type="line"/>
      <point x="829" y="1003" type="line"/>
      <point x="829" y="1098" type="line"/>
      <point x="964" y="1098" type="line"/>
    </contour>
  </outline>
</glyph>
